G04*
G04 #@! TF.GenerationSoftware,Altium Limited,Altium Designer,21.0.9 (235)*
G04*
G04 Layer_Color=8388736*
%FSLAX44Y44*%
%MOMM*%
G71*
G04*
G04 #@! TF.SameCoordinates,BC5F0FA3-8C3F-41DD-A052-AF4356C4A8CD*
G04*
G04*
G04 #@! TF.FilePolarity,Negative*
G04*
G01*
G75*
%ADD20R,1.5000X3.2000*%
%ADD27R,1.3000X1.1000*%
%ADD28R,1.3000X0.9000*%
%ADD30R,1.2000X0.2032*%
%ADD31R,0.2032X1.2000*%
%ADD39R,99.5000X4.3250*%
%ADD40R,4.2032X3.4532*%
%ADD41R,1.7032X2.7032*%
%ADD42R,1.1032X1.0032*%
%ADD43R,1.0032X1.1032*%
%ADD44R,1.0032X1.1032*%
%ADD45R,1.1032X1.0032*%
%ADD46R,1.1172X1.4222*%
%ADD47R,3.0000X3.0000*%
%ADD48R,1.8034X1.3716*%
%ADD49R,0.8032X1.8032*%
%ADD50R,1.5532X1.5532*%
%ADD51R,5.2032X5.2032*%
%ADD52R,1.1032X2.2032*%
%ADD53R,2.2032X1.1032*%
%ADD54R,1.0032X1.0032*%
%ADD55O,1.7032X4.2032*%
%ADD56O,1.7032X3.7032*%
%ADD57O,3.7032X1.7032*%
%ADD58C,1.7532*%
%ADD59R,1.7532X1.7532*%
%ADD60R,1.7000X1.7000*%
%ADD61C,3.5000*%
%ADD62C,1.7032*%
%ADD63R,1.7032X1.7032*%
%ADD64R,1.7032X1.7032*%
%ADD65C,1.4032*%
%ADD66O,2.2032X1.5532*%
%ADD67O,1.4532X1.2532*%
%ADD68C,1.0032*%
%ADD69C,0.7032*%
D20*
X1064000Y956000D02*
D03*
X1106000D02*
D03*
D27*
X1734500Y1045000D02*
D03*
D28*
Y1062000D02*
D03*
X1712500D02*
D03*
Y1043000D02*
D03*
D30*
X1292830Y899020D02*
D03*
Y894020D02*
D03*
Y889020D02*
D03*
Y884020D02*
D03*
Y879020D02*
D03*
Y874020D02*
D03*
Y869020D02*
D03*
X1243830D02*
D03*
Y874020D02*
D03*
Y879020D02*
D03*
Y884020D02*
D03*
Y889020D02*
D03*
Y894020D02*
D03*
Y899020D02*
D03*
D31*
X1283330Y859520D02*
D03*
X1278330D02*
D03*
X1273330D02*
D03*
X1268330D02*
D03*
X1263330D02*
D03*
X1258330D02*
D03*
X1253330D02*
D03*
Y908520D02*
D03*
X1258330D02*
D03*
X1263330D02*
D03*
X1268330D02*
D03*
X1273330D02*
D03*
X1278330D02*
D03*
X1283330D02*
D03*
D39*
X1280500Y1248375D02*
D03*
X1280500Y461625D02*
D03*
D40*
X1017750Y1002750D02*
D03*
D41*
X1040250Y950250D02*
D03*
X1017750D02*
D03*
X995250D02*
D03*
D42*
X1237760Y945080D02*
D03*
Y931080D02*
D03*
X1222520Y945080D02*
D03*
Y931080D02*
D03*
X1207530Y899540D02*
D03*
Y885540D02*
D03*
X1222770Y899540D02*
D03*
Y885540D02*
D03*
X1606400Y822960D02*
D03*
Y836960D02*
D03*
X1602590Y573390D02*
D03*
Y587390D02*
D03*
X1171780Y532160D02*
D03*
Y518160D02*
D03*
X1154000Y532810D02*
D03*
Y518810D02*
D03*
X1067250Y1066250D02*
D03*
Y1052250D02*
D03*
X987000Y634250D02*
D03*
Y620250D02*
D03*
X887250Y634500D02*
D03*
Y620500D02*
D03*
X938500Y502500D02*
D03*
Y516500D02*
D03*
X887000Y502500D02*
D03*
Y516500D02*
D03*
X913000Y502250D02*
D03*
Y516250D02*
D03*
D43*
X1164190Y765340D02*
D03*
X1178190D02*
D03*
X1016250Y925750D02*
D03*
X1002250D02*
D03*
X1530850Y802020D02*
D03*
X1516850D02*
D03*
X1530850Y553100D02*
D03*
X1516850D02*
D03*
X1178810Y784390D02*
D03*
X1164810D02*
D03*
X1240750Y770750D02*
D03*
X1254750D02*
D03*
X1192750Y498250D02*
D03*
X1206750D02*
D03*
X1192500Y513500D02*
D03*
X1206500D02*
D03*
X1254750Y785500D02*
D03*
X1240750D02*
D03*
X1222000Y863500D02*
D03*
X1208000D02*
D03*
X996500Y780000D02*
D03*
X982500D02*
D03*
X996500Y830750D02*
D03*
X982500D02*
D03*
X996500Y805500D02*
D03*
X982500D02*
D03*
X996500Y881750D02*
D03*
X982500D02*
D03*
X996500Y856250D02*
D03*
X982500D02*
D03*
D44*
X1521160Y913780D02*
D03*
X1534160D02*
D03*
X1341120Y826150D02*
D03*
X1328120D02*
D03*
X1497330Y802020D02*
D03*
X1484330D02*
D03*
X1516080Y662320D02*
D03*
X1529080D02*
D03*
X1327150Y579770D02*
D03*
X1314150D02*
D03*
X1494790Y553100D02*
D03*
X1481790D02*
D03*
X1484330Y826150D02*
D03*
X1497330D02*
D03*
X1481790Y578500D02*
D03*
X1494790D02*
D03*
D45*
X1356210Y812330D02*
D03*
Y799330D02*
D03*
Y784390D02*
D03*
Y771390D02*
D03*
X1348590Y563560D02*
D03*
Y550560D02*
D03*
Y532780D02*
D03*
Y519780D02*
D03*
D46*
X1595847Y1151890D02*
D03*
X1628613D02*
D03*
X1104633Y986000D02*
D03*
X1071867D02*
D03*
D47*
X1268330Y884020D02*
D03*
D48*
X961250Y619500D02*
D03*
Y605530D02*
D03*
Y633470D02*
D03*
X912250Y620250D02*
D03*
Y606280D02*
D03*
Y634220D02*
D03*
D49*
X1260500Y809250D02*
D03*
X1279500D02*
D03*
X1270000Y831250D02*
D03*
X1214000Y809250D02*
D03*
X1233000D02*
D03*
X1223500Y831250D02*
D03*
D50*
X1142250Y886250D02*
D03*
Y839250D02*
D03*
D51*
X1129800Y658910D02*
D03*
D52*
X1204800Y733910D02*
D03*
X1192100D02*
D03*
X1179400D02*
D03*
X1166700D02*
D03*
X1154000D02*
D03*
X1141300D02*
D03*
X1128600D02*
D03*
X1115900D02*
D03*
X1103200D02*
D03*
X1090500D02*
D03*
X1077800D02*
D03*
X1065100D02*
D03*
X1052400D02*
D03*
X1039700D02*
D03*
Y563910D02*
D03*
X1052400D02*
D03*
X1065100D02*
D03*
X1077800D02*
D03*
X1090500D02*
D03*
X1103200D02*
D03*
X1115900D02*
D03*
X1128600D02*
D03*
X1141300D02*
D03*
X1154000D02*
D03*
X1166700D02*
D03*
X1179400D02*
D03*
X1192100D02*
D03*
X1204800D02*
D03*
D53*
X1029700Y706060D02*
D03*
Y693360D02*
D03*
Y680660D02*
D03*
Y667960D02*
D03*
Y655260D02*
D03*
Y642560D02*
D03*
Y629860D02*
D03*
Y617160D02*
D03*
Y604460D02*
D03*
Y591760D02*
D03*
D54*
X1067250Y1037630D02*
D03*
Y1021630D02*
D03*
D55*
X1661750Y1153500D02*
D03*
D56*
X1721750D02*
D03*
D57*
X1691750Y1200500D02*
D03*
D58*
X1552250Y1197200D02*
D03*
D59*
Y1171800D02*
D03*
D60*
X1698500Y548500D02*
D03*
X1698500Y798500D02*
D03*
D61*
X1658500Y508500D02*
D03*
Y588500D02*
D03*
X1738500Y508500D02*
D03*
Y588500D02*
D03*
X1658500Y758500D02*
D03*
Y838500D02*
D03*
X1738500Y758500D02*
D03*
Y838500D02*
D03*
D62*
X947250Y779950D02*
D03*
X921850D02*
D03*
X947250Y805350D02*
D03*
X921850D02*
D03*
X947250Y830750D02*
D03*
X921850D02*
D03*
X947250Y856150D02*
D03*
X921850D02*
D03*
X947250Y881550D02*
D03*
X1059600Y885800D02*
D03*
X1085000D02*
D03*
X1059600Y860400D02*
D03*
X1085000D02*
D03*
X1059600Y835000D02*
D03*
X1085000D02*
D03*
X1059600Y809600D02*
D03*
X1085000D02*
D03*
X1059600Y784200D02*
D03*
X963300Y578500D02*
D03*
X937900D02*
D03*
X912500D02*
D03*
X887100D02*
D03*
X912500Y541000D02*
D03*
X937900D02*
D03*
X963300D02*
D03*
X988700D02*
D03*
X1016250Y1137350D02*
D03*
Y1162750D02*
D03*
Y1188150D02*
D03*
X1291750Y525500D02*
D03*
X1266350D02*
D03*
X1240950D02*
D03*
X1537500Y1019600D02*
D03*
X1377800Y578500D02*
D03*
Y553100D02*
D03*
Y527700D02*
D03*
X1454000Y603900D02*
D03*
Y578500D02*
D03*
Y553100D02*
D03*
Y527700D02*
D03*
X1381610Y827420D02*
D03*
Y802020D02*
D03*
Y776620D02*
D03*
X1457810Y852820D02*
D03*
Y827420D02*
D03*
Y802020D02*
D03*
Y776620D02*
D03*
X1497330Y1019060D02*
D03*
X1102360D02*
D03*
X1497330Y1190510D02*
D03*
X1101090D02*
D03*
X850750Y1017050D02*
D03*
Y1042450D02*
D03*
Y1067850D02*
D03*
D63*
X921850Y881550D02*
D03*
X1085000Y784200D02*
D03*
X1016250Y1111950D02*
D03*
X1537500Y1045000D02*
D03*
X850750Y1093250D02*
D03*
D64*
X988700Y578500D02*
D03*
X887100Y541000D02*
D03*
X1317150Y525500D02*
D03*
X1377800Y603900D02*
D03*
X1381610Y852820D02*
D03*
D65*
X1528930Y857900D02*
D03*
X1578930D02*
D03*
X1526790Y608980D02*
D03*
X1576790D02*
D03*
D66*
X1765750Y1018625D02*
D03*
Y948375D02*
D03*
D67*
X1735750Y1007750D02*
D03*
Y959250D02*
D03*
D68*
X1172572Y914000D02*
D03*
D69*
X1256500Y946250D02*
D03*
X1205000Y937750D02*
D03*
X1522750Y946000D02*
D03*
X1702406Y983011D02*
D03*
X952750Y502250D02*
D03*
X898750Y1085500D02*
D03*
X1140750Y795250D02*
D03*
X971750Y590000D02*
D03*
X887750Y607000D02*
D03*
X982000Y598500D02*
D03*
X975750Y619500D02*
D03*
X995750Y606750D02*
D03*
X1045560Y718534D02*
D03*
X998750Y716250D02*
D03*
X1056250Y712500D02*
D03*
X1005250Y723000D02*
D03*
X931180Y606356D02*
D03*
X1004250Y765500D02*
D03*
X1039250Y750000D02*
D03*
X1010250Y655250D02*
D03*
X1192301Y754102D02*
D03*
X1010500Y642500D02*
D03*
X1072500Y688750D02*
D03*
X1010500Y629750D02*
D03*
X1054500Y697500D02*
D03*
X1052250Y607500D02*
D03*
X1052500Y750500D02*
D03*
X1130750Y597000D02*
D03*
X1179250Y585000D02*
D03*
X995750Y756500D02*
D03*
X1707915Y977862D02*
D03*
X1163750Y501500D02*
D03*
X1176000D02*
D03*
X1177250Y833750D02*
D03*
X1281802Y751302D02*
D03*
X1313759Y894539D02*
D03*
X1275750Y758000D02*
D03*
X1234000Y834500D02*
D03*
X1195500Y863500D02*
D03*
X1165500Y796500D02*
D03*
X968538Y881550D02*
D03*
X969000Y856250D02*
D03*
X968000Y831000D02*
D03*
X968750Y805250D02*
D03*
X968000Y779750D02*
D03*
X1349000Y572190D02*
D03*
X1342000Y805250D02*
D03*
X1720000Y997000D02*
D03*
M02*
