G04*
G04 #@! TF.GenerationSoftware,Altium Limited,Altium Designer,21.0.9 (235)*
G04*
G04 Layer_Physical_Order=1*
G04 Layer_Color=255*
%FSLAX44Y44*%
%MOMM*%
G71*
G04*
G04 #@! TF.SameCoordinates,BC5F0FA3-8C3F-41DD-A052-AF4356C4A8CD*
G04*
G04*
G04 #@! TF.FilePolarity,Positive*
G04*
G01*
G75*
%ADD10C,0.2500*%
%ADD12C,0.2540*%
%ADD15C,0.1250*%
%ADD20R,1.5000X3.2000*%
%ADD21R,4.0000X3.2500*%
%ADD22R,1.5000X2.5000*%
%ADD23R,0.9000X0.8000*%
%ADD24R,0.8000X0.9000*%
%ADD25R,0.8000X0.9000*%
%ADD26R,0.9000X0.8000*%
%ADD27R,1.3000X1.1000*%
%ADD28R,1.3000X0.9000*%
%ADD29R,0.9140X1.2190*%
%ADD30R,1.2000X0.2032*%
%ADD31R,0.2032X1.2000*%
%ADD32R,1.6002X1.1684*%
%ADD33R,0.6000X1.6000*%
%ADD34R,1.3500X1.3500*%
%ADD35R,5.0000X5.0000*%
%ADD36R,0.9000X2.0000*%
%ADD37R,2.0000X0.9000*%
%ADD38R,0.8000X0.8000*%
%ADD47R,3.0000X3.0000*%
%ADD60R,1.7000X1.7000*%
%ADD61C,3.5000*%
%ADD70C,1.0000*%
%ADD71C,0.5000*%
%ADD72R,4.0000X3.0000*%
%ADD73O,1.5000X4.0000*%
%ADD74O,1.5000X3.5000*%
%ADD75O,3.5000X1.5000*%
%ADD76C,1.5500*%
%ADD77R,1.5500X1.5500*%
%ADD78C,1.5000*%
%ADD79R,1.5000X1.5000*%
%ADD80R,1.5000X1.5000*%
%ADD81C,1.2000*%
%ADD82O,2.0000X1.3500*%
%ADD83O,1.2500X1.0500*%
%ADD84C,0.5000*%
%ADD85C,0.8000*%
G36*
X1778000Y1269102D02*
Y440000D01*
X783000D01*
Y1269741D01*
X1777102Y1270000D01*
X1778000Y1269102D01*
D02*
G37*
%LPC*%
G36*
X1017632Y1147850D02*
X1014868D01*
X1012197Y1147134D01*
X1009803Y1145752D01*
X1007848Y1143797D01*
X1006466Y1141403D01*
X1005750Y1138732D01*
Y1135968D01*
X1006466Y1133297D01*
X1007848Y1130903D01*
X1009803Y1128948D01*
X1012197Y1127566D01*
X1014868Y1126850D01*
X1017632D01*
X1020303Y1127566D01*
X1022697Y1128948D01*
X1024652Y1130903D01*
X1026034Y1133297D01*
X1026750Y1135968D01*
Y1138732D01*
X1026034Y1141403D01*
X1024652Y1143797D01*
X1022697Y1145752D01*
X1020303Y1147134D01*
X1017632Y1147850D01*
D02*
G37*
G36*
X1711290Y1214639D02*
X1711290Y1214639D01*
X1650330D01*
X1649772Y1214528D01*
X1649211Y1214427D01*
X1649187Y1214411D01*
X1649160Y1214406D01*
X1648686Y1214090D01*
X1648207Y1213782D01*
X1616457Y1183166D01*
X1616441Y1183142D01*
X1616417Y1183127D01*
X1616101Y1182653D01*
X1615776Y1182186D01*
X1615770Y1182158D01*
X1615754Y1182134D01*
X1615643Y1181577D01*
X1615522Y1181020D01*
X1615527Y1180992D01*
X1615521Y1180964D01*
Y1121410D01*
X1615754Y1120239D01*
X1616417Y1119247D01*
X1617409Y1118584D01*
X1618580Y1118351D01*
X1704940Y1118351D01*
X1706111Y1118584D01*
X1707103Y1119247D01*
X1707766Y1120239D01*
X1707999Y1121410D01*
Y1168403D01*
X1714723Y1175127D01*
X1715386Y1176120D01*
X1715619Y1177290D01*
X1715619Y1177290D01*
Y1210310D01*
X1715619Y1210310D01*
X1715386Y1211480D01*
X1714723Y1212473D01*
X1714723Y1212473D01*
X1713453Y1213743D01*
X1712460Y1214406D01*
X1711290Y1214639D01*
D02*
G37*
G36*
X1026750Y1122450D02*
X1005750D01*
Y1101450D01*
X1026750D01*
Y1122450D01*
D02*
G37*
G36*
X852132Y1078350D02*
X849368D01*
X846697Y1077634D01*
X844303Y1076252D01*
X842348Y1074297D01*
X840966Y1071903D01*
X840250Y1069232D01*
Y1066468D01*
X840966Y1063797D01*
X842348Y1061403D01*
X844303Y1059448D01*
X846697Y1058066D01*
X849368Y1057350D01*
X852132D01*
X854803Y1058066D01*
X857197Y1059448D01*
X859152Y1061403D01*
X860534Y1063797D01*
X861250Y1066468D01*
Y1069232D01*
X860534Y1071903D01*
X859152Y1074297D01*
X857197Y1076252D01*
X854803Y1077634D01*
X852132Y1078350D01*
D02*
G37*
G36*
X1563000Y1182550D02*
X1541500D01*
Y1161050D01*
X1544181D01*
Y1152976D01*
X1544456Y1150888D01*
X1545262Y1148942D01*
X1546544Y1147271D01*
X1551181Y1142634D01*
Y1038842D01*
X1549173Y1036835D01*
X1548000Y1037321D01*
Y1055500D01*
X1527000D01*
Y1053069D01*
X1495342D01*
X1462206Y1086206D01*
X1460535Y1087488D01*
X1458588Y1088294D01*
X1456500Y1088569D01*
X1163800D01*
X1161712Y1088294D01*
X1159765Y1087488D01*
X1158094Y1086206D01*
X1101449Y1029560D01*
X1100978D01*
X1098307Y1028844D01*
X1095913Y1027462D01*
X1093958Y1025507D01*
X1092576Y1023113D01*
X1091860Y1020442D01*
Y1019971D01*
X1066984Y995095D01*
X1064297D01*
Y991362D01*
X1063956Y990538D01*
X1063681Y988450D01*
Y982750D01*
X1063956Y980662D01*
X1064297Y979838D01*
Y976905D01*
X1064297D01*
X1063878Y975809D01*
X1054806D01*
X1054344Y976000D01*
X1052156D01*
X1051694Y975809D01*
X1044294D01*
X1043808Y976982D01*
X1053663Y986837D01*
X1054326Y987830D01*
X1054559Y989000D01*
X1054559Y989000D01*
Y1017297D01*
X1060250D01*
Y1014630D01*
X1074250D01*
Y1028630D01*
X1060250D01*
Y1025963D01*
X1054559D01*
X1054559Y1054247D01*
X1054858Y1055750D01*
Y1149250D01*
X1054431Y1151396D01*
X1053215Y1153215D01*
X1039715Y1166715D01*
X1037896Y1167931D01*
X1035750Y1168358D01*
X1025137D01*
X1024652Y1169197D01*
X1022697Y1171152D01*
X1020303Y1172534D01*
X1017632Y1173250D01*
X1014868D01*
X1012197Y1172534D01*
X1009803Y1171152D01*
X1007848Y1169197D01*
X1007363Y1168358D01*
X992750D01*
X990604Y1167931D01*
X988785Y1166715D01*
X905023Y1082954D01*
X903946Y1083673D01*
X904250Y1084406D01*
Y1086594D01*
X903413Y1088615D01*
X901865Y1090163D01*
X899844Y1091000D01*
X898477D01*
X893713Y1095763D01*
X892514Y1096565D01*
X891100Y1096846D01*
X891100Y1096846D01*
X861250D01*
Y1103750D01*
X840250D01*
Y1082750D01*
X861250D01*
Y1089454D01*
X889569D01*
X893250Y1085773D01*
Y1084406D01*
X894087Y1082384D01*
X895635Y1080837D01*
X897656Y1080000D01*
X899844D01*
X900577Y1080304D01*
X901296Y1079227D01*
X870027Y1047958D01*
X859694D01*
X859152Y1048897D01*
X857197Y1050852D01*
X854803Y1052234D01*
X852132Y1052950D01*
X849368D01*
X846697Y1052234D01*
X844303Y1050852D01*
X842348Y1048897D01*
X840966Y1046503D01*
X840250Y1043832D01*
Y1041068D01*
X840966Y1038397D01*
X842348Y1036003D01*
X844303Y1034048D01*
X846697Y1032666D01*
X849368Y1031950D01*
X852132D01*
X854803Y1032666D01*
X857197Y1034048D01*
X859152Y1036003D01*
X859579Y1036742D01*
X872350D01*
X874496Y1037169D01*
X876315Y1038385D01*
X995073Y1157142D01*
X1007363D01*
X1007848Y1156303D01*
X1009803Y1154348D01*
X1012197Y1152966D01*
X1014868Y1152250D01*
X1017632D01*
X1020303Y1152966D01*
X1022697Y1154348D01*
X1024652Y1156303D01*
X1025137Y1157142D01*
X1033427D01*
X1043642Y1146927D01*
Y1067059D01*
X984250D01*
X983080Y1066826D01*
X982087Y1066163D01*
X981424Y1065171D01*
X981191Y1064000D01*
X981191Y989000D01*
X981424Y987830D01*
X982087Y986837D01*
X982087Y986837D01*
X1006441Y962483D01*
Y937250D01*
X1006674Y936079D01*
X1007250Y935218D01*
Y934750D01*
X1007842D01*
X1008329Y934424D01*
X1008750Y934341D01*
X1009250Y933250D01*
X1009250Y933250D01*
X1009250Y933250D01*
Y918250D01*
X1010167D01*
Y901545D01*
X997872Y889250D01*
X990770D01*
X989500Y889250D01*
X988230Y889250D01*
X975500D01*
Y885246D01*
X972620D01*
X971653Y886213D01*
X969632Y887050D01*
X967444D01*
X965422Y886213D01*
X964456Y885246D01*
X957130D01*
X957034Y885603D01*
X955652Y887997D01*
X953697Y889952D01*
X951303Y891334D01*
X948632Y892050D01*
X945868D01*
X943197Y891334D01*
X940803Y889952D01*
X938848Y887997D01*
X937466Y885603D01*
X936750Y882932D01*
Y880168D01*
X937466Y877497D01*
X938848Y875103D01*
X940803Y873148D01*
X943197Y871766D01*
X945868Y871050D01*
X948632D01*
X951303Y871766D01*
X953697Y873148D01*
X955652Y875103D01*
X957034Y877497D01*
X957130Y877854D01*
X964456D01*
X965422Y876887D01*
X967444Y876050D01*
X969632D01*
X971653Y876887D01*
X972620Y877854D01*
X975500D01*
Y874250D01*
X988230D01*
X989500Y874250D01*
X990770Y874250D01*
X992167D01*
Y864648D01*
X991269Y863750D01*
X989500Y863750D01*
X988230Y863750D01*
X975500D01*
Y859846D01*
X973182D01*
X972115Y860913D01*
X970094Y861750D01*
X967906D01*
X965884Y860913D01*
X964818Y859846D01*
X957130D01*
X957034Y860203D01*
X955652Y862597D01*
X953697Y864552D01*
X951303Y865934D01*
X948632Y866650D01*
X945868D01*
X943197Y865934D01*
X940803Y864552D01*
X938848Y862597D01*
X937466Y860203D01*
X936750Y857532D01*
Y854768D01*
X937466Y852097D01*
X938848Y849703D01*
X940803Y847748D01*
X943197Y846366D01*
X945868Y845650D01*
X948632D01*
X951303Y846366D01*
X953697Y847748D01*
X955652Y849703D01*
X957034Y852097D01*
X957130Y852454D01*
X965018D01*
X965884Y851587D01*
X967906Y850750D01*
X970094D01*
X972115Y851587D01*
X972982Y852454D01*
X975500D01*
Y848750D01*
X988230D01*
X989500Y848750D01*
X990770Y848750D01*
X992167D01*
Y839148D01*
X991269Y838250D01*
X989500Y838250D01*
X988230Y838250D01*
X975500D01*
Y834446D01*
X972332D01*
X971115Y835663D01*
X969094Y836500D01*
X966906D01*
X964884Y835663D01*
X963668Y834446D01*
X957130D01*
X957034Y834803D01*
X955652Y837197D01*
X953697Y839152D01*
X951303Y840534D01*
X948632Y841250D01*
X945868D01*
X943197Y840534D01*
X940803Y839152D01*
X938848Y837197D01*
X937466Y834803D01*
X936750Y832132D01*
Y829368D01*
X937466Y826697D01*
X938848Y824303D01*
X940803Y822348D01*
X943197Y820966D01*
X945868Y820250D01*
X948632D01*
X951303Y820966D01*
X953697Y822348D01*
X955652Y824303D01*
X957034Y826697D01*
X957130Y827054D01*
X964168D01*
X964884Y826337D01*
X966906Y825500D01*
X969094D01*
X971115Y826337D01*
X971832Y827054D01*
X975500D01*
Y823250D01*
X988230D01*
X989500Y823250D01*
X990770Y823250D01*
X992167D01*
Y813898D01*
X991269Y813000D01*
X989500Y813000D01*
X988230Y813000D01*
X975500D01*
Y809046D01*
X972732D01*
X971865Y809913D01*
X969844Y810750D01*
X967656D01*
X965635Y809913D01*
X964768Y809046D01*
X957130D01*
X957034Y809403D01*
X955652Y811797D01*
X953697Y813752D01*
X951303Y815134D01*
X948632Y815850D01*
X945868D01*
X943197Y815134D01*
X940803Y813752D01*
X938848Y811797D01*
X937466Y809403D01*
X936750Y806732D01*
Y803968D01*
X937466Y801297D01*
X938848Y798903D01*
X940803Y796948D01*
X943197Y795566D01*
X945868Y794850D01*
X948632D01*
X951303Y795566D01*
X953697Y796948D01*
X955652Y798903D01*
X957034Y801297D01*
X957130Y801654D01*
X964568D01*
X965635Y800587D01*
X967656Y799750D01*
X969844D01*
X971865Y800587D01*
X972932Y801654D01*
X975500D01*
Y798000D01*
X988230D01*
X989500Y798000D01*
X990770Y798000D01*
X992167D01*
Y788398D01*
X991269Y787500D01*
X989500Y787500D01*
X988230Y787500D01*
X975500D01*
Y783646D01*
X971882D01*
X971115Y784413D01*
X969094Y785250D01*
X966906D01*
X964884Y784413D01*
X964118Y783646D01*
X957130D01*
X957034Y784003D01*
X955652Y786397D01*
X953697Y788352D01*
X951303Y789734D01*
X948632Y790450D01*
X945868D01*
X943197Y789734D01*
X940803Y788352D01*
X938848Y786397D01*
X937466Y784003D01*
X936750Y781332D01*
Y778568D01*
X937466Y775897D01*
X938848Y773503D01*
X940803Y771548D01*
X943197Y770166D01*
X945868Y769450D01*
X948632D01*
X951303Y770166D01*
X953697Y771548D01*
X955652Y773503D01*
X957034Y775897D01*
X957130Y776254D01*
X963718D01*
X964884Y775087D01*
X966906Y774250D01*
X969094D01*
X971115Y775087D01*
X972282Y776254D01*
X975500D01*
Y772500D01*
X988230D01*
X989500Y772500D01*
X990770Y772500D01*
X1003500D01*
Y787500D01*
X1000833D01*
Y798000D01*
X1003500D01*
Y813000D01*
X1000833D01*
Y823250D01*
X1003500D01*
Y838250D01*
X1000833D01*
Y848750D01*
X1003500D01*
Y863750D01*
X1000833D01*
Y874250D01*
X1003500D01*
Y882622D01*
X1017564Y896686D01*
X1018503Y898092D01*
X1018833Y899750D01*
Y908346D01*
X1020007Y908832D01*
X1020544Y908294D01*
X1022215Y907012D01*
X1024162Y906206D01*
X1026250Y905931D01*
X1172572D01*
X1174660Y906206D01*
X1176606Y907012D01*
X1178278Y908294D01*
X1179560Y909966D01*
X1180366Y911912D01*
X1180641Y914000D01*
X1180366Y916088D01*
X1180226Y916427D01*
X1198971Y935173D01*
X1200217Y934925D01*
X1200337Y934634D01*
X1200667Y934305D01*
Y906540D01*
X1200030D01*
Y892540D01*
X1215030D01*
Y892540D01*
X1215270D01*
Y892540D01*
X1228486D01*
X1229291Y891558D01*
X1229234Y891270D01*
X1229234Y891270D01*
Y877561D01*
X1222673Y871000D01*
X1215000Y871000D01*
X1213730Y871000D01*
X1201000D01*
Y867833D01*
X1198945D01*
X1198615Y868163D01*
X1198105Y868374D01*
X1197646Y868681D01*
X1197104Y868789D01*
X1196594Y869000D01*
X1196042D01*
X1195500Y869108D01*
X1194958Y869000D01*
X1194406D01*
X1193896Y868789D01*
X1193354Y868681D01*
X1192895Y868374D01*
X1192384Y868163D01*
X1191994Y867772D01*
X1191535Y867465D01*
X1191228Y867006D01*
X1190837Y866616D01*
X1190626Y866105D01*
X1190319Y865646D01*
X1190211Y865104D01*
X1190000Y864594D01*
Y864042D01*
X1189892Y863500D01*
X1190000Y862958D01*
Y862406D01*
X1190211Y861896D01*
X1190319Y861354D01*
X1190626Y860895D01*
X1190837Y860385D01*
X1191228Y859994D01*
X1191535Y859535D01*
X1191994Y859228D01*
X1192384Y858837D01*
X1192895Y858626D01*
X1193354Y858319D01*
X1193896Y858211D01*
X1194406Y858000D01*
X1194958D01*
X1195500Y857892D01*
X1196042Y858000D01*
X1196594D01*
X1197104Y858211D01*
X1197646Y858319D01*
X1198105Y858626D01*
X1198615Y858837D01*
X1198945Y859167D01*
X1201000D01*
Y856000D01*
X1213730D01*
X1215000Y856000D01*
X1216270Y856000D01*
X1229000D01*
Y866873D01*
X1233657Y871530D01*
X1234830Y871044D01*
Y865004D01*
X1249314D01*
Y850520D01*
X1287346D01*
Y865004D01*
X1301830D01*
Y874933D01*
X1303590D01*
X1304554Y873969D01*
Y853031D01*
X1277270Y825747D01*
X1276000Y826273D01*
Y842250D01*
X1264000D01*
Y834946D01*
X1260781D01*
X1246364Y849363D01*
X1245164Y850165D01*
X1243750Y850446D01*
X1243750Y850446D01*
X1172750D01*
X1171336Y850165D01*
X1170136Y849363D01*
X1170136Y849363D01*
X1163719Y842946D01*
X1152000D01*
Y849000D01*
X1132500D01*
Y829500D01*
X1152000D01*
Y835554D01*
X1161554D01*
Y820750D01*
X1161554Y820750D01*
X1161835Y819336D01*
X1162636Y818137D01*
X1175054Y805719D01*
Y792788D01*
X1174156Y791890D01*
X1171810Y791890D01*
X1171108Y792869D01*
Y796500D01*
X1171000Y797042D01*
Y797594D01*
X1170789Y798104D01*
X1170681Y798646D01*
X1170374Y799105D01*
X1170163Y799615D01*
X1169772Y800006D01*
X1169465Y800465D01*
X1169006Y800772D01*
X1168615Y801163D01*
X1168105Y801374D01*
X1167646Y801681D01*
X1167104Y801789D01*
X1166594Y802000D01*
X1166042D01*
X1165500Y802108D01*
X1164958Y802000D01*
X1164406D01*
X1163896Y801789D01*
X1163354Y801681D01*
X1162895Y801374D01*
X1162384Y801163D01*
X1162055Y800833D01*
X1142676D01*
X1141978Y800694D01*
X1141844Y800750D01*
X1139656D01*
X1137635Y799913D01*
X1136087Y798365D01*
X1135250Y796344D01*
Y794156D01*
X1136087Y792134D01*
X1137635Y790587D01*
X1139656Y789750D01*
X1141844D01*
X1143866Y790587D01*
X1145413Y792134D01*
X1145426Y792167D01*
X1156655D01*
X1157810Y791890D01*
Y776890D01*
X1170540D01*
X1171810Y776890D01*
X1173080Y776890D01*
X1175704D01*
Y772840D01*
X1171190D01*
Y757840D01*
X1175704D01*
Y746910D01*
X1171900D01*
Y720910D01*
X1199600D01*
Y746910D01*
X1197708D01*
Y752783D01*
X1197801Y753008D01*
Y753560D01*
X1197909Y754102D01*
X1197801Y754644D01*
Y755196D01*
X1197590Y755706D01*
X1197482Y756248D01*
X1197175Y756707D01*
X1196964Y757218D01*
X1196573Y757608D01*
X1196266Y758067D01*
X1195807Y758374D01*
X1195416Y758765D01*
X1194906Y758976D01*
X1194447Y759283D01*
X1193905Y759391D01*
X1193395Y759602D01*
X1192843D01*
X1192301Y759710D01*
X1191759Y759602D01*
X1191207D01*
X1190697Y759391D01*
X1190155Y759283D01*
X1189696Y758976D01*
X1189185Y758765D01*
X1188795Y758374D01*
X1188336Y758067D01*
X1188135Y757866D01*
X1187828Y757407D01*
X1187638Y757218D01*
X1187536Y756970D01*
X1186919Y756047D01*
X1186492Y753901D01*
Y746910D01*
X1183096D01*
Y757840D01*
X1185190D01*
Y772840D01*
X1183096D01*
Y776890D01*
X1185810D01*
Y791890D01*
X1182446D01*
Y807250D01*
X1182446Y807250D01*
X1182165Y808664D01*
X1181364Y809864D01*
X1181363Y809864D01*
X1168946Y822281D01*
Y837719D01*
X1174281Y843054D01*
X1216563D01*
X1217500Y842250D01*
Y837446D01*
X1181332D01*
X1180366Y838413D01*
X1178344Y839250D01*
X1176156D01*
X1174135Y838413D01*
X1172587Y836865D01*
X1171750Y834844D01*
Y832656D01*
X1172587Y830635D01*
X1174135Y829087D01*
X1176156Y828250D01*
X1178344D01*
X1180366Y829087D01*
X1181332Y830054D01*
X1217500D01*
Y820250D01*
X1216230Y820250D01*
X1208000D01*
Y798250D01*
X1210304D01*
Y781250D01*
X1210304Y781250D01*
X1210585Y779836D01*
X1211386Y778636D01*
X1221887Y768137D01*
X1221887Y768137D01*
X1223086Y767335D01*
X1224500Y767054D01*
X1224500Y767054D01*
X1233750D01*
Y763250D01*
X1246480D01*
X1247750Y763250D01*
Y763250D01*
X1247750D01*
Y763250D01*
X1261750D01*
Y767054D01*
X1268000D01*
X1268000Y767054D01*
X1269414Y767335D01*
X1270613Y768137D01*
X1282113Y779637D01*
X1282113Y779637D01*
X1282915Y780836D01*
X1283196Y782250D01*
X1283196Y782250D01*
Y798250D01*
X1285500D01*
Y820250D01*
X1283922D01*
X1283497Y821520D01*
X1287074Y825098D01*
X1288304Y824531D01*
Y775781D01*
X1276023Y763500D01*
X1274656D01*
X1272635Y762663D01*
X1271087Y761115D01*
X1270250Y759094D01*
Y756906D01*
X1271087Y754884D01*
X1272635Y753337D01*
X1274656Y752500D01*
X1276233D01*
X1276302Y752396D01*
Y750208D01*
X1277140Y748187D01*
X1278687Y746640D01*
X1280708Y745802D01*
X1282896D01*
X1284918Y746640D01*
X1286465Y748187D01*
X1287302Y750208D01*
Y751325D01*
X1302363Y766386D01*
X1302363Y766386D01*
X1303165Y767586D01*
X1303446Y769000D01*
X1303446Y769000D01*
Y820469D01*
X1312614Y829636D01*
X1312614Y829637D01*
X1324613Y841636D01*
X1324613Y841636D01*
X1325415Y842835D01*
X1325696Y844250D01*
X1325696Y844250D01*
Y877250D01*
X1325696Y877250D01*
X1325415Y878665D01*
X1324613Y879864D01*
X1324613Y879864D01*
X1316075Y888402D01*
X1316323Y889648D01*
X1316875Y889876D01*
X1318422Y891423D01*
X1319259Y893445D01*
Y895633D01*
X1318422Y897654D01*
X1316875Y899201D01*
X1314853Y900039D01*
X1314688D01*
X1313094Y901634D01*
X1311894Y902435D01*
X1310480Y902716D01*
X1310480Y902716D01*
X1301830D01*
Y903036D01*
X1287346D01*
Y917520D01*
X1275567D01*
X1274306Y918782D01*
X1274306Y919296D01*
X1289313Y934304D01*
X1518538D01*
X1519368Y934139D01*
X1519368Y934139D01*
X1526132D01*
X1526132Y934139D01*
X1526962Y934304D01*
X1659640D01*
X1659640Y934304D01*
X1661055Y934585D01*
X1662254Y935387D01*
X1693921Y967054D01*
X1697500D01*
X1697500Y967054D01*
X1698914Y967335D01*
X1700114Y968137D01*
X1705066Y973089D01*
X1706821Y972362D01*
X1709009D01*
X1711030Y973200D01*
X1712577Y974747D01*
X1713415Y976768D01*
Y978956D01*
X1713358Y979093D01*
X1714113Y979849D01*
X1714113Y979849D01*
X1714915Y981048D01*
X1715196Y982462D01*
Y992230D01*
X1716466Y992756D01*
X1716884Y992337D01*
X1718906Y991500D01*
X1721094D01*
X1723116Y992337D01*
X1724663Y993885D01*
X1725500Y995906D01*
Y998094D01*
X1724663Y1000116D01*
X1724083Y1000695D01*
Y1027205D01*
X1726524Y1029646D01*
X1727463Y1031052D01*
X1727793Y1032710D01*
Y1051165D01*
X1731128Y1054500D01*
X1744000D01*
Y1069500D01*
X1725000D01*
Y1060628D01*
X1723173Y1058801D01*
X1722000Y1059287D01*
Y1069500D01*
X1703000D01*
Y1064105D01*
X1702244Y1063600D01*
X1702244Y1063600D01*
X1700387Y1061743D01*
X1699585Y1060544D01*
X1699304Y1059129D01*
X1699304Y1059129D01*
Y1049641D01*
X1699139Y1048811D01*
X1699139Y1048811D01*
Y1037189D01*
X1699139Y1037189D01*
X1699304Y1036359D01*
Y987679D01*
X1699290Y987673D01*
X1697743Y986126D01*
X1696906Y984105D01*
Y984028D01*
X1686973Y974096D01*
X1686973Y974096D01*
X1657074Y944196D01*
X1528724D01*
X1528250Y944906D01*
Y947094D01*
X1527413Y949116D01*
X1525865Y950663D01*
X1523844Y951500D01*
X1524034Y952691D01*
X1543750D01*
X1544921Y952924D01*
X1545913Y953587D01*
X1545913Y953587D01*
X1607913Y1015587D01*
X1608576Y1016580D01*
X1608809Y1017750D01*
X1608809Y1017750D01*
X1608809Y1163500D01*
X1608576Y1164670D01*
X1607913Y1165663D01*
X1606920Y1166326D01*
X1605750Y1166559D01*
X1585000D01*
X1583829Y1166326D01*
X1582837Y1165663D01*
X1582174Y1164670D01*
X1581941Y1163500D01*
Y1036017D01*
X1528483Y982559D01*
X1114750D01*
X1114750Y982559D01*
X1113559Y982585D01*
Y994793D01*
X1113326Y995963D01*
X1112663Y996956D01*
X1111671Y997619D01*
X1111171Y997826D01*
X1110000Y998059D01*
X1098250D01*
X1097079Y997826D01*
X1096087Y997163D01*
X1095424Y996171D01*
X1095191Y995000D01*
Y973422D01*
X1095194Y973407D01*
X1095191Y973393D01*
X1095311Y972821D01*
X1095424Y972251D01*
X1095432Y972239D01*
X1095435Y972224D01*
X1095441Y972216D01*
X1095198Y939924D01*
X1095199Y939919D01*
X1095198Y939913D01*
X1095311Y939335D01*
X1095422Y938752D01*
X1095425Y938747D01*
X1095426Y938742D01*
X1095500Y938631D01*
Y937000D01*
X1096827D01*
X1096981Y936845D01*
X1096985Y936842D01*
X1096989Y936837D01*
X1097481Y936508D01*
X1097970Y936179D01*
X1097976Y936177D01*
X1097981Y936174D01*
X1098558Y936059D01*
X1099140Y935941D01*
X1099146Y935942D01*
X1099151Y935941D01*
X1114000D01*
X1114000Y935941D01*
X1115171Y936174D01*
X1116163Y936837D01*
X1116163Y936837D01*
X1116326Y937000D01*
X1116500D01*
Y937174D01*
X1132017Y952691D01*
X1214003D01*
X1215020Y952080D01*
X1215020Y951421D01*
Y948776D01*
X1203652D01*
X1203652Y948776D01*
X1202237Y948495D01*
X1201038Y947693D01*
X1201038Y947693D01*
X1174999Y921654D01*
X1174660Y921794D01*
X1172572Y922069D01*
X1029592D01*
X1025819Y925842D01*
Y934205D01*
X1026921Y934424D01*
X1027073Y934526D01*
X1028250Y934750D01*
Y934750D01*
X1028951Y935157D01*
X1029750Y934750D01*
Y934750D01*
X1030852Y934345D01*
X1030981Y934259D01*
X1031468Y933930D01*
X1031476Y933928D01*
X1031482Y933924D01*
X1032059Y933809D01*
X1032638Y933691D01*
X1032645Y933693D01*
X1032652Y933691D01*
X1072250D01*
X1073420Y933924D01*
X1074413Y934587D01*
X1075076Y935580D01*
X1075309Y936750D01*
Y972500D01*
X1075309Y972500D01*
X1075076Y973671D01*
X1074854Y974002D01*
X1075141Y975413D01*
X1075503Y975645D01*
X1075785Y975762D01*
X1077274Y976905D01*
X1079437D01*
Y980403D01*
X1079544Y980662D01*
X1079819Y982750D01*
Y985108D01*
X1103271Y1008560D01*
X1103742D01*
X1106413Y1009276D01*
X1108807Y1010658D01*
X1110762Y1012613D01*
X1112144Y1015007D01*
X1112860Y1017678D01*
Y1018149D01*
X1167142Y1072431D01*
X1453158D01*
X1486294Y1039294D01*
X1487966Y1038012D01*
X1489912Y1037206D01*
X1492000Y1036931D01*
X1527000D01*
Y1034500D01*
X1545179D01*
X1545665Y1033327D01*
X1541661Y1029322D01*
X1541553Y1029384D01*
X1538882Y1030100D01*
X1536118D01*
X1533447Y1029384D01*
X1531053Y1028002D01*
X1530180Y1027129D01*
X1504110D01*
X1503777Y1027462D01*
X1501383Y1028844D01*
X1498712Y1029560D01*
X1495948D01*
X1493277Y1028844D01*
X1490883Y1027462D01*
X1488928Y1025507D01*
X1487546Y1023113D01*
X1486830Y1020442D01*
Y1017678D01*
X1487546Y1015007D01*
X1488928Y1012613D01*
X1490883Y1010658D01*
X1493277Y1009276D01*
X1495948Y1008560D01*
X1498712D01*
X1501383Y1009276D01*
X1503777Y1010658D01*
X1504110Y1010991D01*
X1531411D01*
X1533447Y1009816D01*
X1536118Y1009100D01*
X1538882D01*
X1541553Y1009816D01*
X1543947Y1011198D01*
X1545378Y1012629D01*
X1546395Y1012763D01*
X1548341Y1013569D01*
X1550012Y1014851D01*
X1564956Y1029794D01*
X1566238Y1031466D01*
X1567044Y1033412D01*
X1567319Y1035500D01*
Y1145976D01*
X1567044Y1148065D01*
X1566238Y1150011D01*
X1564956Y1151682D01*
X1560319Y1156319D01*
Y1161050D01*
X1563000D01*
Y1182550D01*
D02*
G37*
G36*
X1074750Y1059250D02*
X1059750D01*
Y1045250D01*
X1059750D01*
X1060250Y1044630D01*
Y1030630D01*
X1074250D01*
Y1044630D01*
X1074750Y1045250D01*
X1074750D01*
Y1059250D01*
D02*
G37*
G36*
X1060982Y896300D02*
X1058218D01*
X1055547Y895584D01*
X1053153Y894202D01*
X1051198Y892247D01*
X1049816Y889853D01*
X1049100Y887182D01*
Y884418D01*
X1049816Y881747D01*
X1051198Y879353D01*
X1053153Y877398D01*
X1055547Y876016D01*
X1058218Y875300D01*
X1060982D01*
X1063653Y876016D01*
X1066047Y877398D01*
X1068002Y879353D01*
X1069384Y881747D01*
X1070100Y884418D01*
Y887182D01*
X1069384Y889853D01*
X1068002Y892247D01*
X1066047Y894202D01*
X1063653Y895584D01*
X1060982Y896300D01*
D02*
G37*
G36*
Y870900D02*
X1058218D01*
X1055547Y870184D01*
X1053153Y868802D01*
X1051198Y866847D01*
X1049816Y864453D01*
X1049100Y861782D01*
Y859018D01*
X1049816Y856347D01*
X1051198Y853953D01*
X1053153Y851998D01*
X1055547Y850616D01*
X1058218Y849900D01*
X1060982D01*
X1063653Y850616D01*
X1066047Y851998D01*
X1068002Y853953D01*
X1069384Y856347D01*
X1070100Y859018D01*
Y861782D01*
X1069384Y864453D01*
X1068002Y866847D01*
X1066047Y868802D01*
X1063653Y870184D01*
X1060982Y870900D01*
D02*
G37*
G36*
X1392110Y863320D02*
X1371110D01*
Y842320D01*
X1392110D01*
Y863320D01*
D02*
G37*
G36*
X1508500Y928309D02*
X1473000D01*
X1471830Y928076D01*
X1470837Y927413D01*
X1470174Y926421D01*
X1469941Y925250D01*
Y898590D01*
Y841909D01*
X1462322D01*
X1462277Y842018D01*
X1462111Y843179D01*
X1464257Y844418D01*
X1466212Y846373D01*
X1467594Y848767D01*
X1468310Y851438D01*
Y854202D01*
X1467594Y856873D01*
X1466212Y859267D01*
X1464257Y861222D01*
X1461863Y862604D01*
X1459192Y863320D01*
X1456428D01*
X1453757Y862604D01*
X1451363Y861222D01*
X1449408Y859267D01*
X1448026Y856873D01*
X1447310Y854202D01*
Y851438D01*
X1448026Y848767D01*
X1449408Y846373D01*
X1451363Y844418D01*
X1453509Y843179D01*
X1453343Y842018D01*
X1453298Y841909D01*
X1447650D01*
X1446479Y841676D01*
X1445487Y841013D01*
X1444824Y840021D01*
X1444591Y838850D01*
X1444591Y814720D01*
X1444824Y813549D01*
X1445487Y812557D01*
X1446479Y811894D01*
X1447650Y811661D01*
X1451056D01*
X1451323Y810665D01*
X1451332Y810391D01*
X1449408Y808467D01*
X1448026Y806073D01*
X1447310Y803402D01*
Y800638D01*
X1448026Y797967D01*
X1449408Y795573D01*
X1451363Y793618D01*
X1453757Y792236D01*
X1456428Y791520D01*
X1459192D01*
X1461863Y792236D01*
X1464257Y793618D01*
X1466212Y795573D01*
X1466697Y796412D01*
X1477330D01*
Y794520D01*
X1504330D01*
Y796412D01*
X1509850D01*
Y794520D01*
X1522580D01*
X1523850Y794520D01*
X1525120Y794520D01*
X1537850D01*
Y796412D01*
X1652657D01*
X1655785Y793285D01*
X1657604Y792069D01*
X1659750Y791642D01*
X1687000D01*
Y787000D01*
X1710000D01*
Y810000D01*
X1687000D01*
Y802858D01*
X1662073D01*
X1658945Y805985D01*
X1657126Y807201D01*
X1654980Y807628D01*
X1612008D01*
Y815960D01*
X1613900D01*
Y828690D01*
X1613900Y829960D01*
X1613900Y831230D01*
Y843960D01*
X1612008D01*
Y903620D01*
X1611581Y905766D01*
X1610365Y907585D01*
X1601475Y916475D01*
X1599656Y917691D01*
X1597510Y918118D01*
X1541160D01*
Y921280D01*
X1528179D01*
Y925210D01*
X1527946Y926380D01*
X1527283Y927373D01*
X1526291Y928036D01*
X1525120Y928269D01*
X1508701D01*
X1508500Y928309D01*
D02*
G37*
G36*
X1382992Y837920D02*
X1380228D01*
X1377557Y837204D01*
X1375163Y835822D01*
X1373208Y833867D01*
X1371999Y831774D01*
X1348120D01*
Y833650D01*
X1321120D01*
Y830023D01*
X1319931Y829229D01*
X1311172Y820469D01*
X1310228Y819056D01*
X1309896Y817390D01*
Y605053D01*
X1299671Y594828D01*
X1298728Y593416D01*
X1298396Y591750D01*
Y562553D01*
X1283447Y547604D01*
X1199303D01*
X1197267Y549640D01*
X1197793Y550910D01*
X1199600D01*
Y576910D01*
X1182946D01*
Y580918D01*
X1183913Y581884D01*
X1184750Y583906D01*
Y586094D01*
X1183913Y588116D01*
X1182365Y589663D01*
X1180344Y590500D01*
X1178156D01*
X1176134Y589663D01*
X1174587Y588116D01*
X1173750Y586094D01*
Y583906D01*
X1174587Y581884D01*
X1175554Y580918D01*
Y576910D01*
X1144996D01*
Y586450D01*
X1144996Y586450D01*
X1144715Y587864D01*
X1143913Y589063D01*
X1143913Y589064D01*
X1136250Y596727D01*
Y598094D01*
X1135413Y600116D01*
X1133866Y601663D01*
X1131844Y602500D01*
X1129656D01*
X1127635Y601663D01*
X1126087Y600116D01*
X1125250Y598094D01*
Y595906D01*
X1126087Y593885D01*
X1127635Y592337D01*
X1129656Y591500D01*
X1131023D01*
X1137604Y584919D01*
Y576910D01*
X1043396D01*
Y578919D01*
X1063863Y599386D01*
X1063864Y599386D01*
X1064665Y600586D01*
X1064946Y602000D01*
X1064946Y602000D01*
Y675969D01*
X1072227Y683250D01*
X1073594D01*
X1075615Y684087D01*
X1077163Y685635D01*
X1078000Y687656D01*
Y689844D01*
X1077163Y691865D01*
X1075615Y693413D01*
X1073594Y694250D01*
X1071406D01*
X1069385Y693413D01*
X1067837Y691865D01*
X1067000Y689844D01*
Y688477D01*
X1058636Y680114D01*
X1057835Y678914D01*
X1057554Y677500D01*
X1057554Y677500D01*
Y611770D01*
X1056284Y611244D01*
X1055366Y612163D01*
X1053344Y613000D01*
X1051156D01*
X1049135Y612163D01*
X1047587Y610616D01*
X1046750Y608594D01*
Y608156D01*
X1042700D01*
Y622360D01*
Y635060D01*
Y647760D01*
Y660460D01*
Y673160D01*
Y685860D01*
Y689664D01*
X1050360D01*
X1050360Y689664D01*
X1051774Y689945D01*
X1052973Y690747D01*
X1054227Y692000D01*
X1055594D01*
X1057616Y692837D01*
X1059163Y694385D01*
X1060000Y696406D01*
Y698594D01*
X1059300Y700284D01*
X1059883Y701554D01*
X1073750D01*
X1073750Y701554D01*
X1075164Y701835D01*
X1076364Y702636D01*
X1080413Y706686D01*
X1080414Y706686D01*
X1081215Y707886D01*
X1081496Y709300D01*
X1081496Y709300D01*
Y720910D01*
X1148800D01*
Y746910D01*
X1106896D01*
Y758550D01*
X1106896Y758550D01*
X1106615Y759964D01*
X1105814Y761163D01*
X1105813Y761164D01*
X1098864Y768113D01*
X1097664Y768915D01*
X1096250Y769196D01*
X1096250Y769196D01*
X1008332D01*
X1007365Y770163D01*
X1005344Y771000D01*
X1003156D01*
X1001134Y770163D01*
X999587Y768615D01*
X998750Y766594D01*
Y764406D01*
X999550Y762475D01*
X999567Y762333D01*
X999088Y761088D01*
X998964Y761064D01*
X998866Y761163D01*
X996844Y762000D01*
X994656D01*
X992635Y761163D01*
X991087Y759615D01*
X990250Y757594D01*
Y755406D01*
X991087Y753384D01*
X992635Y751837D01*
X994656Y751000D01*
X996844D01*
X998866Y751837D01*
X999832Y752804D01*
X1033315D01*
X1034021Y751748D01*
X1033750Y751094D01*
Y748906D01*
X1034139Y747966D01*
X1033434Y746910D01*
X1032200D01*
Y720910D01*
X1039448D01*
X1040154Y719854D01*
X1040060Y719628D01*
Y717440D01*
X1040898Y715419D01*
X1041864Y714452D01*
Y708690D01*
X1041864Y708690D01*
X1042146Y707275D01*
X1042947Y706076D01*
X1046386Y702637D01*
X1046386Y702636D01*
X1047586Y701835D01*
X1049000Y701554D01*
X1049000Y701554D01*
X1049117D01*
X1049700Y700284D01*
X1049000Y698594D01*
Y697227D01*
X1048829Y697056D01*
X1042700D01*
Y700860D01*
X1016700D01*
Y685860D01*
Y673160D01*
Y658956D01*
X1014322D01*
X1013365Y659913D01*
X1011344Y660750D01*
X1009156D01*
X1007134Y659913D01*
X1005587Y658365D01*
X1004750Y656344D01*
Y654156D01*
X1005587Y652134D01*
X1007134Y650587D01*
X1009156Y649750D01*
X1011344D01*
X1013365Y650587D01*
X1014342Y651564D01*
X1016700D01*
Y646196D01*
X1014582D01*
X1013615Y647163D01*
X1011594Y648000D01*
X1009406D01*
X1007384Y647163D01*
X1005837Y645615D01*
X1005000Y643594D01*
Y641406D01*
X1005837Y639384D01*
X1007384Y637837D01*
X1009406Y637000D01*
X1011594D01*
X1013615Y637837D01*
X1014582Y638804D01*
X1016700D01*
Y633556D01*
X1014472D01*
X1013615Y634413D01*
X1011594Y635250D01*
X1009406D01*
X1007384Y634413D01*
X1005837Y632865D01*
X1005000Y630844D01*
Y628656D01*
X1005837Y626634D01*
X1007384Y625087D01*
X1009406Y624250D01*
X1011594D01*
X1013615Y625087D01*
X1014692Y626164D01*
X1016700D01*
Y622360D01*
Y609660D01*
Y596960D01*
Y584260D01*
X1036624D01*
X1036917Y583552D01*
X1037037Y582990D01*
X1036285Y581864D01*
X1036004Y580450D01*
X1036004Y580450D01*
Y576910D01*
X1032200D01*
Y550910D01*
X1048704D01*
Y548681D01*
X1045469Y545446D01*
X1032531D01*
X1010863Y567113D01*
X1009664Y567915D01*
X1008250Y568196D01*
X1008250Y568196D01*
X999200D01*
Y589000D01*
X992396D01*
Y591800D01*
X992115Y593214D01*
X991313Y594413D01*
X991313Y594413D01*
X987500Y598227D01*
Y599594D01*
X986663Y601615D01*
X986397Y601881D01*
X986883Y603054D01*
X991668D01*
X992635Y602087D01*
X994656Y601250D01*
X996844D01*
X998866Y602087D01*
X1000413Y603634D01*
X1001250Y605656D01*
Y607844D01*
X1000413Y609865D01*
X998866Y611413D01*
X996844Y612250D01*
X995245D01*
X995152Y612250D01*
X994529Y613206D01*
X994500Y613423D01*
X994500Y614183D01*
Y625980D01*
X994500Y627250D01*
X994500D01*
Y627250D01*
X994500D01*
Y641250D01*
X979500D01*
Y637946D01*
X972251D01*
Y642312D01*
X957635D01*
X957196Y642751D01*
Y702219D01*
X967531Y712554D01*
X994668D01*
X995635Y711587D01*
X997656Y710750D01*
X999844D01*
X1001865Y711587D01*
X1003413Y713135D01*
X1004250Y715156D01*
Y717344D01*
X1004354Y717500D01*
X1006344D01*
X1008365Y718337D01*
X1009913Y719884D01*
X1010750Y721906D01*
Y724094D01*
X1009913Y726115D01*
X1008365Y727663D01*
X1006344Y728500D01*
X1004156D01*
X1002134Y727663D01*
X1000918Y726446D01*
X929000D01*
X929000Y726446D01*
X927586Y726165D01*
X926386Y725363D01*
X926386Y725363D01*
X909637Y708614D01*
X908835Y707414D01*
X908554Y706000D01*
X908554Y706000D01*
Y643062D01*
X901249D01*
Y638196D01*
X894750D01*
Y641500D01*
X879750D01*
Y628770D01*
X879750Y627500D01*
X879750Y626230D01*
Y613500D01*
X884054D01*
Y611082D01*
X883087Y610116D01*
X882250Y608094D01*
Y605906D01*
X883087Y603885D01*
X884634Y602337D01*
X886656Y601500D01*
X888844D01*
X890865Y602337D01*
X892413Y603885D01*
X893250Y605906D01*
Y608094D01*
X892413Y610116D01*
X891446Y611082D01*
Y613500D01*
X894750D01*
Y626230D01*
X894750Y627500D01*
X894750Y628770D01*
Y630804D01*
X901249D01*
Y625378D01*
Y611408D01*
Y597438D01*
X923251D01*
Y602659D01*
X927098D01*
X928064Y601693D01*
X930086Y600855D01*
X932274D01*
X932998Y601155D01*
X934054Y600450D01*
Y588340D01*
X933847Y588284D01*
X931453Y586902D01*
X929498Y584947D01*
X928116Y582553D01*
X927400Y579882D01*
Y577118D01*
X928116Y574447D01*
X929498Y572053D01*
X931453Y570098D01*
X932547Y569466D01*
X932207Y568196D01*
X918193D01*
X917853Y569466D01*
X918947Y570098D01*
X920902Y572053D01*
X922284Y574447D01*
X923000Y577118D01*
Y579882D01*
X922284Y582553D01*
X920902Y584947D01*
X918947Y586902D01*
X916553Y588284D01*
X913882Y589000D01*
X911118D01*
X908447Y588284D01*
X906053Y586902D01*
X904098Y584947D01*
X902716Y582553D01*
X902000Y579882D01*
Y577118D01*
X902716Y574447D01*
X904098Y572053D01*
X906053Y570098D01*
X907147Y569466D01*
X906807Y568196D01*
X896250D01*
X896250Y568196D01*
X894836Y567915D01*
X893636Y567113D01*
X893636Y567113D01*
X884486Y557963D01*
X883685Y556764D01*
X883404Y555350D01*
X883404Y555350D01*
Y551500D01*
X876600D01*
Y530500D01*
X883404D01*
Y523500D01*
X879500D01*
Y510770D01*
X879500Y509500D01*
X879500Y508230D01*
Y495500D01*
X894500D01*
Y498167D01*
X905500D01*
Y495250D01*
X920500D01*
Y498167D01*
X931000D01*
Y495500D01*
X946000D01*
Y497917D01*
X949305D01*
X949634Y497587D01*
X951656Y496750D01*
X953844D01*
X955865Y497587D01*
X957413Y499134D01*
X958250Y501156D01*
Y503344D01*
X957413Y505365D01*
X955865Y506913D01*
X953844Y507750D01*
X951656D01*
X949634Y506913D01*
X949305Y506583D01*
X946898D01*
X946000Y507481D01*
X946000Y509500D01*
X946000Y510770D01*
Y523500D01*
X941596D01*
Y531120D01*
X941953Y531216D01*
X944347Y532598D01*
X946302Y534553D01*
X947684Y536947D01*
X948400Y539618D01*
Y542382D01*
X947684Y545053D01*
X946302Y547447D01*
X944347Y549402D01*
X944119Y549534D01*
X944459Y550804D01*
X956741D01*
X957081Y549534D01*
X956853Y549402D01*
X954898Y547447D01*
X953516Y545053D01*
X952800Y542382D01*
Y539618D01*
X953516Y536947D01*
X954898Y534553D01*
X956853Y532598D01*
X959247Y531216D01*
X961918Y530500D01*
X964682D01*
X967353Y531216D01*
X969747Y532598D01*
X971702Y534553D01*
X973084Y536947D01*
X973800Y539618D01*
Y542382D01*
X973084Y545053D01*
X971702Y547447D01*
X969747Y549402D01*
X969519Y549534D01*
X969859Y550804D01*
X1000469D01*
X1023636Y527637D01*
X1023636Y527636D01*
X1024836Y526835D01*
X1026250Y526554D01*
X1026250Y526554D01*
X1063000D01*
X1063000Y526554D01*
X1064414Y526835D01*
X1065613Y527636D01*
X1080413Y542436D01*
X1080414Y542436D01*
X1081215Y543635D01*
X1081496Y545050D01*
Y550910D01*
X1112204D01*
Y504100D01*
X1112204Y504100D01*
X1112485Y502686D01*
X1113287Y501487D01*
X1130887Y483887D01*
X1130887Y483886D01*
X1132086Y483085D01*
X1133500Y482804D01*
X1271750D01*
X1271750Y482804D01*
X1273164Y483085D01*
X1274363Y483886D01*
X1305820Y515344D01*
X1306650Y515000D01*
Y515000D01*
X1327650D01*
Y536000D01*
X1318504D01*
Y572270D01*
X1334150D01*
Y574146D01*
X1342924D01*
X1343500Y573284D01*
Y571096D01*
X1343142Y570560D01*
X1341090D01*
Y556560D01*
Y543560D01*
X1344236D01*
Y539780D01*
X1341090D01*
Y525780D01*
X1356090D01*
Y539780D01*
X1352944D01*
Y543560D01*
X1356090D01*
Y548746D01*
X1368189D01*
X1369398Y546653D01*
X1371353Y544698D01*
X1373747Y543316D01*
X1376418Y542600D01*
X1379182D01*
X1381853Y543316D01*
X1384247Y544698D01*
X1386202Y546653D01*
X1387584Y549047D01*
X1388300Y551718D01*
Y554482D01*
X1387584Y557153D01*
X1386202Y559547D01*
X1384247Y561502D01*
X1381853Y562884D01*
X1379182Y563600D01*
X1376418D01*
X1373747Y562884D01*
X1371353Y561502D01*
X1369398Y559547D01*
X1368189Y557454D01*
X1356090D01*
Y570560D01*
X1354858D01*
X1354500Y571096D01*
Y573284D01*
X1355076Y574146D01*
X1368189D01*
X1369398Y572053D01*
X1371353Y570098D01*
X1373747Y568716D01*
X1376418Y568000D01*
X1379182D01*
X1381853Y568716D01*
X1384247Y570098D01*
X1386202Y572053D01*
X1387584Y574447D01*
X1388300Y577118D01*
Y579882D01*
X1387584Y582553D01*
X1386202Y584947D01*
X1384247Y586902D01*
X1381853Y588284D01*
X1379182Y589000D01*
X1376418D01*
X1373747Y588284D01*
X1371353Y586902D01*
X1369398Y584947D01*
X1368189Y582854D01*
X1334150D01*
Y587270D01*
X1307150D01*
X1307104Y588521D01*
Y589947D01*
X1317328Y600172D01*
X1318272Y601584D01*
X1318604Y603250D01*
Y815587D01*
X1321667Y818650D01*
X1347440D01*
X1347743Y818650D01*
X1348513Y817542D01*
X1348229Y816514D01*
X1347414Y816352D01*
X1346001Y815408D01*
X1341343Y810750D01*
X1340906D01*
X1338884Y809913D01*
X1337337Y808365D01*
X1336500Y806344D01*
Y804156D01*
X1337337Y802134D01*
X1338884Y800587D01*
X1340906Y799750D01*
X1343094D01*
X1345116Y800587D01*
X1346663Y802134D01*
X1347500Y804156D01*
X1348698Y804013D01*
X1348710Y804007D01*
Y792330D01*
X1348710D01*
Y791390D01*
X1348710D01*
Y777390D01*
X1363710D01*
Y791390D01*
X1363710D01*
Y792330D01*
X1363710D01*
Y797666D01*
X1371999D01*
X1373208Y795573D01*
X1375163Y793618D01*
X1377557Y792236D01*
X1380228Y791520D01*
X1382992D01*
X1385663Y792236D01*
X1388057Y793618D01*
X1390012Y795573D01*
X1391394Y797967D01*
X1392110Y800638D01*
Y803402D01*
X1391394Y806073D01*
X1390012Y808467D01*
X1388057Y810422D01*
X1385663Y811804D01*
X1382992Y812520D01*
X1380228D01*
X1377557Y811804D01*
X1375163Y810422D01*
X1373208Y808467D01*
X1371999Y806374D01*
X1363710D01*
Y819330D01*
X1349390D01*
X1348710Y819330D01*
X1348120Y820356D01*
Y823066D01*
X1371999D01*
X1373208Y820973D01*
X1375163Y819018D01*
X1377557Y817636D01*
X1380228Y816920D01*
X1382992D01*
X1385663Y817636D01*
X1388057Y819018D01*
X1390012Y820973D01*
X1391394Y823367D01*
X1392110Y826038D01*
Y828802D01*
X1391394Y831473D01*
X1390012Y833867D01*
X1388057Y835822D01*
X1385663Y837204D01*
X1382992Y837920D01*
D02*
G37*
G36*
X1060982Y845500D02*
X1058218D01*
X1055547Y844784D01*
X1053153Y843402D01*
X1051198Y841447D01*
X1049816Y839053D01*
X1049100Y836382D01*
Y833618D01*
X1049816Y830947D01*
X1051198Y828553D01*
X1053153Y826598D01*
X1055547Y825216D01*
X1058218Y824500D01*
X1060982D01*
X1063653Y825216D01*
X1066047Y826598D01*
X1068002Y828553D01*
X1069384Y830947D01*
X1070100Y833618D01*
Y836382D01*
X1069384Y839053D01*
X1068002Y841447D01*
X1066047Y843402D01*
X1063653Y844784D01*
X1060982Y845500D01*
D02*
G37*
G36*
Y820100D02*
X1058218D01*
X1055547Y819384D01*
X1053153Y818002D01*
X1051198Y816047D01*
X1049816Y813653D01*
X1049100Y810982D01*
Y808218D01*
X1049816Y805547D01*
X1051198Y803153D01*
X1053153Y801198D01*
X1055547Y799816D01*
X1058218Y799100D01*
X1060982D01*
X1063653Y799816D01*
X1066047Y801198D01*
X1068002Y803153D01*
X1069384Y805547D01*
X1070100Y808218D01*
Y810982D01*
X1069384Y813653D01*
X1068002Y816047D01*
X1066047Y818002D01*
X1063653Y819384D01*
X1060982Y820100D01*
D02*
G37*
G36*
X1095500Y794700D02*
X1074500D01*
Y773700D01*
X1095500D01*
Y794700D01*
D02*
G37*
G36*
X1060982D02*
X1058218D01*
X1055547Y793984D01*
X1053153Y792602D01*
X1051198Y790647D01*
X1049816Y788253D01*
X1049100Y785582D01*
Y782818D01*
X1049816Y780147D01*
X1051198Y777753D01*
X1053153Y775798D01*
X1055547Y774416D01*
X1058218Y773700D01*
X1060982D01*
X1063653Y774416D01*
X1066047Y775798D01*
X1068002Y777753D01*
X1069384Y780147D01*
X1070100Y782818D01*
Y785582D01*
X1069384Y788253D01*
X1068002Y790647D01*
X1066047Y792602D01*
X1063653Y793984D01*
X1060982Y794700D01*
D02*
G37*
G36*
X1459192Y787120D02*
X1456428D01*
X1453757Y786404D01*
X1451363Y785022D01*
X1449408Y783067D01*
X1448026Y780673D01*
X1447310Y778002D01*
Y775238D01*
X1448026Y772567D01*
X1449408Y770173D01*
X1451363Y768218D01*
X1453757Y766836D01*
X1456428Y766120D01*
X1459192D01*
X1461863Y766836D01*
X1464257Y768218D01*
X1466212Y770173D01*
X1467594Y772567D01*
X1468310Y775238D01*
Y778002D01*
X1467594Y780673D01*
X1466212Y783067D01*
X1464257Y785022D01*
X1461863Y786404D01*
X1459192Y787120D01*
D02*
G37*
G36*
X1388300Y614400D02*
X1367300D01*
Y593400D01*
X1388300D01*
Y614400D01*
D02*
G37*
G36*
X1521310Y679349D02*
X1485750D01*
X1485750Y679349D01*
X1473000D01*
X1471829Y679116D01*
X1470837Y678453D01*
X1470174Y677460D01*
X1469941Y676290D01*
Y592989D01*
X1458512D01*
X1458467Y593098D01*
X1458301Y594259D01*
X1460447Y595498D01*
X1462402Y597453D01*
X1463784Y599847D01*
X1464500Y602518D01*
Y605282D01*
X1463784Y607953D01*
X1462402Y610347D01*
X1460447Y612302D01*
X1458053Y613684D01*
X1455382Y614400D01*
X1452618D01*
X1449947Y613684D01*
X1447553Y612302D01*
X1445598Y610347D01*
X1444216Y607953D01*
X1443500Y605282D01*
Y602518D01*
X1444216Y599847D01*
X1445598Y597453D01*
X1447553Y595498D01*
X1449699Y594259D01*
X1449533Y593098D01*
X1449488Y592989D01*
X1443840D01*
X1442670Y592756D01*
X1441677Y592093D01*
X1441014Y591101D01*
X1440781Y589930D01*
X1440781Y565800D01*
X1441014Y564630D01*
X1441677Y563637D01*
X1442670Y562974D01*
X1443840Y562741D01*
X1447246D01*
X1447513Y561745D01*
X1447522Y561471D01*
X1445598Y559547D01*
X1444216Y557153D01*
X1443500Y554482D01*
Y551718D01*
X1444216Y549047D01*
X1445598Y546653D01*
X1447553Y544698D01*
X1449947Y543316D01*
X1452618Y542600D01*
X1455382D01*
X1458053Y543316D01*
X1460447Y544698D01*
X1462402Y546653D01*
X1462887Y547492D01*
X1474790D01*
Y545600D01*
X1501790D01*
Y547492D01*
X1509850D01*
Y545600D01*
X1522580D01*
X1523850Y545600D01*
X1525120Y545600D01*
X1537850D01*
Y547492D01*
X1602590D01*
X1602590Y547492D01*
X1646077D01*
X1649785Y543785D01*
X1651604Y542569D01*
X1653750Y542142D01*
X1687000D01*
Y537000D01*
X1710000D01*
Y560000D01*
X1687000D01*
Y553358D01*
X1656073D01*
X1652365Y557065D01*
X1650546Y558281D01*
X1648400Y558708D01*
X1608198D01*
Y566390D01*
X1610090D01*
Y579120D01*
X1610090Y580390D01*
X1610090Y581660D01*
Y594390D01*
X1608198D01*
Y657240D01*
X1607771Y659386D01*
X1606555Y661205D01*
X1601475Y666285D01*
X1599656Y667501D01*
X1597510Y667928D01*
X1536080D01*
Y669820D01*
X1524369D01*
Y676290D01*
X1524136Y677460D01*
X1523473Y678453D01*
X1522481Y679116D01*
X1521310Y679349D01*
D02*
G37*
G36*
X1280001Y740000D02*
X1215000D01*
X1216000Y558250D01*
X1280250D01*
X1280001Y558499D01*
Y740000D01*
D02*
G37*
G36*
X1455382Y538200D02*
X1452618D01*
X1449947Y537484D01*
X1447553Y536102D01*
X1445598Y534147D01*
X1444216Y531753D01*
X1443500Y529082D01*
Y526318D01*
X1444216Y523647D01*
X1445598Y521253D01*
X1447553Y519298D01*
X1449947Y517916D01*
X1452618Y517200D01*
X1455382D01*
X1458053Y517916D01*
X1460447Y519298D01*
X1462402Y521253D01*
X1463784Y523647D01*
X1464500Y526318D01*
Y529082D01*
X1463784Y531753D01*
X1462402Y534147D01*
X1460447Y536102D01*
X1458053Y537484D01*
X1455382Y538200D01*
D02*
G37*
%LPD*%
G36*
X1712560Y1210310D02*
Y1177290D01*
X1704940Y1169670D01*
Y1121410D01*
X1618580Y1121410D01*
Y1180964D01*
X1650330Y1211580D01*
X1711290D01*
X1712560Y1210310D01*
D02*
G37*
G36*
X1605750Y1017750D02*
X1543750Y955750D01*
X1130750D01*
X1114000Y939000D01*
X1099151D01*
X1098257Y939901D01*
X1098500Y972250D01*
X1098968Y972718D01*
X1098250Y973422D01*
Y995000D01*
X1110000D01*
X1110500Y994793D01*
Y979500D01*
X1114750D01*
X1114750Y979500D01*
X1529750D01*
X1585000Y1034750D01*
Y1163500D01*
X1605750D01*
X1605750Y1017750D01*
D02*
G37*
G36*
X1521656Y951500D02*
X1519635Y950663D01*
X1519555Y950583D01*
X1259945D01*
X1259615Y950913D01*
X1258388Y951421D01*
X1258640Y952691D01*
X1521466D01*
X1521656Y951500D01*
D02*
G37*
G36*
X1051500Y989000D02*
X1026000Y963500D01*
Y937500D01*
X1025750Y937250D01*
X1009500D01*
Y963250D01*
X1009750Y963500D01*
X984250Y989000D01*
X984250Y1064000D01*
X1051500D01*
X1051500Y989000D01*
D02*
G37*
G36*
X1072250Y972500D02*
Y936750D01*
X1032652D01*
X1031759Y937652D01*
X1032000Y963000D01*
X1041750Y972750D01*
X1072000D01*
X1072250Y972500D01*
D02*
G37*
G36*
X1281763Y940743D02*
X1261966Y920947D01*
X1261165Y919747D01*
X1260884Y918333D01*
X1260016Y917520D01*
X1257026D01*
Y938170D01*
X1257026Y938170D01*
X1256765Y939480D01*
X1256798Y939786D01*
X1257313Y940750D01*
X1257594D01*
X1259615Y941587D01*
X1259945Y941917D01*
X1281277D01*
X1281763Y940743D01*
D02*
G37*
G36*
X1215020Y938080D02*
X1230020D01*
Y938080D01*
X1230260D01*
Y938080D01*
X1245260D01*
Y939354D01*
X1246433Y939840D01*
X1249634Y936639D01*
Y917520D01*
X1249314D01*
Y903036D01*
X1234830D01*
Y902716D01*
X1230270D01*
Y906540D01*
X1215270D01*
Y906540D01*
X1215030D01*
Y906540D01*
X1209333D01*
Y934305D01*
X1209663Y934634D01*
X1210500Y936656D01*
Y938844D01*
X1209974Y940114D01*
X1210804Y941384D01*
X1215020D01*
Y938080D01*
D02*
G37*
G36*
X1256637Y828636D02*
X1257836Y827835D01*
X1259250Y827554D01*
X1259250Y827554D01*
X1264000D01*
Y820250D01*
X1262730Y820250D01*
X1254500D01*
Y798250D01*
X1256804D01*
Y793281D01*
X1256523Y793000D01*
X1249020D01*
X1247750Y793000D01*
Y793000D01*
X1247750D01*
Y793000D01*
X1238977D01*
X1236696Y795281D01*
Y798250D01*
X1239000D01*
Y820250D01*
X1237696D01*
Y830418D01*
X1238663Y831385D01*
X1239500Y833406D01*
Y835594D01*
X1238663Y837616D01*
X1237115Y839163D01*
X1235094Y840000D01*
X1232906D01*
X1230884Y839163D01*
X1230673Y838951D01*
X1229500Y839437D01*
Y842250D01*
X1230437Y843054D01*
X1242219D01*
X1256637Y828636D01*
D02*
G37*
G36*
X1273500Y820250D02*
Y798250D01*
X1275804D01*
Y783781D01*
X1266469Y774446D01*
X1261750D01*
Y778000D01*
X1261750D01*
Y787773D01*
X1263113Y789137D01*
X1263113Y789137D01*
X1263915Y790336D01*
X1264196Y791750D01*
Y798250D01*
X1266500D01*
Y820250D01*
X1267770Y820250D01*
X1272230D01*
X1273500Y820250D01*
D02*
G37*
G36*
X1227000D02*
Y798250D01*
X1229304D01*
Y793750D01*
X1229304Y793750D01*
X1229585Y792336D01*
X1230387Y791137D01*
X1233750Y787773D01*
Y778250D01*
X1233750D01*
Y774446D01*
X1226031D01*
X1217696Y782781D01*
Y798250D01*
X1220000D01*
Y820250D01*
X1221270Y820250D01*
X1225730D01*
X1227000Y820250D01*
D02*
G37*
%LPC*%
G36*
X1037749Y1020810D02*
X997749D01*
X996578Y1020577D01*
X995586Y1019914D01*
X994923Y1018922D01*
X994690Y1017752D01*
Y987752D01*
X994923Y986581D01*
X995586Y985589D01*
X996578Y984926D01*
X997749Y984693D01*
X1037749D01*
X1038919Y984926D01*
X1039912Y985589D01*
X1040575Y986581D01*
X1040808Y987752D01*
Y1017752D01*
X1040575Y1018922D01*
X1039912Y1019914D01*
X1038919Y1020577D01*
X1037749Y1020810D01*
D02*
G37*
%LPD*%
G36*
X1508500Y925210D02*
X1525120D01*
Y922670D01*
Y883300D01*
X1542900Y865520D01*
X1542900Y839000D01*
X1508610Y839000D01*
X1508610Y902350D01*
X1508500D01*
Y838850D01*
X1490830Y838850D01*
Y833650D01*
X1490330D01*
Y818650D01*
X1490830D01*
Y814720D01*
X1447650D01*
X1447650Y838850D01*
X1490750D01*
X1473000Y838850D01*
Y898590D01*
Y925250D01*
X1508500D01*
Y925210D01*
D02*
G37*
G36*
X1600792Y901297D02*
Y843960D01*
X1598900D01*
Y831230D01*
X1598900Y829960D01*
X1597937Y829218D01*
X1594753D01*
X1584538Y839433D01*
Y850780D01*
X1586132Y852374D01*
X1587317Y854426D01*
X1587930Y856715D01*
Y859085D01*
X1587317Y861374D01*
X1586132Y863426D01*
X1584456Y865102D01*
X1582404Y866287D01*
X1580115Y866900D01*
X1577745D01*
X1575456Y866287D01*
X1573404Y865102D01*
X1571728Y863426D01*
X1570543Y861374D01*
X1569930Y859085D01*
Y856715D01*
X1570543Y854426D01*
X1571728Y852374D01*
X1573322Y850780D01*
Y837110D01*
X1573749Y834964D01*
X1574965Y833145D01*
X1588465Y819645D01*
X1590284Y818429D01*
X1592430Y818002D01*
X1598900D01*
Y815960D01*
X1600792D01*
Y807628D01*
X1537850D01*
Y809520D01*
X1525120D01*
X1523850Y809520D01*
X1522580Y809520D01*
X1509850D01*
Y807628D01*
X1504330D01*
Y809520D01*
X1477330D01*
Y807628D01*
X1466697D01*
X1466212Y808467D01*
X1464288Y810391D01*
X1464297Y810665D01*
X1464564Y811661D01*
X1490830D01*
X1492001Y811894D01*
X1492993Y812557D01*
X1493656Y813549D01*
X1493889Y814720D01*
Y818650D01*
X1493656Y819820D01*
X1493389Y820220D01*
Y832080D01*
X1493656Y832479D01*
X1493889Y833650D01*
Y835791D01*
X1508500Y835791D01*
X1509254Y835941D01*
X1542900Y835941D01*
X1544070Y836174D01*
X1545063Y836837D01*
X1545726Y837830D01*
X1545959Y839000D01*
X1545959Y865520D01*
X1545726Y866691D01*
X1545063Y867683D01*
X1545063Y867683D01*
X1528179Y884567D01*
Y902985D01*
X1528179Y902985D01*
X1528179Y902985D01*
Y906280D01*
X1541160D01*
Y906902D01*
X1595187D01*
X1600792Y901297D01*
D02*
G37*
G36*
X1099504Y757019D02*
Y746910D01*
X1094196D01*
Y752500D01*
X1093915Y753914D01*
X1093113Y755114D01*
X1093113Y755114D01*
X1089113Y759113D01*
X1087914Y759915D01*
X1086500Y760196D01*
X1086500Y760196D01*
X1009682D01*
X1009003Y761466D01*
X1009229Y761804D01*
X1094719D01*
X1099504Y757019D01*
D02*
G37*
G36*
X1086804Y750969D02*
Y746910D01*
X1058341D01*
X1057492Y748180D01*
X1058000Y749406D01*
Y751594D01*
X1057936Y751748D01*
X1058642Y752804D01*
X1084969D01*
X1086804Y750969D01*
D02*
G37*
G36*
X962307Y717784D02*
X950887Y706364D01*
X950085Y705164D01*
X949804Y703750D01*
X949804Y703750D01*
Y641220D01*
X949804Y641220D01*
X950085Y639806D01*
X950249Y639561D01*
Y622857D01*
X949137Y622113D01*
X949137Y622113D01*
X943154Y616131D01*
X942353Y614932D01*
X942287Y614597D01*
X942193Y614561D01*
X940965Y614463D01*
X940363Y615364D01*
X940363Y615364D01*
X932863Y622864D01*
X931664Y623665D01*
X930250Y623946D01*
X930250Y623946D01*
X923251D01*
Y643062D01*
X915946D01*
Y704469D01*
X930531Y719054D01*
X961781D01*
X962307Y717784D01*
D02*
G37*
G36*
X1187746Y548650D02*
X1188078Y546984D01*
X1189022Y545572D01*
X1194421Y540172D01*
X1195834Y539228D01*
X1197500Y538896D01*
X1285250D01*
X1286916Y539228D01*
X1288329Y540172D01*
X1297223Y549066D01*
X1298396Y548580D01*
Y538303D01*
X1295467Y535374D01*
X1293132Y536000D01*
X1290368D01*
X1287697Y535284D01*
X1285303Y533902D01*
X1283348Y531947D01*
X1281966Y529553D01*
X1281250Y526882D01*
Y524118D01*
X1281966Y521447D01*
X1283348Y519053D01*
X1285303Y517098D01*
X1287697Y515716D01*
X1290368Y515000D01*
X1293132D01*
X1293345Y515057D01*
X1293980Y513957D01*
X1270219Y490196D01*
X1214790D01*
X1213750Y490750D01*
X1213750Y491466D01*
Y505750D01*
X1214847Y506167D01*
X1251350D01*
X1253008Y506497D01*
X1254414Y507436D01*
X1262610Y515632D01*
X1264968Y515000D01*
X1267732D01*
X1270403Y515716D01*
X1272797Y517098D01*
X1274752Y519053D01*
X1276134Y521447D01*
X1276850Y524118D01*
Y526882D01*
X1276134Y529553D01*
X1274752Y531947D01*
X1272797Y533902D01*
X1270403Y535284D01*
X1267732Y536000D01*
X1264968D01*
X1262297Y535284D01*
X1259903Y533902D01*
X1257948Y531947D01*
X1256566Y529553D01*
X1255850Y526882D01*
Y524118D01*
X1256482Y521760D01*
X1249555Y514833D01*
X1213500D01*
Y521000D01*
X1200770D01*
X1199500Y521000D01*
X1198230Y521000D01*
X1196196D01*
Y531250D01*
X1196196Y531250D01*
X1195915Y532664D01*
X1195114Y533863D01*
X1195113Y533863D01*
X1183196Y545781D01*
Y550910D01*
X1187746D01*
Y548650D01*
D02*
G37*
G36*
X935260Y553534D02*
X935054Y552500D01*
X935054Y552500D01*
Y551108D01*
X933847Y550784D01*
X931453Y549402D01*
X929498Y547447D01*
X928116Y545053D01*
X927400Y542382D01*
Y539618D01*
X928116Y536947D01*
X929498Y534553D01*
X931453Y532598D01*
X933847Y531216D01*
X934204Y531120D01*
Y523500D01*
X931000D01*
Y510770D01*
X931000Y509500D01*
X931000Y508230D01*
Y506833D01*
X921398D01*
X920500Y507731D01*
X920500Y509250D01*
X920500Y510520D01*
Y523250D01*
X916196D01*
Y531120D01*
X916553Y531216D01*
X918947Y532598D01*
X920902Y534553D01*
X922284Y536947D01*
X923000Y539618D01*
Y542382D01*
X922284Y545053D01*
X920902Y547447D01*
X918947Y549402D01*
X916946Y550557D01*
Y552969D01*
X918781Y554804D01*
X934519D01*
X935260Y553534D01*
D02*
G37*
G36*
X913154Y559631D02*
X910637Y557113D01*
X909835Y555914D01*
X909554Y554500D01*
X909554Y554500D01*
Y551081D01*
X908447Y550784D01*
X906053Y549402D01*
X904098Y547447D01*
X902716Y545053D01*
X902000Y542382D01*
Y539618D01*
X902716Y536947D01*
X904098Y534553D01*
X906053Y532598D01*
X908447Y531216D01*
X908804Y531120D01*
Y523250D01*
X905500D01*
Y510520D01*
X905500Y509250D01*
X905500Y507731D01*
X904602Y506833D01*
X895398D01*
X894500Y507731D01*
X894500Y509500D01*
X894500Y510770D01*
Y523500D01*
X890796D01*
Y530500D01*
X897600D01*
Y551500D01*
X890796D01*
Y553819D01*
X897781Y560804D01*
X912668D01*
X913154Y559631D01*
D02*
G37*
G36*
X1188804Y529719D02*
Y521000D01*
X1185500D01*
Y506000D01*
X1185500D01*
X1185750Y505750D01*
Y501946D01*
X1184000D01*
X1182770Y501701D01*
X1182245Y501917D01*
X1181500Y502467D01*
Y502594D01*
X1180663Y504616D01*
X1179116Y506163D01*
X1177094Y507000D01*
X1175727D01*
X1175476Y507251D01*
Y511160D01*
X1179280D01*
Y523890D01*
X1179280Y525160D01*
X1179280D01*
Y525160D01*
X1179280D01*
Y537447D01*
X1180550Y537973D01*
X1188804Y529719D01*
D02*
G37*
G36*
X1149667Y539810D02*
X1146500D01*
Y527080D01*
X1146500Y525810D01*
X1146500D01*
Y525810D01*
X1146500D01*
Y511810D01*
X1155666D01*
X1160054Y507422D01*
Y505582D01*
X1159087Y504616D01*
X1158250Y502594D01*
Y500406D01*
X1159087Y498385D01*
X1160006Y497466D01*
X1159480Y496196D01*
X1151281D01*
X1144446Y503031D01*
Y550910D01*
X1149667D01*
Y539810D01*
D02*
G37*
G36*
X1137054Y501500D02*
X1137054Y501500D01*
X1137335Y500086D01*
X1138137Y498886D01*
X1145654Y491369D01*
X1145168Y490196D01*
X1135031D01*
X1119596Y505631D01*
Y550910D01*
X1137054D01*
Y501500D01*
D02*
G37*
G36*
X1521310Y673750D02*
Y634380D01*
X1539090Y616600D01*
X1539090Y589930D01*
X1503750Y589930D01*
Y589930D01*
X1487020Y589930D01*
X1487020Y565800D01*
X1443840D01*
X1443840Y589930D01*
X1483583D01*
X1473000Y589930D01*
Y676290D01*
X1485750D01*
Y676290D01*
X1521310D01*
Y673750D01*
D02*
G37*
G36*
X1596982Y654917D02*
Y594390D01*
X1595090D01*
Y581660D01*
X1595090Y580390D01*
X1593858Y580298D01*
X1585863D01*
X1582398Y583763D01*
Y601860D01*
X1583992Y603454D01*
X1585177Y605506D01*
X1585790Y607795D01*
Y610165D01*
X1585177Y612454D01*
X1583992Y614506D01*
X1582316Y616182D01*
X1580264Y617367D01*
X1577975Y617980D01*
X1575605D01*
X1573316Y617367D01*
X1571264Y616182D01*
X1569588Y614506D01*
X1568403Y612454D01*
X1567790Y610165D01*
Y607795D01*
X1568403Y605506D01*
X1569588Y603454D01*
X1571182Y601860D01*
Y581440D01*
X1571609Y579294D01*
X1572825Y577475D01*
X1579575Y570725D01*
X1581394Y569509D01*
X1583540Y569082D01*
X1595090D01*
Y566390D01*
X1596982D01*
Y558708D01*
X1537850D01*
Y560600D01*
X1525120D01*
X1523850Y560600D01*
X1522580Y560600D01*
X1509850D01*
Y558708D01*
X1501790D01*
Y560600D01*
X1474790D01*
Y558708D01*
X1462887D01*
X1462402Y559547D01*
X1460478Y561471D01*
X1460487Y561745D01*
X1460754Y562741D01*
X1487020D01*
X1488191Y562974D01*
X1489183Y563637D01*
X1489846Y564630D01*
X1490079Y565800D01*
X1490079Y586871D01*
X1503750Y586871D01*
X1503750Y586871D01*
X1539090Y586871D01*
X1540260Y587104D01*
X1541253Y587767D01*
X1541916Y588759D01*
X1542149Y589930D01*
X1542149Y616600D01*
X1541916Y617771D01*
X1541253Y618763D01*
X1541253Y618763D01*
X1524369Y635647D01*
Y654065D01*
X1524369Y654065D01*
X1525276Y654820D01*
X1536080D01*
Y656712D01*
X1595187D01*
X1596982Y654917D01*
D02*
G37*
D10*
X1017750Y940250D02*
X1018000Y940500D01*
X1014500Y937000D02*
X1017750Y940250D01*
X1014500Y899750D02*
Y937000D01*
X887000Y502500D02*
X938500D01*
X1256500Y946250D02*
X1522500D01*
X1522750Y946000D01*
X1205000Y902070D02*
Y937750D01*
X1719750Y1029000D02*
X1723460Y1032710D01*
X1719750Y996520D02*
Y1029000D01*
X938750Y502250D02*
X952750D01*
X938500Y502500D02*
X938750Y502250D01*
X1141426Y795250D02*
X1142676Y796500D01*
X1165500D01*
X1140750Y795250D02*
X1141426D01*
X1209250Y510500D02*
X1251350D01*
X1266350Y525500D01*
X1206750Y513000D02*
Y513250D01*
Y498250D02*
Y513000D01*
X1209250Y510500D01*
X1206500Y513500D02*
X1206750Y513250D01*
X996500Y881750D02*
X1014500Y899750D01*
X1018000Y940500D02*
Y941000D01*
X1067250Y1052250D02*
X1067250Y1052250D01*
Y1037630D02*
Y1052250D01*
X1048620Y1021630D02*
X1067250D01*
X1195500Y863500D02*
X1208000D01*
X996500Y856250D02*
Y881750D01*
Y830750D02*
Y856250D01*
Y805500D02*
Y830750D01*
Y780000D02*
Y805500D01*
X996500Y881750D02*
X996500Y881750D01*
X1205000Y902070D02*
X1207530Y899540D01*
X1166700Y537240D02*
X1168530Y535410D01*
Y534910D02*
X1171280Y532160D01*
X1171780D01*
X1168530Y534910D02*
Y535410D01*
X1166700Y537240D02*
Y563910D01*
X1154000Y532810D02*
Y563910D01*
X1154000Y563910D01*
X1723460Y1032710D02*
Y1052960D01*
X1733340Y1062840D01*
X1733660D01*
X1734500Y1062000D01*
D12*
X1302750Y560750D02*
Y591750D01*
Y536500D02*
Y560750D01*
X1192100Y548650D02*
Y563910D01*
X1197500Y543250D02*
X1285250D01*
X1192100Y548650D02*
X1197500Y543250D01*
X1285250D02*
X1302750Y560750D01*
X1323010Y826150D02*
X1328120D01*
X1314250Y817390D02*
X1323010Y826150D01*
X1314250Y603250D02*
Y817390D01*
X1302750Y591750D02*
X1314250Y603250D01*
X1291750Y525500D02*
X1302750Y536500D01*
X1349000Y563970D02*
Y572190D01*
X1348590Y563560D02*
X1349000Y563970D01*
X1328420Y578500D02*
X1377800D01*
X1327150Y579770D02*
X1328420Y578500D01*
X1349080Y812330D02*
X1356210D01*
X1342000Y805250D02*
X1349080Y812330D01*
X1314150Y528500D02*
X1317150Y525500D01*
X1314150Y528500D02*
Y579770D01*
X1341120Y826150D02*
X1342390Y827420D01*
X1381610D01*
X1348590Y532780D02*
Y550560D01*
X1351130Y553100D01*
X1377800D01*
X1356210Y784390D02*
Y799330D01*
X1358900Y802020D01*
X1381610D01*
X1516850Y553100D02*
X1516850Y553100D01*
X1516850Y802020D02*
X1516850Y802020D01*
X1602590Y553100D02*
X1602590Y553100D01*
X1601290Y574690D02*
X1602590Y573390D01*
X1602590Y587390D02*
X1602590Y587390D01*
X1605750Y823610D02*
X1606400Y822960D01*
D15*
X1172572Y914000D02*
X1203652Y945080D01*
X1172572Y914000D02*
Y914000D01*
X1203652Y945080D02*
X1222520D01*
X1237760D01*
X1246420D01*
X1253330Y908520D02*
Y938170D01*
X1246420Y945080D02*
X1253330Y938170D01*
X1208050Y899020D02*
X1243830D01*
X1526132Y937835D02*
X1526297Y938000D01*
X1525096Y940335D02*
X1525262Y940500D01*
X1519368Y937835D02*
X1526132D01*
X1287782Y938000D02*
X1519203D01*
X1519368Y937835D01*
X1286747Y940500D02*
X1520238D01*
X1525262D02*
X1658605D01*
X1520238D02*
X1520403Y940335D01*
X1526297Y938000D02*
X1659640D01*
X1520403Y940335D02*
X1525096D01*
X1658605Y940500D02*
X1689587Y971482D01*
X1704295Y977545D02*
X1706583D01*
X1697500Y970750D02*
X1704295Y977545D01*
X1659640Y938000D02*
X1692390Y970750D01*
X1706583Y977545D02*
X1711500Y982462D01*
X1692390Y970750D02*
X1697500D01*
X1689587Y971482D02*
Y971482D01*
X1703000Y984895D01*
X1711500Y982462D02*
Y1042000D01*
X1703000Y984895D02*
Y1037024D01*
Y1059129D02*
X1704857Y1060986D01*
X1702835Y1037189D02*
Y1048811D01*
Y1037189D02*
X1703000Y1037024D01*
X1702835Y1048811D02*
X1703000Y1048976D01*
Y1059129D01*
X937900Y517100D02*
Y541000D01*
Y517100D02*
X938500Y516500D01*
X912500Y516750D02*
Y541000D01*
Y516750D02*
X913000Y516250D01*
X887100Y516600D02*
Y541000D01*
X887000Y516500D02*
X887100Y516600D01*
X938750Y552500D02*
X940750Y554500D01*
X938750Y541850D02*
Y552500D01*
X940750Y554500D02*
X1002000D01*
X937900Y541000D02*
X938750Y541850D01*
X1002000Y554500D02*
X1026250Y530250D01*
X1063000D01*
X913250Y541750D02*
Y554500D01*
X912500Y541000D02*
X913250Y541750D01*
Y554500D02*
X917250Y558500D01*
X1005500D01*
X1028000Y536000D02*
X1052412D01*
X1005500Y558500D02*
X1028000Y536000D01*
X1031000Y541750D02*
X1047000D01*
X887100Y541000D02*
Y555350D01*
X896250Y564500D01*
X1008250D01*
X1031000Y541750D01*
X850850Y1093150D02*
X891100D01*
X850750Y1093250D02*
X850850Y1093150D01*
X891100D02*
X898750Y1085500D01*
X1063000Y530250D02*
X1077800Y545050D01*
Y563910D01*
X1052412Y536000D02*
X1065100Y548688D01*
X1047000Y541750D02*
X1052400Y547150D01*
Y563910D01*
X1065100Y548688D02*
Y563910D01*
X953500Y703750D02*
X966000Y716250D01*
X953500Y641220D02*
Y703750D01*
X966000Y716250D02*
X998750D01*
X953500Y641220D02*
X961250Y633470D01*
X971750Y585250D02*
X978500Y578500D01*
X988700D01*
X971750Y585250D02*
Y590000D01*
X887250Y620500D02*
X887750Y620000D01*
Y607000D02*
Y620000D01*
X988700Y578500D02*
Y591800D01*
X982000Y598500D02*
X988700Y591800D01*
X975750Y619500D02*
X986250D01*
X987000Y620250D01*
X962470Y606750D02*
X995750D01*
X961250Y605530D02*
X962470Y606750D01*
X961250Y633470D02*
X962030Y634250D01*
X987000D01*
X911970Y634500D02*
X912250Y634220D01*
X887250Y634500D02*
X911970D01*
X1045560Y708690D02*
Y718534D01*
X929000Y722750D02*
X1005000D01*
X1005250Y723000D01*
X912250Y706000D02*
X929000Y722750D01*
X1061250Y712750D02*
X1065100Y716600D01*
Y733910D01*
X1077800Y709300D02*
Y733910D01*
X1073750Y705250D02*
X1077800Y709300D01*
X1049000Y705250D02*
X1073750D01*
X1045560Y708690D02*
X1049000Y705250D01*
X1056500Y712750D02*
X1061250D01*
X1056250Y712500D02*
X1056500Y712750D01*
X912250Y634220D02*
Y706000D01*
X945768Y592982D02*
X960250Y578500D01*
X963300D01*
X945768Y613518D02*
X951750Y619500D01*
X945768Y592982D02*
Y613518D01*
X951750Y619500D02*
X961250D01*
X937750Y578650D02*
X937900Y578500D01*
X937750Y578650D02*
Y612750D01*
X930250Y620250D02*
X937750Y612750D01*
X912250Y620250D02*
X930250D01*
X912250Y606280D02*
X912326Y606356D01*
X931180D01*
X1086500Y756500D02*
X1090500Y752500D01*
X995750Y756500D02*
X1086500D01*
X1004250Y765500D02*
X1096250D01*
X1090500Y733910D02*
Y752500D01*
X1103200Y733910D02*
Y758550D01*
X1096250Y765500D02*
X1103200Y758550D01*
X1049210Y604460D02*
X1052250Y607500D01*
X1039700Y580450D02*
X1061250Y602000D01*
X1010250Y655250D02*
X1010260Y655260D01*
X1039700Y563910D02*
Y580450D01*
X1029640Y642500D02*
X1029700Y642560D01*
X1010610Y629860D02*
X1029700D01*
X1052400Y733910D02*
X1052500Y734010D01*
X1029700Y693360D02*
X1050360D01*
X1039250Y734360D02*
Y750000D01*
X1010500Y642500D02*
X1029640D01*
X1052500Y734010D02*
Y750500D01*
X1010260Y655260D02*
X1029700D01*
X1061250Y602000D02*
Y677500D01*
X1010500Y629750D02*
X1010610Y629860D01*
X1050360Y693360D02*
X1054500Y697500D01*
X1039250Y734360D02*
X1039700Y733910D01*
X1061250Y677500D02*
X1072500Y688750D01*
X1029700Y604460D02*
X1049210D01*
X1130750Y597000D02*
X1141300Y586450D01*
Y563910D02*
Y586450D01*
X1179250Y564060D02*
X1179400Y563910D01*
X1179250Y564060D02*
Y585000D01*
X1179400Y765340D02*
Y783650D01*
X1140750Y501500D02*
Y563360D01*
X1141300Y563910D01*
X1140750Y501500D02*
X1149750Y492500D01*
X1178250D01*
X1184000Y498250D02*
X1192750D01*
X1178250Y492500D02*
X1184000Y498250D01*
X1179400Y563910D02*
X1179500Y563810D01*
Y544250D02*
Y563810D01*
X1192500Y513500D02*
Y531250D01*
X1179500Y544250D02*
X1192500Y531250D01*
X1273330Y908520D02*
Y916580D01*
X1278000Y921250D01*
X1264580Y916262D02*
Y918333D01*
X1263721Y915403D02*
X1264580Y916262D01*
X1263721Y908911D02*
Y915403D01*
X1263330Y908520D02*
X1263721Y908911D01*
X1711486Y1060986D02*
X1712500Y1062000D01*
X1704857Y1060986D02*
X1711486D01*
X1267939Y908911D02*
X1268330Y908520D01*
X1267080Y916262D02*
X1267939Y915403D01*
X1267080Y916262D02*
Y917298D01*
X1267939Y908911D02*
Y915403D01*
X1711500Y1042000D02*
X1712500Y1043000D01*
X1264580Y918333D02*
X1286747Y940500D01*
X1267080Y917298D02*
X1287782Y938000D01*
X1115900Y504100D02*
X1133500Y486500D01*
X1271750D01*
X1308507Y523257D01*
X1314907D01*
X1317150Y525500D01*
X1115900Y504100D02*
Y563910D01*
X1163750Y501500D02*
Y508953D01*
X1157875Y514828D02*
X1163750Y508953D01*
X1157875Y514828D02*
Y515435D01*
X1154000Y518810D02*
X1154500D01*
X1157875Y515435D01*
X1171780Y505720D02*
X1176000Y501500D01*
X1223500Y831250D02*
Y831375D01*
X1221125Y833750D02*
X1223500Y831375D01*
X1177250Y833750D02*
X1221125D01*
X1165250Y839250D02*
X1172750Y846750D01*
X1165250Y820750D02*
Y839250D01*
Y820750D02*
X1178750Y807250D01*
Y784450D02*
Y807250D01*
X1142250Y839250D02*
X1165250D01*
X1172750Y846750D02*
X1243750D01*
X1178750Y784450D02*
X1178810Y784390D01*
X1259250Y831250D02*
X1270000D01*
X1243750Y846750D02*
X1259250Y831250D01*
X1179400Y783650D02*
X1180640Y784890D01*
X1179400Y733910D02*
Y765340D01*
X1299750Y822000D02*
X1310000Y832250D01*
X1299750Y769000D02*
Y822000D01*
X1282500Y751750D02*
X1299750Y769000D01*
X1315750Y848750D02*
Y877750D01*
X1292000Y774250D02*
Y825000D01*
X1315750Y848750D01*
X1310000Y832250D02*
X1322000Y844250D01*
X1310000Y832250D02*
X1310000D01*
X1322000Y844250D02*
Y877250D01*
X1310230Y889020D02*
X1322000Y877250D01*
X1292830Y889020D02*
X1310230D01*
X1282250Y751750D02*
X1282500D01*
X1281802Y751302D02*
X1282250Y751750D01*
X1313759Y894539D02*
Y895506D01*
X1312625Y896640D02*
X1313759Y895506D01*
X1309480Y884020D02*
X1315750Y877750D01*
X1292830Y884020D02*
X1309480D01*
X1275750Y758000D02*
X1292000Y774250D01*
X1268000Y770750D02*
X1279500Y782250D01*
X1254750Y770750D02*
X1268000D01*
X1279500Y809250D02*
Y822750D01*
Y782250D02*
Y809250D01*
X1171780Y505720D02*
Y518160D01*
X1310480Y899020D02*
X1312625Y896875D01*
X1234000Y810250D02*
Y834500D01*
X1233000Y809250D02*
X1234000Y810250D01*
X1312625Y896640D02*
Y896875D01*
X1233000Y793750D02*
Y809250D01*
X1279500Y822750D02*
X1308250Y851500D01*
Y875500D01*
X1305121Y878629D02*
X1308250Y875500D01*
X1293221Y878629D02*
X1305121D01*
X1292830Y879020D02*
X1293221Y878629D01*
X1292830Y899020D02*
X1310480D01*
X1214000Y781250D02*
X1224500Y770750D01*
X1214000Y781250D02*
Y809250D01*
X1224500Y770750D02*
X1240750D01*
X1254750Y786000D02*
X1260500Y791750D01*
Y809250D01*
X1254750Y785500D02*
Y786000D01*
X1233000Y793750D02*
X1240750Y786000D01*
Y785500D02*
Y786000D01*
X968538Y881550D02*
X982300D01*
X947250D02*
X968538D01*
X947250Y856150D02*
X982400D01*
X947250Y830750D02*
X982500D01*
X947250Y805350D02*
X982350D01*
X947250Y779950D02*
X982450D01*
X982500Y780000D01*
X982350Y805350D02*
X982500Y805500D01*
X982500Y830750D02*
X982500Y830750D01*
X982400Y856150D02*
X982500Y856250D01*
X982300Y881550D02*
X982500Y881750D01*
X1253330Y908520D02*
X1258330D01*
X1219610Y862710D02*
X1232930Y876030D01*
X1235680Y894020D02*
X1243830D01*
X1232930Y891270D02*
X1235680Y894020D01*
X1232930Y876030D02*
Y891270D01*
X1180640Y784890D02*
Y785390D01*
D20*
X1064000Y956000D02*
D03*
X1106000D02*
D03*
D21*
X1017750Y1002750D02*
D03*
D22*
X1040250Y950250D02*
D03*
X1017750D02*
D03*
X995250D02*
D03*
D23*
X1237760Y945080D02*
D03*
Y931080D02*
D03*
X1222520Y945080D02*
D03*
Y931080D02*
D03*
X1207530Y899540D02*
D03*
Y885540D02*
D03*
X1222770Y899540D02*
D03*
Y885540D02*
D03*
X1606400Y822960D02*
D03*
Y836960D02*
D03*
X1602590Y573390D02*
D03*
Y587390D02*
D03*
X1171780Y532160D02*
D03*
Y518160D02*
D03*
X1154000Y532810D02*
D03*
Y518810D02*
D03*
X1067250Y1066250D02*
D03*
Y1052250D02*
D03*
X987000Y634250D02*
D03*
Y620250D02*
D03*
X887250Y634500D02*
D03*
Y620500D02*
D03*
X938500Y502500D02*
D03*
Y516500D02*
D03*
X887000Y502500D02*
D03*
Y516500D02*
D03*
X913000Y502250D02*
D03*
Y516250D02*
D03*
D24*
X1164190Y765340D02*
D03*
X1178190D02*
D03*
X1016250Y925750D02*
D03*
X1002250D02*
D03*
X1530850Y802020D02*
D03*
X1516850D02*
D03*
X1530850Y553100D02*
D03*
X1516850D02*
D03*
X1178810Y784390D02*
D03*
X1164810D02*
D03*
X1240750Y770750D02*
D03*
X1254750D02*
D03*
X1192750Y498250D02*
D03*
X1206750D02*
D03*
X1192500Y513500D02*
D03*
X1206500D02*
D03*
X1254750Y785500D02*
D03*
X1240750D02*
D03*
X1222000Y863500D02*
D03*
X1208000D02*
D03*
X996500Y780000D02*
D03*
X982500D02*
D03*
X996500Y830750D02*
D03*
X982500D02*
D03*
X996500Y805500D02*
D03*
X982500D02*
D03*
X996500Y881750D02*
D03*
X982500D02*
D03*
X996500Y856250D02*
D03*
X982500D02*
D03*
D25*
X1521160Y913780D02*
D03*
X1534160D02*
D03*
X1341120Y826150D02*
D03*
X1328120D02*
D03*
X1497330Y802020D02*
D03*
X1484330D02*
D03*
X1516080Y662320D02*
D03*
X1529080D02*
D03*
X1327150Y579770D02*
D03*
X1314150D02*
D03*
X1494790Y553100D02*
D03*
X1481790D02*
D03*
X1484330Y826150D02*
D03*
X1497330D02*
D03*
X1481790Y578500D02*
D03*
X1494790D02*
D03*
D26*
X1356210Y812330D02*
D03*
Y799330D02*
D03*
Y784390D02*
D03*
Y771390D02*
D03*
X1348590Y563560D02*
D03*
Y550560D02*
D03*
Y532780D02*
D03*
Y519780D02*
D03*
D27*
X1734500Y1045000D02*
D03*
D28*
Y1062000D02*
D03*
X1712500D02*
D03*
Y1043000D02*
D03*
D29*
X1595847Y1151890D02*
D03*
X1628613D02*
D03*
X1104633Y986000D02*
D03*
X1071867D02*
D03*
D30*
X1292830Y899020D02*
D03*
Y894020D02*
D03*
Y889020D02*
D03*
Y884020D02*
D03*
Y879020D02*
D03*
Y874020D02*
D03*
Y869020D02*
D03*
X1243830D02*
D03*
Y874020D02*
D03*
Y879020D02*
D03*
Y884020D02*
D03*
Y889020D02*
D03*
Y894020D02*
D03*
Y899020D02*
D03*
D31*
X1283330Y859520D02*
D03*
X1278330D02*
D03*
X1273330D02*
D03*
X1268330D02*
D03*
X1263330D02*
D03*
X1258330D02*
D03*
X1253330D02*
D03*
Y908520D02*
D03*
X1258330D02*
D03*
X1263330D02*
D03*
X1268330D02*
D03*
X1273330D02*
D03*
X1278330D02*
D03*
X1283330D02*
D03*
D32*
X961250Y619500D02*
D03*
Y605530D02*
D03*
Y633470D02*
D03*
X912250Y620250D02*
D03*
Y606280D02*
D03*
Y634220D02*
D03*
D33*
X1260500Y809250D02*
D03*
X1279500D02*
D03*
X1270000Y831250D02*
D03*
X1214000Y809250D02*
D03*
X1233000D02*
D03*
X1223500Y831250D02*
D03*
D34*
X1142250Y886250D02*
D03*
Y839250D02*
D03*
D35*
X1129800Y658910D02*
D03*
D36*
X1204800Y733910D02*
D03*
X1192100D02*
D03*
X1179400D02*
D03*
X1166700D02*
D03*
X1154000D02*
D03*
X1141300D02*
D03*
X1128600D02*
D03*
X1115900D02*
D03*
X1103200D02*
D03*
X1090500D02*
D03*
X1077800D02*
D03*
X1065100D02*
D03*
X1052400D02*
D03*
X1039700D02*
D03*
Y563910D02*
D03*
X1052400D02*
D03*
X1065100D02*
D03*
X1077800D02*
D03*
X1090500D02*
D03*
X1103200D02*
D03*
X1115900D02*
D03*
X1128600D02*
D03*
X1141300D02*
D03*
X1154000D02*
D03*
X1166700D02*
D03*
X1179400D02*
D03*
X1192100D02*
D03*
X1204800D02*
D03*
D37*
X1029700Y706060D02*
D03*
Y693360D02*
D03*
Y680660D02*
D03*
Y667960D02*
D03*
Y655260D02*
D03*
Y642560D02*
D03*
Y629860D02*
D03*
Y617160D02*
D03*
Y604460D02*
D03*
Y591760D02*
D03*
D38*
X1067250Y1037630D02*
D03*
Y1021630D02*
D03*
D47*
X1268330Y884020D02*
D03*
D60*
X1698500Y548500D02*
D03*
X1698500Y798500D02*
D03*
D61*
X1658500Y508500D02*
D03*
Y588500D02*
D03*
X1738500Y508500D02*
D03*
Y588500D02*
D03*
X1658500Y758500D02*
D03*
Y838500D02*
D03*
X1738500Y758500D02*
D03*
Y838500D02*
D03*
D70*
X1018000Y938250D02*
Y940500D01*
X1017750Y940250D02*
Y950250D01*
Y925000D02*
Y940250D01*
X1018000Y922250D02*
X1026250Y914000D01*
X1172572D01*
X1071750Y982750D02*
Y988450D01*
X1102360Y1019060D02*
X1163800Y1080500D01*
X1071750Y988450D02*
X1102360Y1019060D01*
X1552250Y1152976D02*
Y1171800D01*
Y1152976D02*
X1559250Y1145976D01*
X1544307Y1020557D02*
X1559250Y1035500D01*
Y1145976D01*
X1537500Y1019600D02*
X1538457Y1020557D01*
X1544307D01*
X1497330Y1019060D02*
X1537500D01*
X1456500Y1080500D02*
X1492000Y1045000D01*
X1537500D01*
X1163800Y1080500D02*
X1456500D01*
D71*
X1606400Y802020D02*
X1654980D01*
X1659750Y797250D02*
X1697250D01*
X1654980Y802020D02*
X1659750Y797250D01*
X1697250D02*
X1698500Y798500D01*
X1653750Y547750D02*
X1697750D01*
X1698500Y548500D01*
X1602590Y553100D02*
X1648400D01*
X1653750Y547750D01*
X850850Y1042350D02*
X872350D01*
X850750Y1042450D02*
X850850Y1042350D01*
X992750Y1162750D02*
X1016250D01*
X872350Y1042350D02*
X992750Y1162750D01*
X1016250D02*
X1035750D01*
X1049250Y1055750D02*
Y1149250D01*
X1035750Y1162750D02*
X1049250Y1149250D01*
X1192100Y753901D02*
X1192301Y754102D01*
X1192100Y733910D02*
Y753901D01*
X1048250Y1022000D02*
X1048620Y1021630D01*
X1195500Y863500D02*
X1195500Y863500D01*
X1165500Y785080D02*
Y796500D01*
X1164810Y784390D02*
X1165500Y785080D01*
X1454000Y553100D02*
X1481790D01*
X1457810Y802020D02*
X1484330D01*
X1494790Y553100D02*
X1516850D01*
X1530850Y553100D02*
X1602590D01*
X1583540Y574690D02*
X1601290D01*
X1576790Y581440D02*
X1583540Y574690D01*
X1576790Y581440D02*
Y608980D01*
X1529080Y662320D02*
X1597510D01*
X1497330Y802020D02*
X1516850D01*
X1530850Y802020D02*
X1606400D01*
X1578930Y837110D02*
X1592430Y823610D01*
X1578930Y837110D02*
Y857900D01*
X1532740Y912510D02*
X1597510D01*
X1602590Y553100D02*
Y573390D01*
X1602590Y587390D02*
Y657240D01*
X1597510Y662320D02*
X1602590Y657240D01*
X1606400Y802020D02*
X1606400Y802020D01*
Y822960D01*
X1592430Y823610D02*
X1605750D01*
X1606400Y836960D02*
Y903620D01*
X1597510Y912510D02*
X1606400Y903620D01*
D72*
X1017749Y1002752D02*
D03*
D73*
X1661750Y1153500D02*
D03*
D74*
X1721750D02*
D03*
D75*
X1691750Y1200500D02*
D03*
D76*
X1552250Y1197200D02*
D03*
D77*
Y1171800D02*
D03*
D78*
X947250Y779950D02*
D03*
X921850D02*
D03*
X947250Y805350D02*
D03*
X921850D02*
D03*
X947250Y830750D02*
D03*
X921850D02*
D03*
X947250Y856150D02*
D03*
X921850D02*
D03*
X947250Y881550D02*
D03*
X1059600Y885800D02*
D03*
X1085000D02*
D03*
X1059600Y860400D02*
D03*
X1085000D02*
D03*
X1059600Y835000D02*
D03*
X1085000D02*
D03*
X1059600Y809600D02*
D03*
X1085000D02*
D03*
X1059600Y784200D02*
D03*
X963300Y578500D02*
D03*
X937900D02*
D03*
X912500D02*
D03*
X887100D02*
D03*
X912500Y541000D02*
D03*
X937900D02*
D03*
X963300D02*
D03*
X988700D02*
D03*
X1016250Y1137350D02*
D03*
Y1162750D02*
D03*
Y1188150D02*
D03*
X1291750Y525500D02*
D03*
X1266350D02*
D03*
X1240950D02*
D03*
X1537500Y1019600D02*
D03*
X1377800Y578500D02*
D03*
Y553100D02*
D03*
Y527700D02*
D03*
X1454000Y603900D02*
D03*
Y578500D02*
D03*
Y553100D02*
D03*
Y527700D02*
D03*
X1381610Y827420D02*
D03*
Y802020D02*
D03*
Y776620D02*
D03*
X1457810Y852820D02*
D03*
Y827420D02*
D03*
Y802020D02*
D03*
Y776620D02*
D03*
X1497330Y1019060D02*
D03*
X1102360D02*
D03*
X1497330Y1190510D02*
D03*
X1101090D02*
D03*
X850750Y1017050D02*
D03*
Y1042450D02*
D03*
Y1067850D02*
D03*
D79*
X921850Y881550D02*
D03*
X1085000Y784200D02*
D03*
X1016250Y1111950D02*
D03*
X1537500Y1045000D02*
D03*
X850750Y1093250D02*
D03*
D80*
X988700Y578500D02*
D03*
X887100Y541000D02*
D03*
X1317150Y525500D02*
D03*
X1377800Y603900D02*
D03*
X1381610Y852820D02*
D03*
D81*
X1528930Y857900D02*
D03*
X1578930D02*
D03*
X1526790Y608980D02*
D03*
X1576790D02*
D03*
D82*
X1765750Y1018625D02*
D03*
Y948375D02*
D03*
D83*
X1735750Y1007750D02*
D03*
Y959250D02*
D03*
D84*
X1240000Y919500D02*
D03*
X1228750Y919250D02*
D03*
X1217250D02*
D03*
X1538250Y825500D02*
D03*
X1523000Y825750D02*
D03*
X1566000D02*
D03*
X1553250Y825500D02*
D03*
X1547750Y576250D02*
D03*
X1517500D02*
D03*
X1532750Y576000D02*
D03*
X1560500Y576250D02*
D03*
X1053250Y940500D02*
D03*
Y948000D02*
D03*
Y955500D02*
D03*
Y963000D02*
D03*
Y970500D02*
D03*
X1256500Y946250D02*
D03*
X1205000Y937750D02*
D03*
X1522750Y946000D02*
D03*
X1702406Y983011D02*
D03*
X952750Y502250D02*
D03*
X898750Y1085500D02*
D03*
X1140750Y795250D02*
D03*
X971750Y590000D02*
D03*
X887750Y607000D02*
D03*
X982000Y598500D02*
D03*
X975750Y619500D02*
D03*
X995750Y606750D02*
D03*
X1045560Y718534D02*
D03*
X998750Y716250D02*
D03*
X1056250Y712500D02*
D03*
X1005250Y723000D02*
D03*
X931180Y606356D02*
D03*
X1004250Y765500D02*
D03*
X1039250Y750000D02*
D03*
X1010250Y655250D02*
D03*
X1192301Y754102D02*
D03*
X1010500Y642500D02*
D03*
X1072500Y688750D02*
D03*
X1010500Y629750D02*
D03*
X1054500Y697500D02*
D03*
X1052250Y607500D02*
D03*
X1052500Y750500D02*
D03*
X1130750Y597000D02*
D03*
X1179250Y585000D02*
D03*
X995750Y756500D02*
D03*
X1707915Y977862D02*
D03*
X1163750Y501500D02*
D03*
X1176000D02*
D03*
X1177250Y833750D02*
D03*
X1281802Y751302D02*
D03*
X1313759Y894539D02*
D03*
X1275750Y758000D02*
D03*
X1234000Y834500D02*
D03*
X1195500Y863500D02*
D03*
X1165500Y796500D02*
D03*
X968538Y881550D02*
D03*
X969000Y856250D02*
D03*
X968000Y831000D02*
D03*
X968750Y805250D02*
D03*
X968000Y779750D02*
D03*
X1476750Y672250D02*
D03*
X1484250D02*
D03*
X1491750D02*
D03*
X1499250D02*
D03*
Y664750D02*
D03*
X1491750D02*
D03*
X1484250D02*
D03*
X1476750D02*
D03*
Y657250D02*
D03*
X1484250D02*
D03*
X1491750D02*
D03*
X1499250D02*
D03*
X1477000Y920750D02*
D03*
X1484500D02*
D03*
X1492000D02*
D03*
X1499500D02*
D03*
Y913250D02*
D03*
X1492000D02*
D03*
X1484500D02*
D03*
X1477000D02*
D03*
Y905750D02*
D03*
X1484500D02*
D03*
X1492000D02*
D03*
X1499500D02*
D03*
X1349000Y572190D02*
D03*
X1342000Y805250D02*
D03*
X1720000Y997000D02*
D03*
D85*
X1172572Y914000D02*
D03*
M02*
