G04*
G04 #@! TF.GenerationSoftware,Altium Limited,Altium Designer,21.0.9 (235)*
G04*
G04 Layer_Color=8388736*
%FSLAX44Y44*%
%MOMM*%
G71*
G04*
G04 #@! TF.SameCoordinates,CE3AA561-A086-4A93-8341-45545DFCD4B5*
G04*
G04*
G04 #@! TF.FilePolarity,Negative*
G04*
G01*
G75*
%ADD23R,1.5000X3.2000*%
%ADD28R,1.3000X1.1000*%
%ADD29R,1.3000X0.9000*%
%ADD31R,1.2000X0.2032*%
%ADD32R,0.2032X1.2000*%
%ADD39R,99.5000X4.3250*%
%ADD40R,1.1032X1.0032*%
%ADD41R,1.5532X1.5532*%
%ADD42R,1.0032X1.1032*%
%ADD43R,4.2032X3.4532*%
%ADD44R,1.7032X2.7032*%
%ADD45R,1.0032X1.1032*%
%ADD46R,1.1032X1.0032*%
%ADD47R,1.1172X1.4222*%
%ADD48R,3.0000X3.0000*%
%ADD49R,1.8034X1.3716*%
%ADD50R,0.8032X1.8032*%
%ADD51R,5.2032X5.2032*%
%ADD52R,1.1032X2.2032*%
%ADD53R,2.2032X1.1032*%
%ADD54R,1.0032X1.0032*%
%ADD55C,1.0032*%
%ADD56O,1.7032X4.2032*%
%ADD57O,1.7032X3.7032*%
%ADD58O,3.7032X1.7032*%
%ADD59C,1.7532*%
%ADD60R,1.7532X1.7532*%
%ADD61R,1.7000X1.7000*%
%ADD62C,3.5000*%
%ADD63C,1.7032*%
%ADD64R,1.7032X1.7032*%
%ADD65R,1.7032X1.7032*%
%ADD66C,1.4032*%
%ADD67O,2.2032X1.5532*%
%ADD68O,1.4532X1.2532*%
%ADD69C,0.7032*%
G36*
X802690Y872204D02*
X802805Y872157D01*
X802990Y872088D01*
X803199Y872019D01*
X803453Y871926D01*
X803731Y871810D01*
X804055Y871695D01*
X804379Y871579D01*
X804749Y871440D01*
X805513Y871162D01*
X806299Y870885D01*
X807086Y870584D01*
X807109D01*
X807179Y870538D01*
X807294Y870515D01*
X807433Y870445D01*
X807618Y870376D01*
X807850Y870306D01*
X808081Y870191D01*
X808359Y870098D01*
X808960Y869867D01*
X809632Y869612D01*
X810326Y869334D01*
X811043Y869057D01*
X811066D01*
X811135Y869034D01*
X811228Y868987D01*
X811367Y868918D01*
X811529Y868872D01*
X811737Y868779D01*
X811945Y868687D01*
X812200Y868594D01*
X812732Y868363D01*
X813334Y868108D01*
X813959Y867853D01*
X814606Y867576D01*
X814630D01*
X814676Y867553D01*
X814768Y867506D01*
X814907Y867437D01*
X815046Y867391D01*
X815231Y867298D01*
X815440Y867206D01*
X815671Y867113D01*
X816180Y866882D01*
X816758Y866627D01*
X817383Y866349D01*
X818008Y866072D01*
Y864059D01*
X817985D01*
X817939Y864012D01*
X817846Y863989D01*
X817707Y863920D01*
X817568Y863850D01*
X817383Y863781D01*
X817175Y863688D01*
X816944Y863573D01*
X816434Y863364D01*
X815856Y863110D01*
X815254Y862832D01*
X814606Y862555D01*
X814583D01*
X814537Y862531D01*
X814445Y862485D01*
X814306Y862416D01*
X814167Y862370D01*
X813982Y862277D01*
X813773Y862184D01*
X813519Y862092D01*
X812987Y861860D01*
X812385Y861606D01*
X811737Y861351D01*
X811043Y861074D01*
X811020D01*
X810950Y861050D01*
X810858Y861004D01*
X810719Y860935D01*
X810534Y860889D01*
X810349Y860796D01*
X810117Y860703D01*
X809840Y860611D01*
X809562Y860495D01*
X809261Y860379D01*
X808590Y860125D01*
X807850Y859847D01*
X807086Y859570D01*
X807063D01*
X806994Y859523D01*
X806878Y859500D01*
X806716Y859431D01*
X806531Y859361D01*
X806299Y859269D01*
X806045Y859176D01*
X805744Y859061D01*
X805420Y858945D01*
X805073Y858806D01*
X804703Y858667D01*
X804309Y858505D01*
X803476Y858204D01*
X802574Y857857D01*
Y860241D01*
X802597D01*
X802620Y860264D01*
X802736Y860310D01*
X802944Y860379D01*
X803199Y860472D01*
X803476Y860588D01*
X803823Y860703D01*
X804518Y860958D01*
X804564Y860981D01*
X804680Y861004D01*
X804888Y861074D01*
X805142Y861166D01*
X805420Y861259D01*
X805767Y861398D01*
X806137Y861513D01*
X806508Y861652D01*
Y868594D01*
X802574Y870005D01*
Y872250D01*
X802597D01*
X802690Y872204D01*
D02*
G37*
G36*
X813797Y855867D02*
X813820Y855752D01*
X813866Y855613D01*
X813912Y855405D01*
X813982Y855127D01*
X814051Y854803D01*
X814120Y854433D01*
X814190Y854016D01*
Y853970D01*
X814213Y853901D01*
Y853808D01*
X814259Y853553D01*
X814306Y853229D01*
X814329Y852813D01*
X814375Y852350D01*
X814398Y851841D01*
Y851054D01*
X814375Y850800D01*
X814352Y850476D01*
X814306Y850106D01*
X814236Y849735D01*
X814144Y849342D01*
X814005Y848995D01*
X813982Y848949D01*
X813935Y848833D01*
X813843Y848671D01*
X813727Y848463D01*
X813565Y848231D01*
X813380Y848000D01*
X813149Y847745D01*
X812894Y847537D01*
X812871Y847514D01*
X812778Y847445D01*
X812617Y847352D01*
X812431Y847236D01*
X812177Y847097D01*
X811899Y846959D01*
X811575Y846843D01*
X811228Y846750D01*
X811182D01*
X811066Y846704D01*
X810858Y846681D01*
X810603Y846635D01*
X810279Y846588D01*
X809909Y846565D01*
X809516Y846519D01*
X809076D01*
X802574D01*
Y848602D01*
X808613D01*
X808636D01*
X808660D01*
X808799D01*
X808984D01*
X809238Y848625D01*
X809539Y848648D01*
X809840Y848671D01*
X810141Y848717D01*
X810441Y848764D01*
X810464D01*
X810580Y848787D01*
X810719Y848833D01*
X810881Y848879D01*
X811274Y849018D01*
X811483Y849134D01*
X811668Y849249D01*
X811691Y849273D01*
X811737Y849319D01*
X811830Y849388D01*
X811922Y849481D01*
X812038Y849596D01*
X812154Y849759D01*
X812246Y849921D01*
X812339Y850129D01*
Y850152D01*
X812385Y850221D01*
X812408Y850337D01*
X812455Y850499D01*
X812501Y850707D01*
X812524Y850939D01*
X812570Y851193D01*
Y851934D01*
X812547Y852211D01*
Y852327D01*
X812524Y852420D01*
X812501Y852651D01*
X812478Y852882D01*
Y852929D01*
X812455Y853067D01*
X812431Y853252D01*
X812408Y853461D01*
Y853507D01*
X812385Y853600D01*
X812362Y853715D01*
X812339Y853808D01*
X802574D01*
Y855890D01*
X813797D01*
Y855867D01*
D02*
G37*
G36*
X817753Y841151D02*
X814167D01*
Y836754D01*
X812431D01*
Y841151D01*
X807063D01*
X807017D01*
X806924D01*
X806762D01*
X806554Y841127D01*
X806322D01*
X806068Y841104D01*
X805837Y841081D01*
X805605Y841035D01*
X805582D01*
X805513Y841012D01*
X805420Y840965D01*
X805281Y840942D01*
X805004Y840804D01*
X804726Y840642D01*
X804703Y840618D01*
X804680Y840595D01*
X804541Y840456D01*
X804402Y840248D01*
X804263Y839970D01*
Y839947D01*
X804240Y839901D01*
X804217Y839809D01*
Y839693D01*
X804194Y839554D01*
X804171Y839392D01*
X804147Y839022D01*
Y838860D01*
X804171Y838698D01*
Y838490D01*
X804194Y838258D01*
X804240Y838004D01*
X804286Y837749D01*
X804356Y837518D01*
Y837495D01*
X804402Y837425D01*
X804425Y837333D01*
X804471Y837194D01*
X804564Y836939D01*
X804610Y836824D01*
X804657Y836731D01*
X802921Y836314D01*
Y836338D01*
X802898Y836384D01*
X802875Y836453D01*
X802829Y836569D01*
X802759Y836731D01*
X802713Y836916D01*
X802643Y837148D01*
X802551Y837425D01*
Y837471D01*
X802505Y837564D01*
X802481Y837726D01*
X802435Y837934D01*
X802389Y838212D01*
X802366Y838513D01*
X802319Y838837D01*
Y839392D01*
X802343Y839623D01*
X802366Y839901D01*
X802389Y840202D01*
X802458Y840526D01*
X802528Y840873D01*
X802620Y841174D01*
X802643Y841197D01*
X802666Y841290D01*
X802759Y841428D01*
X802852Y841613D01*
X802967Y841798D01*
X803129Y842007D01*
X803314Y842215D01*
X803523Y842400D01*
X803546Y842423D01*
X803638Y842470D01*
X803754Y842562D01*
X803939Y842655D01*
X804147Y842770D01*
X804402Y842863D01*
X804680Y842955D01*
X805004Y843048D01*
X805050D01*
X805166Y843071D01*
X805351Y843094D01*
X805582Y843141D01*
X805883Y843164D01*
X806230Y843210D01*
X806623Y843233D01*
X807040D01*
X817383D01*
X817753Y841151D01*
D02*
G37*
G36*
X808729Y834764D02*
X808868D01*
X809238Y834741D01*
X809655Y834672D01*
X810094Y834602D01*
X810557Y834486D01*
X810997Y834348D01*
X811020D01*
X811043Y834324D01*
X811182Y834255D01*
X811413Y834163D01*
X811668Y834024D01*
X811969Y833862D01*
X812292Y833653D01*
X812617Y833422D01*
X812917Y833167D01*
X812940Y833144D01*
X813033Y833029D01*
X813172Y832890D01*
X813357Y832682D01*
X813519Y832427D01*
X813727Y832149D01*
X813889Y831825D01*
X814051Y831478D01*
X814074Y831432D01*
X814120Y831316D01*
X814167Y831131D01*
X814259Y830877D01*
X814329Y830576D01*
X814375Y830252D01*
X814421Y829882D01*
X814445Y829511D01*
Y829280D01*
X814421Y829118D01*
X814398Y828933D01*
X814375Y828702D01*
X814329Y828447D01*
X814259Y828193D01*
X814074Y827614D01*
X813959Y827313D01*
X813820Y827012D01*
X813658Y826712D01*
X813449Y826434D01*
X813218Y826179D01*
X812964Y825925D01*
X812940Y825902D01*
X812894Y825879D01*
X812802Y825809D01*
X812686Y825740D01*
X812524Y825624D01*
X812339Y825531D01*
X812131Y825416D01*
X811853Y825300D01*
X811575Y825184D01*
X811228Y825069D01*
X810881Y824953D01*
X810464Y824861D01*
X810048Y824791D01*
X809562Y824722D01*
X809053Y824698D01*
X808521Y824675D01*
X808498D01*
X808428D01*
X808336D01*
X808174D01*
X808151D01*
X808058D01*
X807919D01*
X807803Y824698D01*
Y832635D01*
X807780D01*
X807734D01*
X807618Y832612D01*
X807503D01*
X807341Y832589D01*
X807179Y832543D01*
X806785Y832473D01*
X806322Y832335D01*
X805883Y832149D01*
X805443Y831918D01*
X805050Y831617D01*
X805004Y831571D01*
X804911Y831432D01*
X804749Y831224D01*
X804587Y830900D01*
X804425Y830507D01*
X804333Y830275D01*
X804263Y830021D01*
X804217Y829743D01*
X804171Y829419D01*
X804124Y829095D01*
Y828355D01*
X804147Y828100D01*
X804171Y827822D01*
X804194Y827522D01*
X804240Y827221D01*
X804309Y826920D01*
Y826897D01*
X804333Y826804D01*
X804379Y826665D01*
X804425Y826480D01*
X804541Y826110D01*
X804610Y825948D01*
X804680Y825786D01*
X802921Y825485D01*
Y825508D01*
X802898Y825555D01*
X802852Y825670D01*
X802805Y825809D01*
X802736Y825994D01*
X802666Y826226D01*
X802597Y826503D01*
X802528Y826827D01*
Y826874D01*
X802481Y826989D01*
X802458Y827198D01*
X802412Y827452D01*
X802366Y827776D01*
X802343Y828123D01*
X802296Y828540D01*
Y829234D01*
X802319Y829373D01*
Y829511D01*
X802343Y829859D01*
X802412Y830275D01*
X802481Y830715D01*
X802597Y831154D01*
X802736Y831594D01*
Y831617D01*
X802759Y831640D01*
X802829Y831779D01*
X802921Y831964D01*
X803060Y832219D01*
X803245Y832520D01*
X803453Y832821D01*
X803708Y833121D01*
X803986Y833399D01*
X804032Y833422D01*
X804124Y833515D01*
X804309Y833653D01*
X804541Y833792D01*
X804818Y833977D01*
X805142Y834139D01*
X805513Y834324D01*
X805906Y834463D01*
X805929D01*
X805952Y834486D01*
X806022D01*
X806091Y834510D01*
X806322Y834556D01*
X806623Y834625D01*
X806994Y834695D01*
X807410Y834741D01*
X807850Y834764D01*
X808336Y834787D01*
X808359D01*
X808405D01*
X808475D01*
X808590D01*
X808729Y834764D01*
D02*
G37*
G36*
X813797Y821667D02*
X813820Y821552D01*
X813866Y821413D01*
X813912Y821205D01*
X813982Y820927D01*
X814051Y820603D01*
X814120Y820233D01*
X814190Y819816D01*
Y819770D01*
X814213Y819700D01*
Y819608D01*
X814259Y819353D01*
X814306Y819029D01*
X814329Y818613D01*
X814375Y818150D01*
X814398Y817641D01*
Y816854D01*
X814375Y816600D01*
X814352Y816276D01*
X814306Y815906D01*
X814236Y815535D01*
X814144Y815142D01*
X814005Y814795D01*
X813982Y814749D01*
X813935Y814633D01*
X813843Y814471D01*
X813727Y814263D01*
X813565Y814031D01*
X813380Y813800D01*
X813149Y813545D01*
X812894Y813337D01*
X812871Y813314D01*
X812778Y813244D01*
X812617Y813152D01*
X812431Y813036D01*
X812177Y812897D01*
X811899Y812759D01*
X811575Y812643D01*
X811228Y812550D01*
X811182D01*
X811066Y812504D01*
X810858Y812481D01*
X810603Y812435D01*
X810279Y812388D01*
X809909Y812365D01*
X809516Y812319D01*
X809076D01*
X802574D01*
Y814401D01*
X808613D01*
X808636D01*
X808660D01*
X808799D01*
X808984D01*
X809238Y814425D01*
X809539Y814448D01*
X809840Y814471D01*
X810141Y814517D01*
X810441Y814564D01*
X810464D01*
X810580Y814587D01*
X810719Y814633D01*
X810881Y814679D01*
X811274Y814818D01*
X811483Y814934D01*
X811668Y815049D01*
X811691Y815072D01*
X811737Y815119D01*
X811830Y815188D01*
X811922Y815281D01*
X812038Y815396D01*
X812154Y815558D01*
X812246Y815720D01*
X812339Y815929D01*
Y815952D01*
X812385Y816021D01*
X812408Y816137D01*
X812455Y816299D01*
X812501Y816507D01*
X812524Y816739D01*
X812570Y816993D01*
Y817734D01*
X812547Y818011D01*
Y818127D01*
X812524Y818220D01*
X812501Y818451D01*
X812478Y818682D01*
Y818729D01*
X812455Y818867D01*
X812431Y819053D01*
X812408Y819261D01*
Y819307D01*
X812385Y819400D01*
X812362Y819515D01*
X812339Y819608D01*
X802574D01*
Y821690D01*
X813797D01*
Y821667D01*
D02*
G37*
G36*
X806346Y809704D02*
X806577Y809681D01*
X806832Y809635D01*
X807109Y809565D01*
X807387Y809473D01*
X807665Y809357D01*
X807688Y809334D01*
X807780Y809288D01*
X807896Y809195D01*
X808058Y809079D01*
X808243Y808917D01*
X808428Y808732D01*
X808613Y808524D01*
X808775Y808293D01*
X808799Y808270D01*
X808845Y808177D01*
X808914Y808038D01*
X809007Y807853D01*
X809122Y807622D01*
X809215Y807344D01*
X809307Y807066D01*
X809400Y806742D01*
Y806696D01*
X809423Y806580D01*
X809470Y806395D01*
X809516Y806164D01*
X809539Y805886D01*
X809585Y805562D01*
X809608Y805215D01*
Y804660D01*
X809585Y804452D01*
X809562Y804220D01*
Y804105D01*
X809539Y804012D01*
X809516Y803804D01*
X809470Y803572D01*
Y803526D01*
X809446Y803387D01*
X809423Y803225D01*
X809377Y803040D01*
Y802994D01*
X809354Y802901D01*
X809331Y802809D01*
X809307Y802716D01*
X809886D01*
X809909D01*
X809979D01*
X810071D01*
X810210Y802739D01*
X810349D01*
X810534Y802762D01*
X810904Y802832D01*
X810927D01*
X810997Y802855D01*
X811089Y802878D01*
X811205Y802924D01*
X811483Y803063D01*
X811783Y803248D01*
X811807Y803271D01*
X811853Y803295D01*
X811922Y803364D01*
X812015Y803457D01*
X812107Y803572D01*
X812223Y803688D01*
X812408Y804035D01*
X812431Y804058D01*
X812455Y804128D01*
X812501Y804243D01*
X812547Y804382D01*
X812593Y804567D01*
X812617Y804799D01*
X812663Y805053D01*
Y805701D01*
X812640Y805956D01*
X812617Y806233D01*
X812593Y806534D01*
X812547Y806835D01*
X812501Y807136D01*
Y807159D01*
X812478Y807251D01*
X812455Y807390D01*
X812408Y807575D01*
X812316Y807946D01*
X812269Y808131D01*
X812200Y808293D01*
X813912Y808524D01*
Y808501D01*
X813935Y808455D01*
X813982Y808339D01*
X814028Y808200D01*
X814074Y808038D01*
X814144Y807807D01*
X814190Y807529D01*
X814259Y807205D01*
Y807159D01*
X814283Y807043D01*
X814329Y806858D01*
X814352Y806603D01*
X814398Y806280D01*
X814421Y805956D01*
X814445Y805562D01*
Y804961D01*
X814421Y804729D01*
X814398Y804428D01*
X814375Y804105D01*
X814306Y803757D01*
X814236Y803410D01*
X814120Y803063D01*
X814097Y803017D01*
X814051Y802924D01*
X813982Y802762D01*
X813889Y802554D01*
X813750Y802346D01*
X813588Y802114D01*
X813403Y801883D01*
X813195Y801675D01*
X813172Y801652D01*
X813102Y801582D01*
X812964Y801490D01*
X812802Y801374D01*
X812593Y801258D01*
X812362Y801120D01*
X812084Y801004D01*
X811783Y800911D01*
X811737D01*
X811645Y800865D01*
X811483Y800842D01*
X811251Y800796D01*
X810997Y800749D01*
X810696Y800726D01*
X810349Y800680D01*
X810002D01*
X802759D01*
Y800726D01*
X802736Y800796D01*
Y800888D01*
X802690Y801120D01*
X802643Y801443D01*
Y801536D01*
X802620Y801628D01*
X802597Y801767D01*
X802574Y801929D01*
X802551Y802114D01*
X802505Y802531D01*
Y802647D01*
X802481Y802762D01*
X802458Y802924D01*
X802435Y803110D01*
Y803341D01*
X802389Y803850D01*
Y803966D01*
X802366Y804105D01*
Y804290D01*
X802343Y804498D01*
Y804729D01*
X802319Y805215D01*
Y805377D01*
X802343Y805562D01*
Y805817D01*
X802366Y806095D01*
X802412Y806395D01*
X802528Y807043D01*
Y807089D01*
X802574Y807182D01*
X802620Y807321D01*
X802666Y807529D01*
X802759Y807737D01*
X802852Y807992D01*
X803129Y808478D01*
X803152Y808501D01*
X803199Y808570D01*
X803314Y808686D01*
X803430Y808825D01*
X803615Y808964D01*
X803800Y809126D01*
X804032Y809265D01*
X804286Y809403D01*
X804309Y809426D01*
X804425Y809450D01*
X804564Y809496D01*
X804772Y809565D01*
X805027Y809635D01*
X805304Y809681D01*
X805651Y809704D01*
X805999Y809727D01*
X806045D01*
X806161D01*
X806346Y809704D01*
D02*
G37*
G36*
X817776Y791933D02*
X817823Y791817D01*
X817846Y791632D01*
X817892Y791378D01*
X817962Y791077D01*
X818008Y790730D01*
X818054Y790360D01*
X818077Y789943D01*
Y789897D01*
X818101Y789758D01*
Y789527D01*
X818124Y789249D01*
X818147Y788948D01*
Y788601D01*
X818170Y787884D01*
Y787560D01*
X818147Y787352D01*
X818124Y787074D01*
X818101Y786750D01*
X818077Y786403D01*
X818008Y786033D01*
X817869Y785246D01*
X817661Y784413D01*
X817522Y783996D01*
X817360Y783603D01*
X817152Y783256D01*
X816944Y782909D01*
X816920Y782886D01*
X816897Y782839D01*
X816805Y782747D01*
X816712Y782631D01*
X816596Y782515D01*
X816434Y782377D01*
X816249Y782215D01*
X816018Y782053D01*
X815787Y781891D01*
X815509Y781729D01*
X815208Y781590D01*
X814884Y781474D01*
X814537Y781358D01*
X814144Y781266D01*
X813727Y781220D01*
X813288Y781197D01*
X813264D01*
X813218D01*
X813149D01*
X813033Y781220D01*
X812894D01*
X812732Y781243D01*
X812385Y781289D01*
X811969Y781405D01*
X811529Y781544D01*
X811066Y781752D01*
X810650Y782029D01*
X810627D01*
X810603Y782076D01*
X810464Y782168D01*
X810279Y782377D01*
X810048Y782631D01*
X809770Y782955D01*
X809516Y783372D01*
X809261Y783857D01*
X809030Y784413D01*
X809007Y784390D01*
X808960Y784343D01*
X808845Y784274D01*
X808729Y784181D01*
X808544Y784043D01*
X808359Y783904D01*
X808104Y783719D01*
X807850Y783533D01*
X807827Y783510D01*
X807734Y783441D01*
X807572Y783325D01*
X807387Y783186D01*
X807156Y783001D01*
X806878Y782816D01*
X806577Y782608D01*
X806253Y782400D01*
X806207Y782377D01*
X806091Y782307D01*
X805929Y782191D01*
X805698Y782029D01*
X805420Y781868D01*
X805096Y781659D01*
X804772Y781451D01*
X804402Y781243D01*
X804356Y781220D01*
X804240Y781150D01*
X804055Y781034D01*
X803823Y780896D01*
X803546Y780757D01*
X803222Y780595D01*
X802574Y780271D01*
Y782631D01*
X802620Y782654D01*
X802713Y782701D01*
X802875Y782816D01*
X803106Y782932D01*
X803361Y783071D01*
X803638Y783256D01*
X804263Y783626D01*
X804309Y783649D01*
X804425Y783719D01*
X804587Y783811D01*
X804795Y783950D01*
X805050Y784112D01*
X805328Y784274D01*
X805929Y784667D01*
X805975Y784690D01*
X806068Y784760D01*
X806230Y784853D01*
X806415Y784991D01*
X806646Y785153D01*
X806901Y785338D01*
X807410Y785732D01*
X807433Y785755D01*
X807526Y785824D01*
X807665Y785917D01*
X807827Y786033D01*
X808012Y786171D01*
X808220Y786333D01*
X808613Y786657D01*
Y789827D01*
X802574D01*
Y791979D01*
X817776D01*
Y791933D01*
D02*
G37*
G36*
X808845Y778720D02*
X809169Y778697D01*
X809562Y778651D01*
X809979Y778582D01*
X810395Y778489D01*
X810835Y778350D01*
X810858D01*
X810881Y778327D01*
X811020Y778281D01*
X811228Y778188D01*
X811506Y778073D01*
X811807Y777911D01*
X812131Y777726D01*
X812455Y777494D01*
X812755Y777240D01*
X812802Y777216D01*
X812894Y777101D01*
X813033Y776962D01*
X813218Y776754D01*
X813426Y776499D01*
X813635Y776198D01*
X813820Y775874D01*
X814005Y775504D01*
Y775481D01*
X814028Y775458D01*
X814074Y775319D01*
X814144Y775134D01*
X814236Y774856D01*
X814306Y774532D01*
X814375Y774162D01*
X814421Y773746D01*
X814445Y773306D01*
Y773098D01*
X814421Y772889D01*
X814398Y772589D01*
X814329Y772265D01*
X814259Y771894D01*
X814144Y771501D01*
X814005Y771131D01*
Y771108D01*
X813982Y771085D01*
X813935Y770969D01*
X813820Y770784D01*
X813681Y770552D01*
X813496Y770275D01*
X813288Y769997D01*
X813033Y769696D01*
X812755Y769418D01*
X812709Y769395D01*
X812617Y769303D01*
X812455Y769164D01*
X812223Y769002D01*
X811945Y768817D01*
X811621Y768632D01*
X811251Y768447D01*
X810835Y768285D01*
X810812D01*
X810788Y768261D01*
X810719Y768238D01*
X810627Y768215D01*
X810395Y768146D01*
X810094Y768076D01*
X809724Y768007D01*
X809307Y767938D01*
X808845Y767891D01*
X808359Y767868D01*
X808336D01*
X808289D01*
X808220D01*
X808127D01*
X807850Y767891D01*
X807526Y767914D01*
X807132Y767961D01*
X806716Y768053D01*
X806276Y768146D01*
X805837Y768285D01*
X805814D01*
X805790Y768308D01*
X805651Y768354D01*
X805443Y768447D01*
X805189Y768562D01*
X804888Y768724D01*
X804564Y768933D01*
X804240Y769164D01*
X803916Y769418D01*
X803893Y769442D01*
X803777Y769534D01*
X803638Y769696D01*
X803476Y769904D01*
X803268Y770159D01*
X803060Y770437D01*
X802875Y770761D01*
X802690Y771131D01*
X802666Y771177D01*
X802620Y771293D01*
X802551Y771501D01*
X802481Y771779D01*
X802412Y772103D01*
X802343Y772473D01*
X802296Y772866D01*
X802273Y773306D01*
Y773514D01*
X802296Y773746D01*
X802319Y774023D01*
X802366Y774370D01*
X802458Y774741D01*
X802551Y775134D01*
X802690Y775504D01*
X802713Y775550D01*
X802782Y775666D01*
X802875Y775851D01*
X803014Y776083D01*
X803176Y776360D01*
X803384Y776661D01*
X803638Y776962D01*
X803916Y777240D01*
X803962Y777263D01*
X804055Y777355D01*
X804240Y777494D01*
X804471Y777656D01*
X804749Y777818D01*
X805073Y778003D01*
X805443Y778188D01*
X805837Y778350D01*
X805860D01*
X805883Y778373D01*
X805952Y778397D01*
X806045Y778420D01*
X806276Y778466D01*
X806577Y778535D01*
X806947Y778628D01*
X807387Y778674D01*
X807850Y778720D01*
X808359Y778744D01*
X808382D01*
X808428D01*
X808498D01*
X808590D01*
X808845Y778720D01*
D02*
G37*
G36*
X817753Y763009D02*
X814167D01*
Y758612D01*
X812431D01*
Y763009D01*
X807063D01*
X807017D01*
X806924D01*
X806762D01*
X806554Y762986D01*
X806322D01*
X806068Y762963D01*
X805837Y762940D01*
X805605Y762893D01*
X805582D01*
X805513Y762870D01*
X805420Y762824D01*
X805281Y762801D01*
X805004Y762662D01*
X804726Y762500D01*
X804703Y762477D01*
X804680Y762454D01*
X804541Y762315D01*
X804402Y762106D01*
X804263Y761829D01*
Y761806D01*
X804240Y761759D01*
X804217Y761667D01*
Y761551D01*
X804194Y761412D01*
X804171Y761250D01*
X804147Y760880D01*
Y760718D01*
X804171Y760556D01*
Y760348D01*
X804194Y760117D01*
X804240Y759862D01*
X804286Y759607D01*
X804356Y759376D01*
Y759353D01*
X804402Y759283D01*
X804425Y759191D01*
X804471Y759052D01*
X804564Y758798D01*
X804610Y758682D01*
X804657Y758589D01*
X802921Y758173D01*
Y758196D01*
X802898Y758242D01*
X802875Y758312D01*
X802829Y758427D01*
X802759Y758589D01*
X802713Y758774D01*
X802643Y759006D01*
X802551Y759283D01*
Y759330D01*
X802505Y759422D01*
X802481Y759584D01*
X802435Y759792D01*
X802389Y760070D01*
X802366Y760371D01*
X802319Y760695D01*
Y761250D01*
X802343Y761482D01*
X802366Y761759D01*
X802389Y762060D01*
X802458Y762384D01*
X802528Y762731D01*
X802620Y763032D01*
X802643Y763055D01*
X802666Y763148D01*
X802759Y763287D01*
X802852Y763472D01*
X802967Y763657D01*
X803129Y763865D01*
X803314Y764073D01*
X803523Y764258D01*
X803546Y764282D01*
X803638Y764328D01*
X803754Y764420D01*
X803939Y764513D01*
X804147Y764629D01*
X804402Y764721D01*
X804680Y764814D01*
X805004Y764906D01*
X805050D01*
X805166Y764930D01*
X805351Y764953D01*
X805582Y764999D01*
X805883Y765022D01*
X806230Y765068D01*
X806623Y765091D01*
X807040D01*
X817383D01*
X817753Y763009D01*
D02*
G37*
G36*
X806346Y756807D02*
X806577Y756784D01*
X806832Y756738D01*
X807109Y756669D01*
X807387Y756576D01*
X807665Y756460D01*
X807688Y756437D01*
X807780Y756391D01*
X807896Y756299D01*
X808058Y756183D01*
X808243Y756021D01*
X808428Y755836D01*
X808613Y755627D01*
X808775Y755396D01*
X808799Y755373D01*
X808845Y755280D01*
X808914Y755142D01*
X809007Y754956D01*
X809122Y754725D01*
X809215Y754447D01*
X809307Y754170D01*
X809400Y753846D01*
Y753799D01*
X809423Y753684D01*
X809470Y753499D01*
X809516Y753267D01*
X809539Y752990D01*
X809585Y752666D01*
X809608Y752318D01*
Y751763D01*
X809585Y751555D01*
X809562Y751323D01*
Y751208D01*
X809539Y751115D01*
X809516Y750907D01*
X809470Y750676D01*
Y750629D01*
X809446Y750490D01*
X809423Y750329D01*
X809377Y750143D01*
Y750097D01*
X809354Y750005D01*
X809331Y749912D01*
X809307Y749819D01*
X809886D01*
X809909D01*
X809979D01*
X810071D01*
X810210Y749843D01*
X810349D01*
X810534Y749866D01*
X810904Y749935D01*
X810927D01*
X810997Y749958D01*
X811089Y749981D01*
X811205Y750028D01*
X811483Y750166D01*
X811783Y750352D01*
X811807Y750375D01*
X811853Y750398D01*
X811922Y750467D01*
X812015Y750560D01*
X812107Y750676D01*
X812223Y750791D01*
X812408Y751138D01*
X812431Y751161D01*
X812455Y751231D01*
X812501Y751347D01*
X812547Y751486D01*
X812593Y751671D01*
X812617Y751902D01*
X812663Y752157D01*
Y752804D01*
X812640Y753059D01*
X812617Y753337D01*
X812593Y753637D01*
X812547Y753938D01*
X812501Y754239D01*
Y754262D01*
X812478Y754355D01*
X812455Y754494D01*
X812408Y754679D01*
X812316Y755049D01*
X812269Y755234D01*
X812200Y755396D01*
X813912Y755627D01*
Y755604D01*
X813935Y755558D01*
X813982Y755442D01*
X814028Y755303D01*
X814074Y755142D01*
X814144Y754910D01*
X814190Y754632D01*
X814259Y754308D01*
Y754262D01*
X814283Y754146D01*
X814329Y753961D01*
X814352Y753707D01*
X814398Y753383D01*
X814421Y753059D01*
X814445Y752666D01*
Y752064D01*
X814421Y751833D01*
X814398Y751532D01*
X814375Y751208D01*
X814306Y750861D01*
X814236Y750514D01*
X814120Y750166D01*
X814097Y750120D01*
X814051Y750028D01*
X813982Y749866D01*
X813889Y749658D01*
X813750Y749449D01*
X813588Y749218D01*
X813403Y748986D01*
X813195Y748778D01*
X813172Y748755D01*
X813102Y748686D01*
X812964Y748593D01*
X812802Y748477D01*
X812593Y748362D01*
X812362Y748223D01*
X812084Y748107D01*
X811783Y748015D01*
X811737D01*
X811645Y747968D01*
X811483Y747945D01*
X811251Y747899D01*
X810997Y747853D01*
X810696Y747829D01*
X810349Y747783D01*
X810002D01*
X802759D01*
Y747829D01*
X802736Y747899D01*
Y747991D01*
X802690Y748223D01*
X802643Y748547D01*
Y748639D01*
X802620Y748732D01*
X802597Y748871D01*
X802574Y749033D01*
X802551Y749218D01*
X802505Y749634D01*
Y749750D01*
X802481Y749866D01*
X802458Y750028D01*
X802435Y750213D01*
Y750444D01*
X802389Y750953D01*
Y751069D01*
X802366Y751208D01*
Y751393D01*
X802343Y751601D01*
Y751833D01*
X802319Y752318D01*
Y752480D01*
X802343Y752666D01*
Y752920D01*
X802366Y753198D01*
X802412Y753499D01*
X802528Y754146D01*
Y754193D01*
X802574Y754285D01*
X802620Y754424D01*
X802666Y754632D01*
X802759Y754841D01*
X802852Y755095D01*
X803129Y755581D01*
X803152Y755604D01*
X803199Y755674D01*
X803314Y755789D01*
X803430Y755928D01*
X803615Y756067D01*
X803800Y756229D01*
X804032Y756368D01*
X804286Y756507D01*
X804309Y756530D01*
X804425Y756553D01*
X804564Y756599D01*
X804772Y756669D01*
X805027Y756738D01*
X805304Y756784D01*
X805651Y756807D01*
X805999Y756831D01*
X806045D01*
X806161D01*
X806346Y756807D01*
D02*
G37*
G36*
X817753Y742415D02*
X814167D01*
Y738018D01*
X812431D01*
Y742415D01*
X807063D01*
X807017D01*
X806924D01*
X806762D01*
X806554Y742392D01*
X806322D01*
X806068Y742368D01*
X805837Y742345D01*
X805605Y742299D01*
X805582D01*
X805513Y742276D01*
X805420Y742230D01*
X805281Y742207D01*
X805004Y742068D01*
X804726Y741906D01*
X804703Y741883D01*
X804680Y741860D01*
X804541Y741721D01*
X804402Y741512D01*
X804263Y741235D01*
Y741212D01*
X804240Y741165D01*
X804217Y741073D01*
Y740957D01*
X804194Y740818D01*
X804171Y740656D01*
X804147Y740286D01*
Y740124D01*
X804171Y739962D01*
Y739754D01*
X804194Y739522D01*
X804240Y739268D01*
X804286Y739013D01*
X804356Y738782D01*
Y738759D01*
X804402Y738689D01*
X804425Y738597D01*
X804471Y738458D01*
X804564Y738204D01*
X804610Y738088D01*
X804657Y737995D01*
X802921Y737579D01*
Y737602D01*
X802898Y737648D01*
X802875Y737718D01*
X802829Y737833D01*
X802759Y737995D01*
X802713Y738180D01*
X802643Y738412D01*
X802551Y738689D01*
Y738736D01*
X802505Y738828D01*
X802481Y738990D01*
X802435Y739198D01*
X802389Y739476D01*
X802366Y739777D01*
X802319Y740101D01*
Y740656D01*
X802343Y740888D01*
X802366Y741165D01*
X802389Y741466D01*
X802458Y741790D01*
X802528Y742137D01*
X802620Y742438D01*
X802643Y742461D01*
X802666Y742554D01*
X802759Y742692D01*
X802852Y742878D01*
X802967Y743063D01*
X803129Y743271D01*
X803314Y743479D01*
X803523Y743664D01*
X803546Y743688D01*
X803638Y743734D01*
X803754Y743826D01*
X803939Y743919D01*
X804147Y744035D01*
X804402Y744127D01*
X804680Y744220D01*
X805004Y744312D01*
X805050D01*
X805166Y744335D01*
X805351Y744359D01*
X805582Y744405D01*
X805883Y744428D01*
X806230Y744474D01*
X806623Y744497D01*
X807040D01*
X817383D01*
X817753Y742415D01*
D02*
G37*
G36*
X808845Y736028D02*
X809169Y736005D01*
X809562Y735959D01*
X809979Y735890D01*
X810395Y735797D01*
X810835Y735658D01*
X810858D01*
X810881Y735635D01*
X811020Y735589D01*
X811228Y735496D01*
X811506Y735380D01*
X811807Y735219D01*
X812131Y735033D01*
X812455Y734802D01*
X812755Y734547D01*
X812802Y734524D01*
X812894Y734409D01*
X813033Y734270D01*
X813218Y734062D01*
X813426Y733807D01*
X813635Y733506D01*
X813820Y733182D01*
X814005Y732812D01*
Y732789D01*
X814028Y732766D01*
X814074Y732627D01*
X814144Y732442D01*
X814236Y732164D01*
X814306Y731840D01*
X814375Y731470D01*
X814421Y731053D01*
X814445Y730614D01*
Y730406D01*
X814421Y730197D01*
X814398Y729896D01*
X814329Y729573D01*
X814259Y729202D01*
X814144Y728809D01*
X814005Y728439D01*
Y728416D01*
X813982Y728392D01*
X813935Y728277D01*
X813820Y728092D01*
X813681Y727860D01*
X813496Y727582D01*
X813288Y727305D01*
X813033Y727004D01*
X812755Y726726D01*
X812709Y726703D01*
X812617Y726611D01*
X812455Y726472D01*
X812223Y726310D01*
X811945Y726125D01*
X811621Y725940D01*
X811251Y725754D01*
X810835Y725592D01*
X810812D01*
X810788Y725569D01*
X810719Y725546D01*
X810627Y725523D01*
X810395Y725454D01*
X810094Y725384D01*
X809724Y725315D01*
X809307Y725245D01*
X808845Y725199D01*
X808359Y725176D01*
X808336D01*
X808289D01*
X808220D01*
X808127D01*
X807850Y725199D01*
X807526Y725222D01*
X807132Y725268D01*
X806716Y725361D01*
X806276Y725454D01*
X805837Y725592D01*
X805814D01*
X805790Y725616D01*
X805651Y725662D01*
X805443Y725754D01*
X805189Y725870D01*
X804888Y726032D01*
X804564Y726240D01*
X804240Y726472D01*
X803916Y726726D01*
X803893Y726749D01*
X803777Y726842D01*
X803638Y727004D01*
X803476Y727212D01*
X803268Y727467D01*
X803060Y727744D01*
X802875Y728068D01*
X802690Y728439D01*
X802666Y728485D01*
X802620Y728601D01*
X802551Y728809D01*
X802481Y729087D01*
X802412Y729410D01*
X802343Y729781D01*
X802296Y730174D01*
X802273Y730614D01*
Y730822D01*
X802296Y731053D01*
X802319Y731331D01*
X802366Y731678D01*
X802458Y732048D01*
X802551Y732442D01*
X802690Y732812D01*
X802713Y732858D01*
X802782Y732974D01*
X802875Y733159D01*
X803014Y733391D01*
X803176Y733668D01*
X803384Y733969D01*
X803638Y734270D01*
X803916Y734547D01*
X803962Y734571D01*
X804055Y734663D01*
X804240Y734802D01*
X804471Y734964D01*
X804749Y735126D01*
X805073Y735311D01*
X805443Y735496D01*
X805837Y735658D01*
X805860D01*
X805883Y735681D01*
X805952Y735704D01*
X806045Y735727D01*
X806276Y735774D01*
X806577Y735843D01*
X806947Y735936D01*
X807387Y735982D01*
X807850Y736028D01*
X808359Y736051D01*
X808382D01*
X808428D01*
X808498D01*
X808590D01*
X808845Y736028D01*
D02*
G37*
G36*
X813681Y722237D02*
X813704Y722122D01*
X813750Y721983D01*
X813820Y721775D01*
X813889Y721497D01*
X813982Y721196D01*
X814051Y720849D01*
X814144Y720455D01*
Y720432D01*
X814167Y720409D01*
Y720340D01*
X814190Y720270D01*
X814236Y720039D01*
X814283Y719738D01*
X814329Y719368D01*
X814352Y718951D01*
X814398Y718489D01*
Y717818D01*
X814375Y717633D01*
X814352Y717378D01*
Y717239D01*
X814329Y717170D01*
X814306Y716938D01*
X814259Y716707D01*
Y716637D01*
X814236Y716499D01*
X814190Y716290D01*
X814144Y716082D01*
Y716036D01*
X814120Y715920D01*
X814097Y715781D01*
X814051Y715666D01*
X812246Y716036D01*
X812269Y716082D01*
X812292Y716128D01*
X812316Y716221D01*
X812339Y716337D01*
X812385Y716476D01*
X812408Y716637D01*
X812455Y716846D01*
Y716869D01*
X812478Y716938D01*
X812501Y717077D01*
X812524Y717239D01*
X812547Y717447D01*
X812570Y717702D01*
X812593Y717980D01*
Y718512D01*
X812570Y718674D01*
Y718836D01*
X812547Y719044D01*
X812455Y719461D01*
Y719484D01*
X812431Y719553D01*
X812408Y719646D01*
X812385Y719761D01*
X812339Y719993D01*
X812316Y720108D01*
X812292Y720178D01*
X802574D01*
Y722260D01*
X813658D01*
X813681Y722237D01*
D02*
G37*
G36*
X818008Y707683D02*
X817962Y707659D01*
X817846Y707636D01*
X817661Y707567D01*
X817406Y707474D01*
X817082Y707359D01*
X816712Y707243D01*
X816296Y707104D01*
X815833Y706942D01*
X815324Y706757D01*
X814792Y706572D01*
X814236Y706387D01*
X813658Y706179D01*
X812455Y705762D01*
X811228Y705322D01*
X811182Y705299D01*
X811089Y705276D01*
X810904Y705207D01*
X810673Y705114D01*
X810395Y705022D01*
X810048Y704883D01*
X809678Y704744D01*
X809261Y704582D01*
X808799Y704420D01*
X808313Y704235D01*
X807294Y703818D01*
X806207Y703402D01*
X805119Y702939D01*
X805142Y702916D01*
X805258Y702893D01*
X805397Y702823D01*
X805605Y702731D01*
X805883Y702615D01*
X806184Y702499D01*
X806554Y702337D01*
X806947Y702175D01*
X807387Y702013D01*
X807850Y701828D01*
X808359Y701620D01*
X808891Y701412D01*
X809446Y701204D01*
X810025Y700995D01*
X811205Y700556D01*
X811251Y700533D01*
X811344Y700509D01*
X811529Y700440D01*
X811760Y700347D01*
X812061Y700255D01*
X812431Y700116D01*
X812825Y699977D01*
X813288Y699838D01*
X813773Y699653D01*
X814306Y699468D01*
X814861Y699283D01*
X815463Y699075D01*
X816064Y698867D01*
X816689Y698658D01*
X818008Y698219D01*
Y695882D01*
X817985D01*
X817892Y695928D01*
X817776Y695974D01*
X817591Y696020D01*
X817383Y696113D01*
X817129Y696182D01*
X816828Y696298D01*
X816527Y696414D01*
X816180Y696529D01*
X815833Y696668D01*
X815069Y696946D01*
X814259Y697224D01*
X813473Y697524D01*
X813449D01*
X813380Y697548D01*
X813264Y697594D01*
X813126Y697663D01*
X812940Y697733D01*
X812709Y697802D01*
X812478Y697895D01*
X812200Y697987D01*
X811598Y698219D01*
X810927Y698473D01*
X810233Y698751D01*
X809516Y699028D01*
X809493D01*
X809423Y699052D01*
X809331Y699098D01*
X809192Y699144D01*
X809030Y699214D01*
X808845Y699283D01*
X808613Y699376D01*
X808359Y699468D01*
X807827Y699699D01*
X807202Y699954D01*
X806577Y700209D01*
X805929Y700486D01*
X805906D01*
X805860Y700509D01*
X805767Y700556D01*
X805651Y700602D01*
X805490Y700671D01*
X805304Y700741D01*
X805096Y700833D01*
X804888Y700926D01*
X804379Y701157D01*
X803800Y701412D01*
X803199Y701666D01*
X802574Y701944D01*
Y703980D01*
X802597D01*
X802643Y704003D01*
X802736Y704050D01*
X802852Y704119D01*
X803014Y704189D01*
X803199Y704258D01*
X803384Y704351D01*
X803615Y704443D01*
X804124Y704675D01*
X804703Y704929D01*
X805304Y705207D01*
X805929Y705484D01*
X805952D01*
X805999Y705508D01*
X806091Y705554D01*
X806230Y705600D01*
X806392Y705669D01*
X806577Y705739D01*
X806785Y705831D01*
X807017Y705924D01*
X807549Y706155D01*
X808174Y706410D01*
X808822Y706664D01*
X809516Y706942D01*
X809539D01*
X809608Y706965D01*
X809701Y707011D01*
X809840Y707058D01*
X810025Y707127D01*
X810210Y707220D01*
X810464Y707312D01*
X810719Y707405D01*
X810997Y707521D01*
X811298Y707636D01*
X811969Y707891D01*
X812709Y708168D01*
X813473Y708469D01*
X813496D01*
X813565Y708493D01*
X813681Y708539D01*
X813843Y708608D01*
X814028Y708678D01*
X814259Y708770D01*
X814537Y708863D01*
X814815Y708955D01*
X815139Y709071D01*
X815486Y709210D01*
X815879Y709325D01*
X816273Y709464D01*
X817105Y709765D01*
X818008Y710066D01*
Y707683D01*
D02*
G37*
G36*
X810950Y694539D02*
X811274Y694516D01*
X811645Y694493D01*
X812061Y694447D01*
X812501Y694401D01*
X812987Y694308D01*
X813473Y694239D01*
X813959Y694123D01*
X814468Y693984D01*
X814954Y693822D01*
X815416Y693637D01*
X815856Y693429D01*
X816273Y693197D01*
X816296Y693174D01*
X816365Y693128D01*
X816458Y693058D01*
X816596Y692943D01*
X816758Y692804D01*
X816944Y692642D01*
X817129Y692434D01*
X817337Y692202D01*
X817522Y691948D01*
X817707Y691670D01*
X817892Y691369D01*
X818054Y691022D01*
X818193Y690652D01*
X818286Y690259D01*
X818355Y689842D01*
X818378Y689402D01*
Y689287D01*
X818355Y689171D01*
Y689009D01*
X818309Y688801D01*
X818262Y688569D01*
X818193Y688292D01*
X818124Y688014D01*
X818008Y687713D01*
X817869Y687412D01*
X817684Y687088D01*
X817499Y686765D01*
X817244Y686464D01*
X816967Y686163D01*
X816643Y685885D01*
X816273Y685608D01*
X816249Y685584D01*
X816180Y685538D01*
X816064Y685469D01*
X815879Y685399D01*
X815671Y685284D01*
X815416Y685168D01*
X815092Y685052D01*
X814745Y684913D01*
X814352Y684775D01*
X813889Y684659D01*
X813403Y684543D01*
X812871Y684427D01*
X812292Y684358D01*
X811668Y684289D01*
X811020Y684242D01*
X810303Y684219D01*
X810256D01*
X810141D01*
X809932D01*
X809655Y684242D01*
X809331Y684266D01*
X808960Y684289D01*
X808544Y684335D01*
X808104Y684381D01*
X807618Y684474D01*
X807132Y684566D01*
X806646Y684659D01*
X806137Y684798D01*
X805651Y684960D01*
X805189Y685145D01*
X804749Y685353D01*
X804333Y685608D01*
X804309Y685631D01*
X804240Y685677D01*
X804147Y685746D01*
X804009Y685862D01*
X803847Y686001D01*
X803685Y686163D01*
X803476Y686371D01*
X803291Y686603D01*
X803106Y686857D01*
X802921Y687135D01*
X802736Y687436D01*
X802574Y687783D01*
X802435Y688153D01*
X802343Y688546D01*
X802273Y688963D01*
X802250Y689402D01*
Y689518D01*
X802273Y689634D01*
Y689796D01*
X802319Y690004D01*
X802366Y690236D01*
X802435Y690513D01*
X802505Y690791D01*
X802620Y691092D01*
X802759Y691392D01*
X802921Y691716D01*
X803129Y692017D01*
X803361Y692341D01*
X803638Y692642D01*
X803962Y692920D01*
X804333Y693197D01*
X804356Y693221D01*
X804425Y693267D01*
X804541Y693313D01*
X804726Y693406D01*
X804934Y693521D01*
X805189Y693637D01*
X805513Y693753D01*
X805860Y693868D01*
X806253Y694007D01*
X806716Y694123D01*
X807202Y694239D01*
X807734Y694354D01*
X808313Y694447D01*
X808937Y694493D01*
X809585Y694539D01*
X810303Y694563D01*
X810349D01*
X810464D01*
X810673D01*
X810950Y694539D01*
D02*
G37*
G36*
X803962Y681836D02*
X804101Y681813D01*
X804263Y681767D01*
X804448Y681697D01*
X804633Y681605D01*
X804795Y681466D01*
X804818Y681442D01*
X804865Y681396D01*
X804934Y681304D01*
X805027Y681188D01*
X805119Y681026D01*
X805189Y680841D01*
X805235Y680633D01*
X805258Y680378D01*
Y680262D01*
X805235Y680147D01*
X805212Y679985D01*
X805142Y679800D01*
X805073Y679614D01*
X804957Y679453D01*
X804795Y679290D01*
X804772Y679267D01*
X804726Y679221D01*
X804633Y679152D01*
X804494Y679082D01*
X804356Y679013D01*
X804171Y678943D01*
X803962Y678897D01*
X803754Y678874D01*
X803731D01*
X803661D01*
X803546Y678897D01*
X803407Y678920D01*
X803245Y678967D01*
X803060Y679059D01*
X802875Y679152D01*
X802713Y679290D01*
X802690Y679314D01*
X802643Y679360D01*
X802574Y679453D01*
X802505Y679568D01*
X802412Y679730D01*
X802343Y679915D01*
X802296Y680124D01*
X802273Y680378D01*
Y680494D01*
X802296Y680610D01*
X802319Y680771D01*
X802389Y680957D01*
X802458Y681119D01*
X802574Y681304D01*
X802713Y681466D01*
X802736Y681489D01*
X802782Y681535D01*
X802875Y681581D01*
X803014Y681651D01*
X803152Y681743D01*
X803338Y681790D01*
X803546Y681836D01*
X803754Y681859D01*
X803777D01*
X803847D01*
X803962Y681836D01*
D02*
G37*
G36*
X814815Y675519D02*
X814838Y675496D01*
X814861Y675426D01*
X814907Y675334D01*
X815000Y675079D01*
X815162Y674755D01*
X815324Y674385D01*
X815555Y673969D01*
X815787Y673529D01*
X816064Y673089D01*
Y673066D01*
X816111Y673043D01*
X816134Y672973D01*
X816203Y672881D01*
X816365Y672650D01*
X816596Y672349D01*
X816874Y672025D01*
X817198Y671655D01*
X817591Y671261D01*
X818008Y670868D01*
Y669387D01*
X802574D01*
Y671469D01*
X815116D01*
Y671493D01*
X815069Y671516D01*
X814977Y671655D01*
X814815Y671863D01*
X814606Y672141D01*
Y672164D01*
X814560Y672210D01*
X814514Y672279D01*
X814445Y672395D01*
X814283Y672673D01*
X814097Y672997D01*
Y673020D01*
X814051Y673066D01*
X814005Y673159D01*
X813959Y673274D01*
X813889Y673413D01*
X813797Y673575D01*
X813635Y673945D01*
Y673969D01*
X813588Y674038D01*
X813565Y674130D01*
X813496Y674246D01*
X813380Y674570D01*
X813264Y674917D01*
X814815Y675542D01*
Y675519D01*
D02*
G37*
G36*
X810233Y653837D02*
X808289D01*
Y659344D01*
X810233D01*
Y653837D01*
D02*
G37*
G36*
X802690Y642753D02*
X802805Y642707D01*
X802990Y642638D01*
X803199Y642568D01*
X803453Y642476D01*
X803731Y642360D01*
X804055Y642244D01*
X804379Y642129D01*
X804749Y641990D01*
X805513Y641712D01*
X806299Y641434D01*
X807086Y641134D01*
X807109D01*
X807179Y641087D01*
X807294Y641064D01*
X807433Y640995D01*
X807618Y640925D01*
X807850Y640856D01*
X808081Y640740D01*
X808359Y640648D01*
X808960Y640416D01*
X809632Y640162D01*
X810326Y639884D01*
X811043Y639607D01*
X811066D01*
X811135Y639583D01*
X811228Y639537D01*
X811367Y639468D01*
X811529Y639421D01*
X811737Y639329D01*
X811945Y639236D01*
X812200Y639144D01*
X812732Y638912D01*
X813334Y638658D01*
X813959Y638403D01*
X814606Y638125D01*
X814630D01*
X814676Y638102D01*
X814768Y638056D01*
X814907Y637987D01*
X815046Y637940D01*
X815231Y637848D01*
X815440Y637755D01*
X815671Y637663D01*
X816180Y637431D01*
X816758Y637177D01*
X817383Y636899D01*
X818008Y636622D01*
Y634608D01*
X817985D01*
X817939Y634562D01*
X817846Y634539D01*
X817707Y634469D01*
X817568Y634400D01*
X817383Y634331D01*
X817175Y634238D01*
X816944Y634122D01*
X816434Y633914D01*
X815856Y633660D01*
X815254Y633382D01*
X814606Y633104D01*
X814583D01*
X814537Y633081D01*
X814445Y633035D01*
X814306Y632966D01*
X814167Y632919D01*
X813982Y632827D01*
X813773Y632734D01*
X813519Y632641D01*
X812987Y632410D01*
X812385Y632156D01*
X811737Y631901D01*
X811043Y631623D01*
X811020D01*
X810950Y631600D01*
X810858Y631554D01*
X810719Y631484D01*
X810534Y631438D01*
X810349Y631346D01*
X810117Y631253D01*
X809840Y631161D01*
X809562Y631045D01*
X809261Y630929D01*
X808590Y630675D01*
X807850Y630397D01*
X807086Y630119D01*
X807063D01*
X806994Y630073D01*
X806878Y630050D01*
X806716Y629981D01*
X806531Y629911D01*
X806299Y629818D01*
X806045Y629726D01*
X805744Y629610D01*
X805420Y629495D01*
X805073Y629356D01*
X804703Y629217D01*
X804309Y629055D01*
X803476Y628754D01*
X802574Y628407D01*
Y630790D01*
X802597D01*
X802620Y630813D01*
X802736Y630860D01*
X802944Y630929D01*
X803199Y631022D01*
X803476Y631137D01*
X803823Y631253D01*
X804518Y631508D01*
X804564Y631531D01*
X804680Y631554D01*
X804888Y631623D01*
X805142Y631716D01*
X805420Y631809D01*
X805767Y631947D01*
X806137Y632063D01*
X806508Y632202D01*
Y639144D01*
X802574Y640555D01*
Y642800D01*
X802597D01*
X802690Y642753D01*
D02*
G37*
G36*
X802921Y626695D02*
X803106D01*
X803314D01*
X803546Y626671D01*
X803823D01*
X804124Y626648D01*
X804425D01*
X805119Y626602D01*
X805837Y626579D01*
X806600Y626533D01*
X806623D01*
X806693D01*
X806808Y626510D01*
X806947D01*
X807132D01*
X807341Y626486D01*
X807595Y626463D01*
X807873D01*
X808475Y626417D01*
X809146Y626371D01*
X809863Y626325D01*
X810603Y626278D01*
X810627D01*
X810696D01*
X810788Y626255D01*
X810950D01*
X811112Y626232D01*
X811321D01*
X811575Y626209D01*
X811830Y626186D01*
X812408Y626139D01*
X813056Y626093D01*
X813750Y626047D01*
X814445Y625977D01*
X814468D01*
X814537D01*
X814630Y625954D01*
X814768D01*
X814930Y625931D01*
X815139Y625908D01*
X815347Y625885D01*
X815601Y625862D01*
X816134Y625792D01*
X816735Y625723D01*
X817360Y625653D01*
X818008Y625584D01*
Y623687D01*
X817962Y623663D01*
X817823Y623571D01*
X817615Y623455D01*
X817337Y623293D01*
X816990Y623108D01*
X816596Y622900D01*
X816157Y622668D01*
X815671Y622414D01*
X815648D01*
X815601Y622391D01*
X815532Y622345D01*
X815440Y622298D01*
X815324Y622229D01*
X815185Y622159D01*
X814838Y621974D01*
X814421Y621766D01*
X813935Y621535D01*
X813426Y621280D01*
X812894Y621026D01*
X812871D01*
X812825Y621002D01*
X812755Y620956D01*
X812640Y620910D01*
X812501Y620840D01*
X812362Y620771D01*
X811992Y620586D01*
X811529Y620401D01*
X811043Y620169D01*
X810511Y619915D01*
X809955Y619683D01*
X809932D01*
X809886Y619660D01*
X809817Y619614D01*
X809701Y619568D01*
X809585Y619521D01*
X809423Y619452D01*
X809076Y619290D01*
X808683Y619105D01*
X808220Y618920D01*
X807780Y618712D01*
X807318Y618503D01*
X807341D01*
X807364Y618480D01*
X807433Y618457D01*
X807526Y618411D01*
X807757Y618295D01*
X808081Y618156D01*
X808475Y617971D01*
X808937Y617786D01*
X809423Y617555D01*
X809955Y617323D01*
X809979D01*
X810025Y617300D01*
X810094Y617254D01*
X810210Y617207D01*
X810349Y617161D01*
X810511Y617092D01*
X810881Y616907D01*
X811321Y616722D01*
X811830Y616490D01*
X812339Y616236D01*
X812894Y615981D01*
X812917D01*
X812964Y615958D01*
X813033Y615912D01*
X813149Y615865D01*
X813264Y615796D01*
X813426Y615727D01*
X813797Y615541D01*
X814213Y615333D01*
X814676Y615102D01*
X815185Y614870D01*
X815671Y614616D01*
X815694D01*
X815740Y614593D01*
X815810Y614547D01*
X815902Y614500D01*
X816157Y614361D01*
X816458Y614199D01*
X816828Y613991D01*
X817221Y613760D01*
X817615Y613528D01*
X818008Y613297D01*
Y611399D01*
X817985D01*
X817915D01*
X817823Y611376D01*
X817661D01*
X817499Y611353D01*
X817268Y611330D01*
X817013Y611307D01*
X816712Y611284D01*
X816388Y611238D01*
X816041Y611214D01*
X815648Y611191D01*
X815231Y611145D01*
X814768Y611099D01*
X814306Y611076D01*
X813797Y611029D01*
X813288Y610983D01*
X812732Y610937D01*
X812154Y610891D01*
X810950Y610798D01*
X809678Y610705D01*
X808336Y610613D01*
X806947Y610520D01*
X805513Y610428D01*
X804055Y610335D01*
X802574Y610266D01*
Y612371D01*
X802620D01*
X802713D01*
X802875D01*
X803106Y612394D01*
X803384D01*
X803708Y612418D01*
X804101Y612441D01*
X804518D01*
X804957Y612464D01*
X805443Y612487D01*
X805952Y612510D01*
X806485Y612533D01*
X807595Y612580D01*
X808729Y612649D01*
X808775D01*
X808868D01*
X809030Y612672D01*
X809261D01*
X809516Y612695D01*
X809840Y612719D01*
X810210Y612742D01*
X810603Y612765D01*
X811020Y612788D01*
X811483Y612811D01*
X812431Y612904D01*
X813449Y612973D01*
X814445Y613066D01*
X814421D01*
X814375Y613112D01*
X814283Y613158D01*
X814167Y613228D01*
X814005Y613320D01*
X813820Y613413D01*
X813588Y613528D01*
X813334Y613667D01*
X813311Y613690D01*
X813218Y613737D01*
X813056Y613806D01*
X812871Y613899D01*
X812617Y614014D01*
X812339Y614153D01*
X812038Y614292D01*
X811714Y614454D01*
X811668Y614477D01*
X811552Y614523D01*
X811367Y614616D01*
X811135Y614732D01*
X810858Y614847D01*
X810534Y615009D01*
X810164Y615171D01*
X809793Y615356D01*
X809747Y615379D01*
X809632Y615426D01*
X809423Y615518D01*
X809169Y615634D01*
X808868Y615773D01*
X808544Y615935D01*
X807827Y616259D01*
X807780Y616282D01*
X807665Y616328D01*
X807479Y616421D01*
X807248Y616513D01*
X806970Y616629D01*
X806670Y616768D01*
X806045Y617046D01*
X805999Y617069D01*
X805906Y617115D01*
X805767Y617184D01*
X805582Y617254D01*
X805351Y617346D01*
X805142Y617439D01*
X804911Y617532D01*
X804703Y617624D01*
Y619360D01*
X804726D01*
X804795Y619406D01*
X804911Y619452D01*
X805073Y619521D01*
X805258Y619614D01*
X805490Y619707D01*
X805744Y619822D01*
X806045Y619961D01*
X806091Y619984D01*
X806184Y620031D01*
X806369Y620100D01*
X806577Y620192D01*
X806855Y620331D01*
X807156Y620447D01*
X807479Y620609D01*
X807827Y620771D01*
X807873Y620794D01*
X807989Y620840D01*
X808197Y620933D01*
X808428Y621049D01*
X808729Y621164D01*
X809076Y621326D01*
X809423Y621488D01*
X809793Y621673D01*
X809817D01*
X809840Y621697D01*
X809979Y621743D01*
X810164Y621835D01*
X810418Y621951D01*
X810719Y622090D01*
X811043Y622252D01*
X811714Y622576D01*
X811760Y622599D01*
X811876Y622645D01*
X812038Y622738D01*
X812246Y622830D01*
X812501Y622946D01*
X812778Y623085D01*
X813334Y623363D01*
X813357Y623386D01*
X813449Y623409D01*
X813588Y623478D01*
X813750Y623571D01*
X814097Y623756D01*
X814283Y623848D01*
X814445Y623941D01*
X814421D01*
X814329D01*
X814190Y623964D01*
X813982Y623987D01*
X813750Y624011D01*
X813449Y624034D01*
X813126Y624057D01*
X812732Y624080D01*
X812339Y624126D01*
X811899Y624149D01*
X811413Y624196D01*
X810927Y624219D01*
X810395Y624265D01*
X809863Y624288D01*
X808729Y624358D01*
X808706D01*
X808590D01*
X808428Y624381D01*
X808197D01*
X807919Y624404D01*
X807595D01*
X807225Y624427D01*
X806808Y624450D01*
X806369Y624473D01*
X805883Y624496D01*
X805374Y624520D01*
X804842Y624543D01*
X803731Y624566D01*
X802574Y624612D01*
Y626718D01*
X802597D01*
X802666D01*
X802782D01*
X802921Y626695D01*
D02*
G37*
G36*
X816573Y602398D02*
X816666Y602306D01*
X816851Y602121D01*
X817059Y601866D01*
X817082Y601843D01*
X817105Y601797D01*
X817175Y601704D01*
X817268Y601588D01*
X817360Y601450D01*
X817453Y601288D01*
X817661Y600894D01*
X817684Y600871D01*
X817707Y600802D01*
X817776Y600686D01*
X817846Y600524D01*
X817915Y600339D01*
X818008Y600131D01*
X818170Y599645D01*
Y599622D01*
X818193Y599529D01*
X818239Y599390D01*
X818286Y599205D01*
X818309Y598974D01*
X818355Y598719D01*
X818378Y598442D01*
Y597909D01*
X818355Y597747D01*
Y597539D01*
X818309Y597308D01*
X818286Y597053D01*
X818239Y596775D01*
X818101Y596174D01*
X817892Y595572D01*
X817776Y595271D01*
X817615Y594994D01*
X817453Y594716D01*
X817244Y594485D01*
X817221Y594462D01*
X817198Y594438D01*
X817129Y594369D01*
X817036Y594300D01*
X816920Y594207D01*
X816782Y594091D01*
X816620Y593976D01*
X816434Y593860D01*
X816203Y593767D01*
X815972Y593652D01*
X815717Y593536D01*
X815440Y593443D01*
X814792Y593304D01*
X814445Y593281D01*
X814074Y593258D01*
X814028D01*
X813935D01*
X813773Y593281D01*
X813565Y593304D01*
X813334Y593328D01*
X813079Y593397D01*
X812778Y593466D01*
X812501Y593582D01*
X812478Y593605D01*
X812385Y593652D01*
X812223Y593721D01*
X812038Y593814D01*
X811830Y593929D01*
X811575Y594068D01*
X811043Y594438D01*
X811020Y594462D01*
X810927Y594531D01*
X810788Y594647D01*
X810603Y594785D01*
X810372Y594971D01*
X810141Y595179D01*
X809608Y595642D01*
X809585Y595665D01*
X809493Y595757D01*
X809354Y595896D01*
X809169Y596058D01*
X808960Y596266D01*
X808729Y596498D01*
X808243Y596984D01*
X808220Y597007D01*
X808174Y597053D01*
X808104Y597146D01*
X807989Y597238D01*
X807850Y597377D01*
X807711Y597539D01*
X807341Y597886D01*
X807318Y597909D01*
X807248Y597979D01*
X807156Y598071D01*
X807017Y598187D01*
X806855Y598326D01*
X806670Y598488D01*
X806276Y598835D01*
X806253Y598858D01*
X806184Y598904D01*
X806068Y598997D01*
X805929Y599089D01*
X805767Y599205D01*
X805605Y599321D01*
X805212Y599575D01*
X805189Y599598D01*
X805119Y599622D01*
X805027Y599668D01*
X804911Y599714D01*
X804633Y599830D01*
X804471Y599853D01*
X804333Y599876D01*
Y592749D01*
X802574D01*
Y602144D01*
X802597D01*
X802643D01*
X802736D01*
X802829D01*
X802852D01*
X802921D01*
X803083D01*
X803106D01*
X803129D01*
X803268D01*
X803453Y602121D01*
X803708Y602098D01*
X804009Y602074D01*
X804333Y602005D01*
X804680Y601936D01*
X805027Y601820D01*
X805073Y601797D01*
X805189Y601750D01*
X805351Y601681D01*
X805582Y601565D01*
X805837Y601450D01*
X806114Y601288D01*
X806716Y600917D01*
X806762Y600894D01*
X806855Y600825D01*
X807017Y600709D01*
X807202Y600547D01*
X807456Y600362D01*
X807711Y600154D01*
X808243Y599668D01*
X808266Y599645D01*
X808359Y599552D01*
X808498Y599413D01*
X808683Y599228D01*
X808891Y599020D01*
X809122Y598789D01*
X809632Y598303D01*
X809655Y598279D01*
X809724Y598210D01*
X809817Y598094D01*
X809955Y597956D01*
X810117Y597794D01*
X810303Y597608D01*
X810673Y597238D01*
X810696Y597215D01*
X810765Y597146D01*
X810881Y597053D01*
X810997Y596937D01*
X811159Y596799D01*
X811344Y596637D01*
X811737Y596336D01*
X811760Y596313D01*
X811830Y596266D01*
X811945Y596197D01*
X812084Y596104D01*
X812246Y596012D01*
X812431Y595896D01*
X812825Y595711D01*
X812848Y595688D01*
X812917Y595665D01*
X813033Y595619D01*
X813172Y595572D01*
X813357Y595526D01*
X813565Y595503D01*
X813773Y595457D01*
X814005D01*
X814028D01*
X814120D01*
X814236D01*
X814398Y595480D01*
X814768Y595549D01*
X815139Y595688D01*
X815162D01*
X815208Y595734D01*
X815301Y595780D01*
X815416Y595827D01*
X815648Y596012D01*
X815902Y596266D01*
X815925Y596289D01*
X815948Y596336D01*
X816018Y596405D01*
X816087Y596498D01*
X816226Y596752D01*
X816365Y597099D01*
Y597122D01*
X816388Y597192D01*
X816411Y597285D01*
X816458Y597400D01*
X816481Y597562D01*
X816504Y597724D01*
X816527Y598117D01*
Y598349D01*
X816504Y598511D01*
X816481Y598696D01*
X816458Y598881D01*
X816342Y599298D01*
Y599321D01*
X816319Y599390D01*
X816273Y599483D01*
X816226Y599622D01*
X816087Y599922D01*
X815925Y600270D01*
Y600293D01*
X815879Y600339D01*
X815833Y600408D01*
X815787Y600524D01*
X815625Y600755D01*
X815440Y600987D01*
X815393Y601033D01*
X815301Y601149D01*
X815162Y601288D01*
X815046Y601427D01*
X816527Y602445D01*
X816573Y602398D01*
D02*
G37*
G36*
X819859Y587242D02*
X809307D01*
X809331Y587219D01*
X809400Y587149D01*
X809516Y587034D01*
X809655Y586895D01*
X809817Y586733D01*
X810025Y586525D01*
X810464Y586085D01*
X810488Y586062D01*
X810580Y585969D01*
X810696Y585854D01*
X810881Y585692D01*
X811066Y585483D01*
X811298Y585275D01*
X811783Y584812D01*
X811807Y584789D01*
X811899Y584697D01*
X812038Y584581D01*
X812200Y584419D01*
X812385Y584257D01*
X812593Y584049D01*
X813056Y583632D01*
X813079Y583609D01*
X813172Y583540D01*
X813288Y583424D01*
X813426Y583308D01*
X813797Y582984D01*
X814167Y582660D01*
Y580208D01*
X814144Y580231D01*
X814074Y580300D01*
X813959Y580416D01*
X813797Y580555D01*
X813612Y580717D01*
X813403Y580902D01*
X812917Y581342D01*
X812894Y581365D01*
X812802Y581434D01*
X812686Y581573D01*
X812501Y581712D01*
X812316Y581920D01*
X812084Y582128D01*
X811575Y582591D01*
X811552Y582614D01*
X811460Y582707D01*
X811321Y582822D01*
X811159Y583008D01*
X810950Y583193D01*
X810719Y583424D01*
X810210Y583910D01*
X810187Y583933D01*
X810094Y584026D01*
X809955Y584141D01*
X809793Y584303D01*
X809608Y584488D01*
X809400Y584697D01*
X808937Y585136D01*
X808914Y585113D01*
X808845Y585021D01*
X808729Y584882D01*
X808590Y584697D01*
X808405Y584488D01*
X808197Y584257D01*
X807942Y584002D01*
X807665Y583725D01*
X807642Y583679D01*
X807526Y583586D01*
X807387Y583447D01*
X807179Y583262D01*
X806924Y583031D01*
X806646Y582776D01*
X806346Y582522D01*
X806022Y582244D01*
X805975Y582221D01*
X805860Y582128D01*
X805698Y581989D01*
X805466Y581804D01*
X805212Y581596D01*
X804911Y581365D01*
X804240Y580879D01*
X804194Y580855D01*
X804078Y580763D01*
X803916Y580647D01*
X803685Y580485D01*
X803430Y580323D01*
X803152Y580138D01*
X802574Y579768D01*
Y582221D01*
X802620Y582244D01*
X802713Y582313D01*
X802852Y582406D01*
X803060Y582522D01*
X803291Y582683D01*
X803569Y582869D01*
X804147Y583308D01*
X804194Y583331D01*
X804286Y583401D01*
X804448Y583540D01*
X804657Y583702D01*
X804888Y583887D01*
X805166Y584095D01*
X805721Y584581D01*
X805744Y584604D01*
X805837Y584697D01*
X805999Y584836D01*
X806161Y584997D01*
X806369Y585206D01*
X806600Y585437D01*
X807086Y585946D01*
X807109Y585969D01*
X807202Y586062D01*
X807318Y586201D01*
X807456Y586363D01*
X807618Y586571D01*
X807780Y586779D01*
X808127Y587242D01*
X802574D01*
Y589325D01*
X819489D01*
X819859Y587242D01*
D02*
G37*
G36*
X816573Y578195D02*
X816666Y578102D01*
X816851Y577917D01*
X817059Y577662D01*
X817082Y577639D01*
X817105Y577593D01*
X817175Y577500D01*
X817268Y577385D01*
X817360Y577246D01*
X817453Y577084D01*
X817661Y576690D01*
X817684Y576667D01*
X817707Y576598D01*
X817776Y576482D01*
X817846Y576320D01*
X817915Y576135D01*
X818008Y575927D01*
X818170Y575441D01*
Y575418D01*
X818193Y575325D01*
X818239Y575186D01*
X818286Y575001D01*
X818309Y574770D01*
X818355Y574515D01*
X818378Y574238D01*
Y573705D01*
X818355Y573544D01*
Y573335D01*
X818309Y573104D01*
X818286Y572849D01*
X818239Y572572D01*
X818101Y571970D01*
X817892Y571368D01*
X817776Y571068D01*
X817615Y570790D01*
X817453Y570512D01*
X817244Y570281D01*
X817221Y570258D01*
X817198Y570234D01*
X817129Y570165D01*
X817036Y570096D01*
X816920Y570003D01*
X816782Y569888D01*
X816620Y569772D01*
X816434Y569656D01*
X816203Y569563D01*
X815972Y569448D01*
X815717Y569332D01*
X815440Y569240D01*
X814792Y569101D01*
X814445Y569078D01*
X814074Y569054D01*
X814028D01*
X813935D01*
X813773Y569078D01*
X813565Y569101D01*
X813334Y569124D01*
X813079Y569193D01*
X812778Y569263D01*
X812501Y569378D01*
X812478Y569402D01*
X812385Y569448D01*
X812223Y569517D01*
X812038Y569610D01*
X811830Y569725D01*
X811575Y569864D01*
X811043Y570234D01*
X811020Y570258D01*
X810927Y570327D01*
X810788Y570443D01*
X810603Y570582D01*
X810372Y570767D01*
X810141Y570975D01*
X809608Y571438D01*
X809585Y571461D01*
X809493Y571553D01*
X809354Y571692D01*
X809169Y571854D01*
X808960Y572063D01*
X808729Y572294D01*
X808243Y572780D01*
X808220Y572803D01*
X808174Y572849D01*
X808104Y572942D01*
X807989Y573034D01*
X807850Y573173D01*
X807711Y573335D01*
X807341Y573682D01*
X807318Y573705D01*
X807248Y573775D01*
X807156Y573867D01*
X807017Y573983D01*
X806855Y574122D01*
X806670Y574284D01*
X806276Y574631D01*
X806253Y574654D01*
X806184Y574701D01*
X806068Y574793D01*
X805929Y574886D01*
X805767Y575001D01*
X805605Y575117D01*
X805212Y575372D01*
X805189Y575395D01*
X805119Y575418D01*
X805027Y575464D01*
X804911Y575510D01*
X804633Y575626D01*
X804471Y575649D01*
X804333Y575672D01*
Y568545D01*
X802574D01*
Y577940D01*
X802597D01*
X802643D01*
X802736D01*
X802829D01*
X802852D01*
X802921D01*
X803083D01*
X803106D01*
X803129D01*
X803268D01*
X803453Y577917D01*
X803708Y577894D01*
X804009Y577870D01*
X804333Y577801D01*
X804680Y577732D01*
X805027Y577616D01*
X805073Y577593D01*
X805189Y577547D01*
X805351Y577477D01*
X805582Y577361D01*
X805837Y577246D01*
X806114Y577084D01*
X806716Y576714D01*
X806762Y576690D01*
X806855Y576621D01*
X807017Y576505D01*
X807202Y576343D01*
X807456Y576158D01*
X807711Y575950D01*
X808243Y575464D01*
X808266Y575441D01*
X808359Y575348D01*
X808498Y575210D01*
X808683Y575024D01*
X808891Y574816D01*
X809122Y574585D01*
X809632Y574099D01*
X809655Y574076D01*
X809724Y574006D01*
X809817Y573891D01*
X809955Y573752D01*
X810117Y573590D01*
X810303Y573405D01*
X810673Y573034D01*
X810696Y573011D01*
X810765Y572942D01*
X810881Y572849D01*
X810997Y572734D01*
X811159Y572595D01*
X811344Y572433D01*
X811737Y572132D01*
X811760Y572109D01*
X811830Y572063D01*
X811945Y571993D01*
X812084Y571901D01*
X812246Y571808D01*
X812431Y571692D01*
X812825Y571507D01*
X812848Y571484D01*
X812917Y571461D01*
X813033Y571415D01*
X813172Y571368D01*
X813357Y571322D01*
X813565Y571299D01*
X813773Y571253D01*
X814005D01*
X814028D01*
X814120D01*
X814236D01*
X814398Y571276D01*
X814768Y571345D01*
X815139Y571484D01*
X815162D01*
X815208Y571530D01*
X815301Y571577D01*
X815416Y571623D01*
X815648Y571808D01*
X815902Y572063D01*
X815925Y572086D01*
X815948Y572132D01*
X816018Y572201D01*
X816087Y572294D01*
X816226Y572548D01*
X816365Y572896D01*
Y572919D01*
X816388Y572988D01*
X816411Y573081D01*
X816458Y573196D01*
X816481Y573358D01*
X816504Y573520D01*
X816527Y573914D01*
Y574145D01*
X816504Y574307D01*
X816481Y574492D01*
X816458Y574677D01*
X816342Y575094D01*
Y575117D01*
X816319Y575186D01*
X816273Y575279D01*
X816226Y575418D01*
X816087Y575719D01*
X815925Y576066D01*
Y576089D01*
X815879Y576135D01*
X815833Y576204D01*
X815787Y576320D01*
X815625Y576552D01*
X815440Y576783D01*
X815393Y576829D01*
X815301Y576945D01*
X815162Y577084D01*
X815046Y577223D01*
X816527Y578241D01*
X816573Y578195D01*
D02*
G37*
G36*
Y565630D02*
X816666Y565537D01*
X816851Y565352D01*
X817059Y565098D01*
X817082Y565075D01*
X817105Y565028D01*
X817175Y564936D01*
X817268Y564820D01*
X817360Y564681D01*
X817453Y564519D01*
X817661Y564126D01*
X817684Y564103D01*
X817707Y564033D01*
X817776Y563918D01*
X817846Y563755D01*
X817915Y563570D01*
X818008Y563362D01*
X818170Y562876D01*
Y562853D01*
X818193Y562761D01*
X818239Y562622D01*
X818286Y562437D01*
X818309Y562205D01*
X818355Y561951D01*
X818378Y561673D01*
Y561141D01*
X818355Y560979D01*
Y560770D01*
X818309Y560539D01*
X818286Y560285D01*
X818239Y560007D01*
X818101Y559405D01*
X817892Y558804D01*
X817776Y558503D01*
X817615Y558225D01*
X817453Y557948D01*
X817244Y557716D01*
X817221Y557693D01*
X817198Y557670D01*
X817129Y557600D01*
X817036Y557531D01*
X816920Y557439D01*
X816782Y557323D01*
X816620Y557207D01*
X816434Y557091D01*
X816203Y556999D01*
X815972Y556883D01*
X815717Y556767D01*
X815440Y556675D01*
X814792Y556536D01*
X814445Y556513D01*
X814074Y556490D01*
X814028D01*
X813935D01*
X813773Y556513D01*
X813565Y556536D01*
X813334Y556559D01*
X813079Y556629D01*
X812778Y556698D01*
X812501Y556814D01*
X812478Y556837D01*
X812385Y556883D01*
X812223Y556953D01*
X812038Y557045D01*
X811830Y557161D01*
X811575Y557300D01*
X811043Y557670D01*
X811020Y557693D01*
X810927Y557762D01*
X810788Y557878D01*
X810603Y558017D01*
X810372Y558202D01*
X810141Y558410D01*
X809608Y558873D01*
X809585Y558896D01*
X809493Y558989D01*
X809354Y559128D01*
X809169Y559290D01*
X808960Y559498D01*
X808729Y559729D01*
X808243Y560215D01*
X808220Y560238D01*
X808174Y560285D01*
X808104Y560377D01*
X807989Y560470D01*
X807850Y560609D01*
X807711Y560770D01*
X807341Y561118D01*
X807318Y561141D01*
X807248Y561210D01*
X807156Y561303D01*
X807017Y561418D01*
X806855Y561557D01*
X806670Y561719D01*
X806276Y562066D01*
X806253Y562090D01*
X806184Y562136D01*
X806068Y562228D01*
X805929Y562321D01*
X805767Y562437D01*
X805605Y562552D01*
X805212Y562807D01*
X805189Y562830D01*
X805119Y562853D01*
X805027Y562899D01*
X804911Y562946D01*
X804633Y563061D01*
X804471Y563084D01*
X804333Y563108D01*
Y555981D01*
X802574D01*
Y565375D01*
X802597D01*
X802643D01*
X802736D01*
X802829D01*
X802852D01*
X802921D01*
X803083D01*
X803106D01*
X803129D01*
X803268D01*
X803453Y565352D01*
X803708Y565329D01*
X804009Y565306D01*
X804333Y565236D01*
X804680Y565167D01*
X805027Y565051D01*
X805073Y565028D01*
X805189Y564982D01*
X805351Y564912D01*
X805582Y564797D01*
X805837Y564681D01*
X806114Y564519D01*
X806716Y564149D01*
X806762Y564126D01*
X806855Y564056D01*
X807017Y563941D01*
X807202Y563779D01*
X807456Y563593D01*
X807711Y563385D01*
X808243Y562899D01*
X808266Y562876D01*
X808359Y562784D01*
X808498Y562645D01*
X808683Y562460D01*
X808891Y562252D01*
X809122Y562020D01*
X809632Y561534D01*
X809655Y561511D01*
X809724Y561442D01*
X809817Y561326D01*
X809955Y561187D01*
X810117Y561025D01*
X810303Y560840D01*
X810673Y560470D01*
X810696Y560447D01*
X810765Y560377D01*
X810881Y560285D01*
X810997Y560169D01*
X811159Y560030D01*
X811344Y559868D01*
X811737Y559567D01*
X811760Y559544D01*
X811830Y559498D01*
X811945Y559428D01*
X812084Y559336D01*
X812246Y559243D01*
X812431Y559128D01*
X812825Y558942D01*
X812848Y558919D01*
X812917Y558896D01*
X813033Y558850D01*
X813172Y558804D01*
X813357Y558757D01*
X813565Y558734D01*
X813773Y558688D01*
X814005D01*
X814028D01*
X814120D01*
X814236D01*
X814398Y558711D01*
X814768Y558781D01*
X815139Y558919D01*
X815162D01*
X815208Y558966D01*
X815301Y559012D01*
X815416Y559058D01*
X815648Y559243D01*
X815902Y559498D01*
X815925Y559521D01*
X815948Y559567D01*
X816018Y559637D01*
X816087Y559729D01*
X816226Y559984D01*
X816365Y560331D01*
Y560354D01*
X816388Y560423D01*
X816411Y560516D01*
X816458Y560632D01*
X816481Y560794D01*
X816504Y560956D01*
X816527Y561349D01*
Y561580D01*
X816504Y561742D01*
X816481Y561927D01*
X816458Y562113D01*
X816342Y562529D01*
Y562552D01*
X816319Y562622D01*
X816273Y562714D01*
X816226Y562853D01*
X816087Y563154D01*
X815925Y563501D01*
Y563524D01*
X815879Y563570D01*
X815833Y563640D01*
X815787Y563755D01*
X815625Y563987D01*
X815440Y564218D01*
X815393Y564265D01*
X815301Y564380D01*
X815162Y564519D01*
X815046Y564658D01*
X816527Y565676D01*
X816573Y565630D01*
D02*
G37*
%LPC*%
G36*
X808289Y867969D02*
Y862254D01*
X808313D01*
X808382Y862277D01*
X808475Y862323D01*
X808613Y862370D01*
X808799Y862439D01*
X808984Y862508D01*
X809215Y862601D01*
X809470Y862693D01*
X810048Y862925D01*
X810673Y863156D01*
X811344Y863411D01*
X812015Y863688D01*
X812038D01*
X812107Y863712D01*
X812200Y863758D01*
X812339Y863804D01*
X812501Y863874D01*
X812686Y863943D01*
X812894Y864035D01*
X813149Y864128D01*
X813681Y864336D01*
X814259Y864591D01*
X814907Y864845D01*
X815532Y865123D01*
X815509D01*
X815463Y865146D01*
X815370Y865192D01*
X815231Y865262D01*
X815092Y865331D01*
X814907Y865401D01*
X814699Y865493D01*
X814468Y865586D01*
X813935Y865817D01*
X813357Y866072D01*
X812709Y866326D01*
X812038Y866604D01*
X812015D01*
X811969Y866627D01*
X811853Y866673D01*
X811737Y866720D01*
X811552Y866789D01*
X811367Y866859D01*
X811135Y866951D01*
X810904Y867044D01*
X810326Y867252D01*
X809701Y867483D01*
X809007Y867715D01*
X808289Y867969D01*
D02*
G37*
G36*
X809470Y832589D02*
Y826827D01*
X809493D01*
X809539D01*
X809608D01*
X809701D01*
X809955Y826874D01*
X810279Y826920D01*
X810650Y827012D01*
X811020Y827128D01*
X811413Y827313D01*
X811760Y827545D01*
X811807Y827568D01*
X811899Y827683D01*
X812061Y827846D01*
X812223Y828054D01*
X812385Y828355D01*
X812547Y828679D01*
X812640Y829072D01*
X812686Y829535D01*
Y829650D01*
X812663Y829789D01*
X812640Y829951D01*
X812617Y830159D01*
X812570Y830368D01*
X812478Y830599D01*
X812385Y830807D01*
X812362Y830831D01*
X812339Y830900D01*
X812269Y830992D01*
X812200Y831131D01*
X811969Y831432D01*
X811668Y831733D01*
X811645Y831756D01*
X811598Y831802D01*
X811506Y831872D01*
X811367Y831941D01*
X811228Y832034D01*
X811043Y832149D01*
X810650Y832335D01*
X810627D01*
X810557Y832358D01*
X810441Y832404D01*
X810279Y832450D01*
X810117Y832496D01*
X809909Y832520D01*
X809470Y832589D01*
D02*
G37*
G36*
X806022Y807622D02*
X805999D01*
X805975D01*
X805837Y807598D01*
X805651Y807575D01*
X805420Y807529D01*
X805166Y807460D01*
X804911Y807321D01*
X804657Y807159D01*
X804471Y806927D01*
X804448Y806904D01*
X804402Y806789D01*
X804333Y806627D01*
X804263Y806418D01*
X804194Y806141D01*
X804124Y805794D01*
X804078Y805423D01*
X804055Y804984D01*
Y804128D01*
X804078Y803688D01*
Y803595D01*
X804101Y803480D01*
Y803341D01*
X804147Y803040D01*
X804194Y802716D01*
X807665D01*
X807688Y802762D01*
X807711Y802809D01*
X807734Y802901D01*
X807757Y802994D01*
X807803Y803133D01*
X807827Y803271D01*
X807850Y803457D01*
Y803480D01*
X807873Y803549D01*
Y803642D01*
X807896Y803781D01*
X807919Y803966D01*
Y804174D01*
X807942Y804405D01*
Y804961D01*
X807919Y805123D01*
Y805285D01*
X807873Y805678D01*
Y805701D01*
X807850Y805770D01*
Y805863D01*
X807803Y805979D01*
X807711Y806303D01*
X807572Y806627D01*
Y806650D01*
X807526Y806696D01*
X807479Y806766D01*
X807433Y806881D01*
X807248Y807113D01*
X806994Y807344D01*
X806970D01*
X806924Y807390D01*
X806855Y807437D01*
X806739Y807483D01*
X806600Y807529D01*
X806438Y807575D01*
X806253Y807598D01*
X806022Y807622D01*
D02*
G37*
G36*
X816203Y789827D02*
X810395D01*
Y787884D01*
X810418Y787629D01*
Y787305D01*
X810441Y786981D01*
X810464Y786634D01*
X810488Y786287D01*
Y786241D01*
X810511Y786125D01*
X810534Y785963D01*
X810580Y785755D01*
X810650Y785524D01*
X810719Y785269D01*
X810812Y785014D01*
X810904Y784783D01*
X810927Y784760D01*
X810974Y784690D01*
X811043Y784575D01*
X811135Y784436D01*
X811251Y784274D01*
X811413Y784112D01*
X811598Y783950D01*
X811783Y783811D01*
X811807Y783788D01*
X811899Y783765D01*
X812015Y783696D01*
X812200Y783626D01*
X812408Y783580D01*
X812663Y783510D01*
X812964Y783487D01*
X813311Y783464D01*
X813357D01*
X813449D01*
X813612Y783487D01*
X813820Y783510D01*
X814028Y783557D01*
X814283Y783603D01*
X814514Y783696D01*
X814745Y783811D01*
X814768Y783834D01*
X814838Y783881D01*
X814954Y783950D01*
X815069Y784066D01*
X815231Y784181D01*
X815370Y784343D01*
X815509Y784529D01*
X815648Y784737D01*
X815671Y784760D01*
X815694Y784829D01*
X815763Y784945D01*
X815833Y785107D01*
X815925Y785315D01*
X815995Y785547D01*
X816064Y785801D01*
X816134Y786079D01*
Y786102D01*
X816157Y786218D01*
X816180Y786357D01*
X816203Y786565D01*
X816226Y786819D01*
X816249Y787097D01*
X816273Y787398D01*
Y788509D01*
X816249Y788856D01*
Y789203D01*
X816226Y789527D01*
X816203Y789827D01*
D02*
G37*
G36*
X808359Y776592D02*
X808336D01*
X808266D01*
X808174D01*
X808035Y776569D01*
X807873D01*
X807688Y776545D01*
X807225Y776476D01*
X806739Y776384D01*
X806207Y776221D01*
X805698Y776013D01*
X805235Y775712D01*
X805212D01*
X805189Y775666D01*
X805050Y775550D01*
X804888Y775342D01*
X804680Y775088D01*
X804471Y774741D01*
X804286Y774324D01*
X804147Y773838D01*
X804124Y773584D01*
X804101Y773306D01*
Y773167D01*
X804124Y773051D01*
X804171Y772774D01*
X804240Y772450D01*
X804379Y772056D01*
X804587Y771663D01*
X804703Y771478D01*
X804865Y771270D01*
X805027Y771085D01*
X805235Y770923D01*
X805258D01*
X805281Y770876D01*
X805351Y770830D01*
X805443Y770784D01*
X805559Y770714D01*
X805698Y770645D01*
X805860Y770552D01*
X806068Y770460D01*
X806508Y770298D01*
X807040Y770159D01*
X807665Y770066D01*
X808359Y770020D01*
X808382D01*
X808451D01*
X808544D01*
X808683Y770043D01*
X808845D01*
X809030Y770066D01*
X809470Y770136D01*
X809979Y770228D01*
X810488Y770390D01*
X810997Y770622D01*
X811460Y770923D01*
X811483D01*
X811506Y770969D01*
X811645Y771085D01*
X811830Y771270D01*
X812038Y771547D01*
X812246Y771894D01*
X812431Y772288D01*
X812570Y772774D01*
X812593Y773028D01*
X812617Y773306D01*
Y773445D01*
X812593Y773560D01*
X812547Y773838D01*
X812478Y774185D01*
X812339Y774555D01*
X812131Y774972D01*
X811992Y775157D01*
X811853Y775365D01*
X811668Y775550D01*
X811460Y775712D01*
X811436D01*
X811413Y775759D01*
X811344Y775782D01*
X811251Y775851D01*
X811135Y775921D01*
X810997Y775990D01*
X810835Y776059D01*
X810650Y776152D01*
X810187Y776314D01*
X809655Y776453D01*
X809053Y776545D01*
X808359Y776592D01*
D02*
G37*
G36*
X806022Y754725D02*
X805999D01*
X805975D01*
X805837Y754702D01*
X805651Y754679D01*
X805420Y754632D01*
X805166Y754563D01*
X804911Y754424D01*
X804657Y754262D01*
X804471Y754031D01*
X804448Y754008D01*
X804402Y753892D01*
X804333Y753730D01*
X804263Y753522D01*
X804194Y753244D01*
X804124Y752897D01*
X804078Y752527D01*
X804055Y752087D01*
Y751231D01*
X804078Y750791D01*
Y750699D01*
X804101Y750583D01*
Y750444D01*
X804147Y750143D01*
X804194Y749819D01*
X807665D01*
X807688Y749866D01*
X807711Y749912D01*
X807734Y750005D01*
X807757Y750097D01*
X807803Y750236D01*
X807827Y750375D01*
X807850Y750560D01*
Y750583D01*
X807873Y750652D01*
Y750745D01*
X807896Y750884D01*
X807919Y751069D01*
Y751277D01*
X807942Y751509D01*
Y752064D01*
X807919Y752226D01*
Y752388D01*
X807873Y752781D01*
Y752804D01*
X807850Y752874D01*
Y752966D01*
X807803Y753082D01*
X807711Y753406D01*
X807572Y753730D01*
Y753753D01*
X807526Y753799D01*
X807479Y753869D01*
X807433Y753985D01*
X807248Y754216D01*
X806994Y754447D01*
X806970D01*
X806924Y754494D01*
X806855Y754540D01*
X806739Y754586D01*
X806600Y754632D01*
X806438Y754679D01*
X806253Y754702D01*
X806022Y754725D01*
D02*
G37*
G36*
X808359Y733900D02*
X808336D01*
X808266D01*
X808174D01*
X808035Y733876D01*
X807873D01*
X807688Y733853D01*
X807225Y733784D01*
X806739Y733691D01*
X806207Y733529D01*
X805698Y733321D01*
X805235Y733020D01*
X805212D01*
X805189Y732974D01*
X805050Y732858D01*
X804888Y732650D01*
X804680Y732395D01*
X804471Y732048D01*
X804286Y731632D01*
X804147Y731146D01*
X804124Y730891D01*
X804101Y730614D01*
Y730475D01*
X804124Y730359D01*
X804171Y730081D01*
X804240Y729758D01*
X804379Y729364D01*
X804587Y728971D01*
X804703Y728786D01*
X804865Y728577D01*
X805027Y728392D01*
X805235Y728230D01*
X805258D01*
X805281Y728184D01*
X805351Y728138D01*
X805443Y728092D01*
X805559Y728022D01*
X805698Y727953D01*
X805860Y727860D01*
X806068Y727768D01*
X806508Y727606D01*
X807040Y727467D01*
X807665Y727374D01*
X808359Y727328D01*
X808382D01*
X808451D01*
X808544D01*
X808683Y727351D01*
X808845D01*
X809030Y727374D01*
X809470Y727444D01*
X809979Y727536D01*
X810488Y727698D01*
X810997Y727930D01*
X811460Y728230D01*
X811483D01*
X811506Y728277D01*
X811645Y728392D01*
X811830Y728577D01*
X812038Y728855D01*
X812246Y729202D01*
X812431Y729596D01*
X812570Y730081D01*
X812593Y730336D01*
X812617Y730614D01*
Y730753D01*
X812593Y730868D01*
X812547Y731146D01*
X812478Y731493D01*
X812339Y731863D01*
X812131Y732280D01*
X811992Y732465D01*
X811853Y732673D01*
X811668Y732858D01*
X811460Y733020D01*
X811436D01*
X811413Y733066D01*
X811344Y733090D01*
X811251Y733159D01*
X811135Y733229D01*
X810997Y733298D01*
X810835Y733367D01*
X810650Y733460D01*
X810187Y733622D01*
X809655Y733761D01*
X809053Y733853D01*
X808359Y733900D01*
D02*
G37*
G36*
X810765Y692387D02*
X810303D01*
X810279D01*
X810256D01*
X810187D01*
X810094D01*
X809840D01*
X809516Y692364D01*
X809146D01*
X808752Y692318D01*
X807896Y692249D01*
X807873D01*
X807850D01*
X807711Y692225D01*
X807503Y692179D01*
X807225Y692133D01*
X806924Y692064D01*
X806577Y691994D01*
X806230Y691878D01*
X805906Y691763D01*
X805860Y691740D01*
X805767Y691693D01*
X805605Y691624D01*
X805420Y691508D01*
X805212Y691392D01*
X804980Y691230D01*
X804772Y691045D01*
X804564Y690837D01*
X804541Y690814D01*
X804494Y690721D01*
X804402Y690606D01*
X804333Y690444D01*
X804240Y690236D01*
X804147Y689981D01*
X804101Y689703D01*
X804078Y689402D01*
Y689264D01*
X804101Y689102D01*
X804147Y688893D01*
X804194Y688685D01*
X804286Y688431D01*
X804402Y688199D01*
X804564Y687968D01*
X804587Y687945D01*
X804657Y687875D01*
X804772Y687760D01*
X804934Y687644D01*
X805119Y687482D01*
X805351Y687343D01*
X805605Y687181D01*
X805906Y687042D01*
X805952Y687019D01*
X806068Y686996D01*
X806230Y686926D01*
X806485Y686857D01*
X806762Y686765D01*
X807109Y686695D01*
X807479Y686626D01*
X807896Y686556D01*
X807919D01*
X807942D01*
X808012Y686533D01*
X808104D01*
X808313Y686510D01*
X808613Y686464D01*
X808984Y686441D01*
X809400Y686417D01*
X809840Y686394D01*
X810303D01*
X810326D01*
X810349D01*
X810418D01*
X810511D01*
X810765D01*
X811089Y686417D01*
X811460Y686441D01*
X811853Y686464D01*
X812709Y686556D01*
X812732D01*
X812755D01*
X812894Y686579D01*
X813102Y686626D01*
X813380Y686672D01*
X813681Y686741D01*
X814028Y686811D01*
X814352Y686926D01*
X814676Y687042D01*
X814722Y687065D01*
X814815Y687112D01*
X814977Y687181D01*
X815162Y687297D01*
X815393Y687412D01*
X815625Y687574D01*
X815833Y687760D01*
X816041Y687968D01*
X816064Y687991D01*
X816111Y688060D01*
X816203Y688199D01*
X816296Y688361D01*
X816388Y688569D01*
X816481Y688824D01*
X816527Y689102D01*
X816550Y689402D01*
Y689541D01*
X816527Y689703D01*
X816481Y689911D01*
X816434Y690120D01*
X816342Y690374D01*
X816203Y690606D01*
X816041Y690837D01*
X816018Y690860D01*
X815948Y690930D01*
X815833Y691045D01*
X815671Y691161D01*
X815486Y691323D01*
X815254Y691462D01*
X814977Y691624D01*
X814676Y691763D01*
X814630Y691786D01*
X814537Y691809D01*
X814352Y691878D01*
X814120Y691948D01*
X813820Y692040D01*
X813496Y692110D01*
X813126Y692179D01*
X812709Y692249D01*
X812686D01*
X812663D01*
X812593Y692272D01*
X812524D01*
X812292Y692295D01*
X811992Y692318D01*
X811621Y692341D01*
X811205Y692364D01*
X810765Y692387D01*
D02*
G37*
G36*
X808289Y638519D02*
Y632803D01*
X808313D01*
X808382Y632827D01*
X808475Y632873D01*
X808613Y632919D01*
X808799Y632989D01*
X808984Y633058D01*
X809215Y633151D01*
X809470Y633243D01*
X810048Y633475D01*
X810673Y633706D01*
X811344Y633960D01*
X812015Y634238D01*
X812038D01*
X812107Y634261D01*
X812200Y634308D01*
X812339Y634354D01*
X812501Y634423D01*
X812686Y634493D01*
X812894Y634585D01*
X813149Y634678D01*
X813681Y634886D01*
X814259Y635141D01*
X814907Y635395D01*
X815532Y635673D01*
X815509D01*
X815463Y635696D01*
X815370Y635742D01*
X815231Y635812D01*
X815092Y635881D01*
X814907Y635950D01*
X814699Y636043D01*
X814468Y636136D01*
X813935Y636367D01*
X813357Y636622D01*
X812709Y636876D01*
X812038Y637154D01*
X812015D01*
X811969Y637177D01*
X811853Y637223D01*
X811737Y637269D01*
X811552Y637339D01*
X811367Y637408D01*
X811135Y637501D01*
X810904Y637593D01*
X810326Y637802D01*
X809701Y638033D01*
X809007Y638264D01*
X808289Y638519D01*
D02*
G37*
%LPD*%
D23*
X1064000Y956000D02*
D03*
X1106000D02*
D03*
D28*
X1734500Y1045000D02*
D03*
D29*
Y1062000D02*
D03*
X1712500D02*
D03*
Y1043000D02*
D03*
D31*
X1292830Y899020D02*
D03*
Y894020D02*
D03*
Y889020D02*
D03*
Y884020D02*
D03*
Y879020D02*
D03*
Y874020D02*
D03*
Y869020D02*
D03*
X1243830D02*
D03*
Y874020D02*
D03*
Y879020D02*
D03*
Y884020D02*
D03*
Y889020D02*
D03*
Y894020D02*
D03*
Y899020D02*
D03*
D32*
X1283330Y859520D02*
D03*
X1278330D02*
D03*
X1273330D02*
D03*
X1268330D02*
D03*
X1263330D02*
D03*
X1258330D02*
D03*
X1253330D02*
D03*
Y908520D02*
D03*
X1258330D02*
D03*
X1263330D02*
D03*
X1268330D02*
D03*
X1273330D02*
D03*
X1278330D02*
D03*
X1283330D02*
D03*
D39*
X1280500Y1248375D02*
D03*
X1280500Y461625D02*
D03*
D40*
X1192000Y899250D02*
D03*
Y885250D02*
D03*
X1176500Y885250D02*
D03*
Y899250D02*
D03*
X1237760Y945080D02*
D03*
Y931080D02*
D03*
X1222520Y945080D02*
D03*
Y931080D02*
D03*
X1207530Y899540D02*
D03*
Y885540D02*
D03*
X1222770Y899540D02*
D03*
Y885540D02*
D03*
X1606400Y822960D02*
D03*
Y836960D02*
D03*
X1602590Y573390D02*
D03*
Y587390D02*
D03*
X1171780Y532160D02*
D03*
Y518160D02*
D03*
X1154000Y532810D02*
D03*
Y518810D02*
D03*
X1067250Y1066250D02*
D03*
Y1052250D02*
D03*
X987000Y634250D02*
D03*
Y620250D02*
D03*
X887250Y634500D02*
D03*
Y620500D02*
D03*
X938500Y502500D02*
D03*
Y516500D02*
D03*
X887000Y502500D02*
D03*
Y516500D02*
D03*
X913000Y502250D02*
D03*
Y516250D02*
D03*
D41*
X1113250Y875750D02*
D03*
X1160250D02*
D03*
X1113250Y831750D02*
D03*
X1160250D02*
D03*
D42*
X1129750Y899750D02*
D03*
X1143750D02*
D03*
X1164190Y765340D02*
D03*
X1178190D02*
D03*
X1016250Y925750D02*
D03*
X1002250D02*
D03*
X1530850Y802020D02*
D03*
X1516850D02*
D03*
X1530850Y553100D02*
D03*
X1516850D02*
D03*
X1178810Y784390D02*
D03*
X1164810D02*
D03*
X1240750Y770750D02*
D03*
X1254750D02*
D03*
X1192750Y498250D02*
D03*
X1206750D02*
D03*
X1192500Y513500D02*
D03*
X1206500D02*
D03*
X1254750Y785500D02*
D03*
X1240750D02*
D03*
X1222000Y863500D02*
D03*
X1208000D02*
D03*
X996500Y780000D02*
D03*
X982500D02*
D03*
X996500Y830750D02*
D03*
X982500D02*
D03*
X996500Y805500D02*
D03*
X982500D02*
D03*
X996500Y881750D02*
D03*
X982500D02*
D03*
X996500Y856250D02*
D03*
X982500D02*
D03*
D43*
X1017750Y1002750D02*
D03*
D44*
X1040250Y950250D02*
D03*
X1017750D02*
D03*
X995250D02*
D03*
D45*
X1521160Y913780D02*
D03*
X1534160D02*
D03*
X1341120Y826150D02*
D03*
X1328120D02*
D03*
X1497330Y802020D02*
D03*
X1484330D02*
D03*
X1516080Y662320D02*
D03*
X1529080D02*
D03*
X1327150Y579770D02*
D03*
X1314150D02*
D03*
X1494790Y553100D02*
D03*
X1481790D02*
D03*
X1484330Y826150D02*
D03*
X1497330D02*
D03*
X1481790Y578500D02*
D03*
X1494790D02*
D03*
D46*
X1356210Y812330D02*
D03*
Y799330D02*
D03*
Y784390D02*
D03*
Y771390D02*
D03*
X1348590Y563560D02*
D03*
Y550560D02*
D03*
Y532780D02*
D03*
Y519780D02*
D03*
D47*
X1595847Y1151890D02*
D03*
X1628613D02*
D03*
X1104633Y986000D02*
D03*
X1071867D02*
D03*
D48*
X1268330Y884020D02*
D03*
D49*
X961250Y619500D02*
D03*
Y605530D02*
D03*
Y633470D02*
D03*
X912250Y620250D02*
D03*
Y606280D02*
D03*
Y634220D02*
D03*
D50*
X1260500Y809250D02*
D03*
X1279500D02*
D03*
X1270000Y831250D02*
D03*
X1214000Y809250D02*
D03*
X1233000D02*
D03*
X1223500Y831250D02*
D03*
D51*
X1129800Y658910D02*
D03*
D52*
X1204800Y733910D02*
D03*
X1192100D02*
D03*
X1179400D02*
D03*
X1166700D02*
D03*
X1154000D02*
D03*
X1141300D02*
D03*
X1128600D02*
D03*
X1115900D02*
D03*
X1103200D02*
D03*
X1090500D02*
D03*
X1077800D02*
D03*
X1065100D02*
D03*
X1052400D02*
D03*
X1039700D02*
D03*
Y563910D02*
D03*
X1052400D02*
D03*
X1065100D02*
D03*
X1077800D02*
D03*
X1090500D02*
D03*
X1103200D02*
D03*
X1115900D02*
D03*
X1128600D02*
D03*
X1141300D02*
D03*
X1154000D02*
D03*
X1166700D02*
D03*
X1179400D02*
D03*
X1192100D02*
D03*
X1204800D02*
D03*
D53*
X1029700Y706060D02*
D03*
Y693360D02*
D03*
Y680660D02*
D03*
Y667960D02*
D03*
Y655260D02*
D03*
Y642560D02*
D03*
Y629860D02*
D03*
Y617160D02*
D03*
Y604460D02*
D03*
Y591760D02*
D03*
D54*
X1067250Y1037630D02*
D03*
Y1021630D02*
D03*
D55*
X1284250Y499500D02*
D03*
X1239850Y499000D02*
D03*
X1484500Y507500D02*
D03*
X1625495Y553100D02*
D03*
X1627250Y1129750D02*
D03*
X1327500Y798000D02*
D03*
X1302750Y548625D02*
D03*
X1363250Y563000D02*
D03*
X1537250Y1078250D02*
D03*
X1486500Y623750D02*
D03*
X1625250Y802020D02*
D03*
X1520750Y772500D02*
D03*
D56*
X1661750Y1153500D02*
D03*
D57*
X1721750D02*
D03*
D58*
X1691750Y1200500D02*
D03*
D59*
X1552250Y1197200D02*
D03*
D60*
Y1171800D02*
D03*
D61*
X1698500Y548500D02*
D03*
X1698500Y798500D02*
D03*
D62*
X1658500Y508500D02*
D03*
Y588500D02*
D03*
X1738500Y508500D02*
D03*
Y588500D02*
D03*
X1658500Y758500D02*
D03*
Y838500D02*
D03*
X1738500Y758500D02*
D03*
Y838500D02*
D03*
D63*
X947250Y779950D02*
D03*
X921850D02*
D03*
X947250Y805350D02*
D03*
X921850D02*
D03*
X947250Y830750D02*
D03*
X921850D02*
D03*
X947250Y856150D02*
D03*
X921850D02*
D03*
X947250Y881550D02*
D03*
X1059600Y885800D02*
D03*
X1085000D02*
D03*
X1059600Y860400D02*
D03*
X1085000D02*
D03*
X1059600Y835000D02*
D03*
X1085000D02*
D03*
X1059600Y809600D02*
D03*
X1085000D02*
D03*
X1059600Y784200D02*
D03*
X963300Y578500D02*
D03*
X937900D02*
D03*
X912500D02*
D03*
X887100D02*
D03*
X912500Y541000D02*
D03*
X937900D02*
D03*
X963300D02*
D03*
X988700D02*
D03*
X1016250Y1137350D02*
D03*
Y1162750D02*
D03*
Y1188150D02*
D03*
X1291750Y525500D02*
D03*
X1266350D02*
D03*
X1240950D02*
D03*
X1537500Y1019600D02*
D03*
X1377800Y578500D02*
D03*
Y553100D02*
D03*
Y527700D02*
D03*
X1454000Y603900D02*
D03*
Y578500D02*
D03*
Y553100D02*
D03*
Y527700D02*
D03*
X1381610Y827420D02*
D03*
Y802020D02*
D03*
Y776620D02*
D03*
X1457810Y852820D02*
D03*
Y827420D02*
D03*
Y802020D02*
D03*
Y776620D02*
D03*
X1497330Y1019060D02*
D03*
X1102360D02*
D03*
X1497330Y1190510D02*
D03*
X1101090D02*
D03*
X850750Y1017050D02*
D03*
Y1042450D02*
D03*
Y1067850D02*
D03*
D64*
X921850Y881550D02*
D03*
X1085000Y784200D02*
D03*
X1016250Y1111950D02*
D03*
X1537500Y1045000D02*
D03*
X850750Y1093250D02*
D03*
D65*
X988700Y578500D02*
D03*
X887100Y541000D02*
D03*
X1317150Y525500D02*
D03*
X1377800Y603900D02*
D03*
X1381610Y852820D02*
D03*
D66*
X1528930Y857900D02*
D03*
X1578930D02*
D03*
X1526790Y608980D02*
D03*
X1576790D02*
D03*
D67*
X1765750Y1018625D02*
D03*
Y948375D02*
D03*
D68*
X1735750Y1007750D02*
D03*
Y959250D02*
D03*
D69*
X1175000Y875000D02*
D03*
M02*
