G04*
G04 #@! TF.GenerationSoftware,Altium Limited,Altium Designer,21.0.9 (235)*
G04*
G04 Layer_Color=32896*
%FSLAX44Y44*%
%MOMM*%
G71*
G04*
G04 #@! TF.SameCoordinates,BC5F0FA3-8C3F-41DD-A052-AF4356C4A8CD*
G04*
G04*
G04 #@! TF.FilePolarity,Positive*
G04*
G01*
G75*
%ADD10C,0.2500*%
%ADD11C,0.2000*%
%ADD16C,0.1524*%
G36*
X1398430Y542875D02*
X1398333Y542681D01*
X1398250Y542514D01*
X1398167Y542376D01*
X1398098Y542265D01*
X1398056Y542196D01*
X1398042Y542168D01*
X1397917Y541946D01*
X1397793Y541752D01*
X1397668Y541558D01*
X1397571Y541391D01*
X1397473Y541253D01*
X1397404Y541155D01*
X1397363Y541086D01*
X1397349Y541058D01*
X1397224Y540864D01*
X1397099Y540684D01*
X1396988Y540518D01*
X1396877Y540379D01*
X1396794Y540268D01*
X1396725Y540171D01*
X1396683Y540115D01*
X1396669Y540101D01*
X1396558Y539949D01*
X1396447Y539796D01*
X1396364Y539685D01*
X1396281Y539574D01*
X1396225Y539505D01*
X1396184Y539436D01*
X1396156Y539408D01*
X1396142Y539394D01*
X1396475Y539255D01*
X1396766Y539103D01*
X1397016Y538950D01*
X1397210Y538784D01*
X1397363Y538645D01*
X1397487Y538534D01*
X1397543Y538451D01*
X1397571Y538437D01*
Y538423D01*
X1397737Y538174D01*
X1397862Y537896D01*
X1397945Y537633D01*
X1398014Y537383D01*
X1398042Y537175D01*
X1398056Y537078D01*
Y536995D01*
X1398070Y536926D01*
Y536884D01*
Y536856D01*
Y536842D01*
X1398056Y536579D01*
X1398028Y536329D01*
X1397973Y536093D01*
X1397903Y535885D01*
X1397834Y535691D01*
X1397751Y535511D01*
X1397654Y535345D01*
X1397557Y535206D01*
X1397460Y535067D01*
X1397363Y534956D01*
X1397279Y534859D01*
X1397210Y534790D01*
X1397141Y534734D01*
X1397085Y534679D01*
X1397057Y534665D01*
X1397044Y534651D01*
X1396836Y534526D01*
X1396628Y534402D01*
X1396392Y534304D01*
X1396142Y534221D01*
X1395643Y534096D01*
X1395171Y534013D01*
X1394949Y533972D01*
X1394741Y533958D01*
X1394547Y533944D01*
X1394381Y533930D01*
X1394256Y533916D01*
X1394062D01*
X1393632Y533930D01*
X1393424D01*
X1393244Y533944D01*
X1393077Y533958D01*
X1392939D01*
X1392855Y533972D01*
X1392828D01*
X1392578Y533985D01*
X1392356Y534013D01*
X1392148Y534041D01*
X1391968Y534082D01*
X1391815Y534110D01*
X1391704Y534124D01*
X1391635Y534152D01*
X1391607D01*
Y543263D01*
X1392897D01*
Y539644D01*
X1394797D01*
X1394991Y539879D01*
X1395088Y540004D01*
X1395171Y540115D01*
X1395241Y540212D01*
X1395296Y540296D01*
X1395338Y540351D01*
X1395352Y540365D01*
X1395587Y540670D01*
X1395698Y540823D01*
X1395795Y540961D01*
X1395879Y541072D01*
X1395934Y541169D01*
X1395976Y541225D01*
X1395990Y541253D01*
X1396225Y541613D01*
X1396322Y541780D01*
X1396420Y541932D01*
X1396503Y542057D01*
X1396558Y542154D01*
X1396600Y542223D01*
X1396614Y542251D01*
X1396836Y542626D01*
X1396947Y542792D01*
X1397030Y542944D01*
X1397099Y543083D01*
X1397168Y543180D01*
X1397196Y543236D01*
X1397210Y543263D01*
X1398625D01*
X1398430Y542875D01*
D02*
G37*
G36*
X1405406Y542209D02*
X1401135D01*
X1401149Y542126D01*
X1401163Y542029D01*
X1401232Y541863D01*
X1401260Y541793D01*
X1401287Y541738D01*
X1401301Y541696D01*
X1401315Y541682D01*
X1401468Y541447D01*
X1401537Y541350D01*
X1401606Y541253D01*
X1401662Y541169D01*
X1401717Y541100D01*
X1401745Y541058D01*
X1401759Y541045D01*
X1401967Y540809D01*
X1402064Y540698D01*
X1402147Y540601D01*
X1402216Y540518D01*
X1402272Y540462D01*
X1402314Y540420D01*
X1402327Y540406D01*
X1402536Y540185D01*
X1402633Y540101D01*
X1402716Y540018D01*
X1402771Y539949D01*
X1402827Y539907D01*
X1402854Y539879D01*
X1402868Y539866D01*
X1403160Y539574D01*
X1403298Y539436D01*
X1403423Y539311D01*
X1403520Y539200D01*
X1403603Y539117D01*
X1403659Y539061D01*
X1403673Y539047D01*
X1403950Y538728D01*
X1404075Y538590D01*
X1404186Y538451D01*
X1404269Y538340D01*
X1404338Y538257D01*
X1404380Y538201D01*
X1404394Y538188D01*
X1404616Y537869D01*
X1404699Y537716D01*
X1404768Y537591D01*
X1404824Y537480D01*
X1404865Y537383D01*
X1404893Y537328D01*
X1404907Y537314D01*
X1404976Y537147D01*
X1405018Y536967D01*
X1405060Y536815D01*
X1405073Y536676D01*
X1405087Y536551D01*
X1405101Y536454D01*
Y536399D01*
Y536371D01*
X1405087Y536149D01*
X1405073Y535941D01*
X1404990Y535553D01*
X1404935Y535386D01*
X1404865Y535234D01*
X1404796Y535095D01*
X1404740Y534956D01*
X1404671Y534845D01*
X1404602Y534748D01*
X1404532Y534665D01*
X1404477Y534596D01*
X1404435Y534540D01*
X1404394Y534499D01*
X1404380Y534485D01*
X1404366Y534471D01*
X1404227Y534346D01*
X1404061Y534249D01*
X1403895Y534152D01*
X1403714Y534082D01*
X1403354Y533958D01*
X1402993Y533875D01*
X1402827Y533847D01*
X1402674Y533833D01*
X1402536Y533805D01*
X1402411D01*
X1402314Y533791D01*
X1401995D01*
X1401828Y533805D01*
X1401676Y533833D01*
X1401537Y533847D01*
X1401426Y533875D01*
X1401343Y533902D01*
X1401287Y533916D01*
X1401273D01*
X1400982Y534013D01*
X1400857Y534069D01*
X1400746Y534110D01*
X1400649Y534152D01*
X1400580Y534193D01*
X1400538Y534207D01*
X1400525Y534221D01*
X1400289Y534346D01*
X1400192Y534402D01*
X1400108Y534457D01*
X1400039Y534512D01*
X1399984Y534554D01*
X1399956Y534568D01*
X1399942Y534582D01*
X1399789Y534707D01*
X1399679Y534818D01*
X1399623Y534873D01*
X1399595Y534901D01*
X1400206Y535788D01*
X1400289Y535719D01*
X1400372Y535636D01*
X1400441Y535580D01*
X1400469Y535553D01*
X1400608Y535442D01*
X1400746Y535345D01*
X1400816Y535317D01*
X1400857Y535289D01*
X1400885Y535261D01*
X1400899D01*
X1401107Y535164D01*
X1401287Y535081D01*
X1401371Y535053D01*
X1401426Y535026D01*
X1401468Y535012D01*
X1401481D01*
X1401731Y534942D01*
X1401842Y534929D01*
X1401953Y534915D01*
X1402050Y534901D01*
X1402189D01*
X1402424Y534915D01*
X1402522Y534929D01*
X1402619Y534942D01*
X1402688Y534970D01*
X1402744Y534984D01*
X1402785Y534998D01*
X1402799D01*
X1403007Y535081D01*
X1403160Y535164D01*
X1403215Y535206D01*
X1403257Y535247D01*
X1403284Y535261D01*
X1403298Y535275D01*
X1403451Y535428D01*
X1403562Y535566D01*
X1403589Y535636D01*
X1403617Y535691D01*
X1403645Y535719D01*
Y535733D01*
X1403728Y535955D01*
X1403770Y536177D01*
X1403784Y536274D01*
Y536343D01*
Y536399D01*
Y536412D01*
Y536551D01*
X1403756Y536676D01*
X1403742Y536801D01*
X1403714Y536912D01*
X1403687Y536995D01*
X1403659Y537064D01*
X1403645Y537106D01*
X1403631Y537120D01*
X1403520Y537355D01*
X1403451Y537466D01*
X1403395Y537564D01*
X1403340Y537647D01*
X1403298Y537716D01*
X1403271Y537758D01*
X1403257Y537771D01*
X1403076Y538007D01*
X1402979Y538118D01*
X1402896Y538215D01*
X1402827Y538285D01*
X1402771Y538354D01*
X1402730Y538396D01*
X1402716Y538410D01*
X1402494Y538631D01*
X1402383Y538742D01*
X1402286Y538839D01*
X1402203Y538923D01*
X1402133Y538978D01*
X1402092Y539020D01*
X1402078Y539034D01*
X1401787Y539339D01*
X1401648Y539477D01*
X1401523Y539602D01*
X1401412Y539713D01*
X1401329Y539796D01*
X1401273Y539852D01*
X1401260Y539866D01*
X1400968Y540185D01*
X1400844Y540337D01*
X1400733Y540490D01*
X1400636Y540601D01*
X1400566Y540698D01*
X1400525Y540753D01*
X1400511Y540781D01*
X1400289Y541142D01*
X1400192Y541308D01*
X1400122Y541460D01*
X1400053Y541599D01*
X1400011Y541696D01*
X1399984Y541766D01*
X1399970Y541793D01*
X1399901Y542001D01*
X1399859Y542209D01*
X1399817Y542404D01*
X1399803Y542584D01*
X1399789Y542736D01*
X1399776Y542847D01*
Y542931D01*
Y542944D01*
Y542958D01*
Y543055D01*
Y543097D01*
Y543111D01*
Y543166D01*
Y543222D01*
Y543250D01*
Y543263D01*
X1405406D01*
Y542209D01*
D02*
G37*
G36*
X1410413Y543444D02*
X1410662Y543402D01*
X1410898Y543347D01*
X1411120Y543263D01*
X1411328Y543166D01*
X1411508Y543055D01*
X1411675Y542944D01*
X1411827Y542834D01*
X1411966Y542723D01*
X1412091Y542598D01*
X1412188Y542501D01*
X1412271Y542404D01*
X1412340Y542320D01*
X1412382Y542265D01*
X1412410Y542223D01*
X1412424Y542209D01*
X1412576Y541960D01*
X1412701Y541696D01*
X1412812Y541419D01*
X1412909Y541128D01*
X1412992Y540823D01*
X1413048Y540531D01*
X1413103Y540240D01*
X1413159Y539949D01*
X1413186Y539685D01*
X1413214Y539436D01*
X1413228Y539214D01*
X1413242Y539020D01*
X1413256Y538853D01*
Y538728D01*
Y538659D01*
Y538631D01*
X1413242Y538201D01*
X1413214Y537813D01*
X1413172Y537439D01*
X1413131Y537092D01*
X1413062Y536773D01*
X1412992Y536482D01*
X1412923Y536204D01*
X1412840Y535969D01*
X1412757Y535761D01*
X1412687Y535566D01*
X1412618Y535414D01*
X1412549Y535289D01*
X1412507Y535178D01*
X1412465Y535109D01*
X1412437Y535067D01*
X1412424Y535053D01*
X1412257Y534831D01*
X1412091Y534637D01*
X1411911Y534471D01*
X1411730Y534318D01*
X1411536Y534207D01*
X1411342Y534096D01*
X1411162Y534013D01*
X1410981Y533944D01*
X1410815Y533902D01*
X1410648Y533861D01*
X1410510Y533833D01*
X1410385Y533805D01*
X1410288D01*
X1410219Y533791D01*
X1410149D01*
X1409886Y533805D01*
X1409636Y533847D01*
X1409400Y533902D01*
X1409178Y533985D01*
X1408970Y534082D01*
X1408790Y534193D01*
X1408624Y534304D01*
X1408471Y534415D01*
X1408333Y534540D01*
X1408208Y534651D01*
X1408111Y534762D01*
X1408027Y534859D01*
X1407958Y534942D01*
X1407916Y534998D01*
X1407889Y535039D01*
X1407875Y535053D01*
X1407736Y535303D01*
X1407611Y535566D01*
X1407500Y535844D01*
X1407403Y536135D01*
X1407320Y536440D01*
X1407251Y536731D01*
X1407209Y537023D01*
X1407154Y537314D01*
X1407126Y537577D01*
X1407098Y537827D01*
X1407084Y538049D01*
X1407070Y538243D01*
X1407057Y538410D01*
Y538534D01*
Y538604D01*
Y538631D01*
X1407070Y539061D01*
X1407098Y539450D01*
X1407126Y539824D01*
X1407181Y540171D01*
X1407251Y540490D01*
X1407320Y540781D01*
X1407389Y541058D01*
X1407473Y541294D01*
X1407542Y541502D01*
X1407611Y541696D01*
X1407681Y541849D01*
X1407750Y541974D01*
X1407805Y542085D01*
X1407833Y542154D01*
X1407861Y542196D01*
X1407875Y542209D01*
X1408041Y542431D01*
X1408208Y542626D01*
X1408388Y542792D01*
X1408582Y542931D01*
X1408762Y543055D01*
X1408956Y543153D01*
X1409137Y543236D01*
X1409317Y543305D01*
X1409483Y543347D01*
X1409650Y543388D01*
X1409789Y543416D01*
X1409913Y543444D01*
X1410011D01*
X1410080Y543458D01*
X1410149D01*
X1410413Y543444D01*
D02*
G37*
G36*
X1417937Y842375D02*
X1418173Y842139D01*
X1418395Y841945D01*
X1418589Y841778D01*
X1418769Y841640D01*
X1418908Y841543D01*
X1418963Y841501D01*
X1419005Y841487D01*
X1419019Y841459D01*
X1419033D01*
X1419296Y841293D01*
X1419560Y841154D01*
X1419809Y841015D01*
X1420031Y840918D01*
X1420225Y840821D01*
X1420378Y840766D01*
X1420433Y840738D01*
X1420475Y840724D01*
X1420489Y840710D01*
X1420503D01*
X1420128Y839781D01*
X1419920Y839850D01*
X1419726Y839920D01*
X1419657Y839961D01*
X1419601Y839975D01*
X1419560Y840003D01*
X1419546D01*
X1419324Y840100D01*
X1419227Y840156D01*
X1419144Y840197D01*
X1419074Y840225D01*
X1419019Y840253D01*
X1418991Y840281D01*
X1418977D01*
X1418783Y840391D01*
X1418617Y840489D01*
X1418547Y840530D01*
X1418506Y840558D01*
X1418478Y840586D01*
X1418464D01*
X1418298Y840710D01*
X1418173Y840807D01*
X1418090Y840863D01*
X1418076Y840891D01*
X1418062D01*
Y833374D01*
X1416814D01*
Y842624D01*
X1417701D01*
X1417937Y842375D01*
D02*
G37*
G36*
X1426979Y842707D02*
X1427187D01*
X1427368Y842694D01*
X1427534Y842680D01*
X1427673D01*
X1427756Y842666D01*
X1427784D01*
X1428033Y842652D01*
X1428255Y842624D01*
X1428463Y842597D01*
X1428643Y842555D01*
X1428796Y842527D01*
X1428907Y842513D01*
X1428976Y842486D01*
X1429004D01*
Y833374D01*
X1427714D01*
Y836994D01*
X1425814D01*
X1425620Y836758D01*
X1425523Y836633D01*
X1425440Y836522D01*
X1425370Y836425D01*
X1425315Y836342D01*
X1425273Y836286D01*
X1425260Y836273D01*
X1425024Y835967D01*
X1424913Y835815D01*
X1424816Y835676D01*
X1424733Y835565D01*
X1424677Y835468D01*
X1424635Y835413D01*
X1424622Y835385D01*
X1424386Y835024D01*
X1424289Y834858D01*
X1424192Y834705D01*
X1424108Y834581D01*
X1424053Y834483D01*
X1424011Y834414D01*
X1423997Y834386D01*
X1423776Y834012D01*
X1423665Y833846D01*
X1423582Y833693D01*
X1423512Y833554D01*
X1423443Y833457D01*
X1423415Y833402D01*
X1423401Y833374D01*
X1421987D01*
X1422181Y833762D01*
X1422278Y833957D01*
X1422361Y834123D01*
X1422444Y834262D01*
X1422514Y834372D01*
X1422555Y834442D01*
X1422569Y834470D01*
X1422694Y834691D01*
X1422819Y834886D01*
X1422944Y835080D01*
X1423041Y835246D01*
X1423138Y835385D01*
X1423207Y835482D01*
X1423249Y835551D01*
X1423262Y835579D01*
X1423387Y835773D01*
X1423512Y835954D01*
X1423623Y836120D01*
X1423734Y836259D01*
X1423817Y836370D01*
X1423887Y836467D01*
X1423928Y836522D01*
X1423942Y836536D01*
X1424053Y836689D01*
X1424164Y836841D01*
X1424247Y836952D01*
X1424330Y837063D01*
X1424386Y837132D01*
X1424427Y837202D01*
X1424455Y837229D01*
X1424469Y837243D01*
X1424136Y837382D01*
X1423845Y837534D01*
X1423595Y837687D01*
X1423401Y837853D01*
X1423249Y837992D01*
X1423124Y838103D01*
X1423068Y838186D01*
X1423041Y838200D01*
Y838214D01*
X1422874Y838464D01*
X1422749Y838741D01*
X1422666Y839005D01*
X1422597Y839254D01*
X1422569Y839462D01*
X1422555Y839559D01*
Y839642D01*
X1422541Y839712D01*
Y839753D01*
Y839781D01*
Y839795D01*
X1422555Y840059D01*
X1422583Y840308D01*
X1422638Y840544D01*
X1422708Y840752D01*
X1422777Y840946D01*
X1422860Y841126D01*
X1422957Y841293D01*
X1423055Y841432D01*
X1423152Y841570D01*
X1423249Y841681D01*
X1423332Y841778D01*
X1423401Y841848D01*
X1423470Y841903D01*
X1423526Y841958D01*
X1423554Y841972D01*
X1423568Y841986D01*
X1423776Y842111D01*
X1423984Y842236D01*
X1424219Y842333D01*
X1424469Y842416D01*
X1424968Y842541D01*
X1425440Y842624D01*
X1425662Y842666D01*
X1425870Y842680D01*
X1426064Y842694D01*
X1426230Y842707D01*
X1426355Y842721D01*
X1426549D01*
X1426979Y842707D01*
D02*
G37*
G36*
X1410725Y842832D02*
X1410975Y842791D01*
X1411211Y842735D01*
X1411433Y842652D01*
X1411641Y842555D01*
X1411821Y842444D01*
X1411987Y842333D01*
X1412140Y842222D01*
X1412279Y842097D01*
X1412404Y841986D01*
X1412501Y841875D01*
X1412584Y841778D01*
X1412653Y841695D01*
X1412695Y841640D01*
X1412722Y841598D01*
X1412736Y841584D01*
X1412875Y841335D01*
X1413000Y841071D01*
X1413111Y840794D01*
X1413208Y840502D01*
X1413291Y840197D01*
X1413360Y839906D01*
X1413402Y839615D01*
X1413457Y839324D01*
X1413485Y839060D01*
X1413513Y838810D01*
X1413527Y838588D01*
X1413541Y838394D01*
X1413555Y838228D01*
Y838103D01*
Y838034D01*
Y838006D01*
X1413541Y837576D01*
X1413513Y837188D01*
X1413485Y836813D01*
X1413430Y836467D01*
X1413360Y836148D01*
X1413291Y835856D01*
X1413222Y835579D01*
X1413139Y835343D01*
X1413069Y835135D01*
X1413000Y834941D01*
X1412930Y834789D01*
X1412861Y834664D01*
X1412806Y834553D01*
X1412778Y834483D01*
X1412750Y834442D01*
X1412736Y834428D01*
X1412570Y834206D01*
X1412404Y834012D01*
X1412223Y833846D01*
X1412029Y833707D01*
X1411849Y833582D01*
X1411655Y833485D01*
X1411474Y833402D01*
X1411294Y833332D01*
X1411128Y833291D01*
X1410961Y833249D01*
X1410822Y833221D01*
X1410698Y833194D01*
X1410601D01*
X1410531Y833180D01*
X1410462D01*
X1410198Y833194D01*
X1409949Y833235D01*
X1409713Y833291D01*
X1409491Y833374D01*
X1409283Y833471D01*
X1409103Y833582D01*
X1408936Y833693D01*
X1408784Y833804D01*
X1408645Y833915D01*
X1408520Y834040D01*
X1408423Y834137D01*
X1408340Y834234D01*
X1408271Y834317D01*
X1408229Y834372D01*
X1408201Y834414D01*
X1408188Y834428D01*
X1408035Y834678D01*
X1407910Y834941D01*
X1407799Y835219D01*
X1407702Y835510D01*
X1407619Y835815D01*
X1407563Y836106D01*
X1407508Y836397D01*
X1407453Y836689D01*
X1407425Y836952D01*
X1407397Y837202D01*
X1407383Y837424D01*
X1407369Y837618D01*
X1407355Y837784D01*
Y837909D01*
Y837978D01*
Y838006D01*
X1407369Y838436D01*
X1407397Y838824D01*
X1407439Y839199D01*
X1407480Y839545D01*
X1407550Y839864D01*
X1407619Y840156D01*
X1407688Y840433D01*
X1407771Y840669D01*
X1407855Y840877D01*
X1407924Y841071D01*
X1407993Y841224D01*
X1408063Y841348D01*
X1408104Y841459D01*
X1408146Y841529D01*
X1408174Y841570D01*
X1408188Y841584D01*
X1408354Y841806D01*
X1408520Y842000D01*
X1408701Y842167D01*
X1408881Y842319D01*
X1409075Y842430D01*
X1409269Y842541D01*
X1409450Y842624D01*
X1409630Y842694D01*
X1409796Y842735D01*
X1409963Y842777D01*
X1410101Y842804D01*
X1410226Y842832D01*
X1410323D01*
X1410393Y842846D01*
X1410462D01*
X1410725Y842832D01*
D02*
G37*
G36*
X1784982Y1046286D02*
X1785135Y1046258D01*
X1785274Y1046245D01*
X1785385Y1046217D01*
X1785468Y1046189D01*
X1785523Y1046175D01*
X1785537D01*
X1785828Y1046078D01*
X1785953Y1046023D01*
X1786064Y1045981D01*
X1786161Y1045939D01*
X1786231Y1045898D01*
X1786272Y1045884D01*
X1786286Y1045870D01*
X1786522Y1045745D01*
X1786619Y1045690D01*
X1786702Y1045634D01*
X1786771Y1045579D01*
X1786827Y1045537D01*
X1786855Y1045524D01*
X1786868Y1045510D01*
X1787021Y1045385D01*
X1787132Y1045274D01*
X1787188Y1045218D01*
X1787215Y1045191D01*
X1786605Y1044303D01*
X1786522Y1044372D01*
X1786439Y1044456D01*
X1786369Y1044511D01*
X1786342Y1044539D01*
X1786203Y1044650D01*
X1786064Y1044747D01*
X1785995Y1044775D01*
X1785953Y1044802D01*
X1785925Y1044830D01*
X1785912D01*
X1785704Y1044927D01*
X1785523Y1045010D01*
X1785440Y1045038D01*
X1785385Y1045066D01*
X1785343Y1045080D01*
X1785329D01*
X1785079Y1045149D01*
X1784969Y1045163D01*
X1784858Y1045177D01*
X1784760Y1045191D01*
X1784622D01*
X1784386Y1045177D01*
X1784289Y1045163D01*
X1784192Y1045149D01*
X1784123Y1045121D01*
X1784067Y1045107D01*
X1784026Y1045094D01*
X1784012D01*
X1783804Y1045010D01*
X1783651Y1044927D01*
X1783596Y1044885D01*
X1783554Y1044844D01*
X1783526Y1044830D01*
X1783512Y1044816D01*
X1783360Y1044664D01*
X1783249Y1044525D01*
X1783221Y1044456D01*
X1783193Y1044400D01*
X1783166Y1044372D01*
Y1044359D01*
X1783082Y1044137D01*
X1783041Y1043915D01*
X1783027Y1043818D01*
Y1043748D01*
Y1043693D01*
Y1043679D01*
Y1043540D01*
X1783055Y1043416D01*
X1783069Y1043291D01*
X1783096Y1043180D01*
X1783124Y1043096D01*
X1783152Y1043027D01*
X1783166Y1042986D01*
X1783179Y1042972D01*
X1783291Y1042736D01*
X1783360Y1042625D01*
X1783415Y1042528D01*
X1783471Y1042445D01*
X1783512Y1042375D01*
X1783540Y1042334D01*
X1783554Y1042320D01*
X1783734Y1042084D01*
X1783831Y1041973D01*
X1783914Y1041876D01*
X1783984Y1041807D01*
X1784039Y1041737D01*
X1784081Y1041696D01*
X1784095Y1041682D01*
X1784317Y1041460D01*
X1784428Y1041349D01*
X1784525Y1041252D01*
X1784608Y1041169D01*
X1784677Y1041113D01*
X1784719Y1041072D01*
X1784733Y1041058D01*
X1785024Y1040753D01*
X1785163Y1040614D01*
X1785287Y1040489D01*
X1785399Y1040378D01*
X1785482Y1040295D01*
X1785537Y1040240D01*
X1785551Y1040226D01*
X1785842Y1039907D01*
X1785967Y1039754D01*
X1786078Y1039602D01*
X1786175Y1039491D01*
X1786244Y1039394D01*
X1786286Y1039338D01*
X1786300Y1039310D01*
X1786522Y1038950D01*
X1786619Y1038783D01*
X1786688Y1038631D01*
X1786758Y1038492D01*
X1786799Y1038395D01*
X1786827Y1038326D01*
X1786841Y1038298D01*
X1786910Y1038090D01*
X1786952Y1037882D01*
X1786993Y1037688D01*
X1787007Y1037508D01*
X1787021Y1037355D01*
X1787035Y1037244D01*
Y1037161D01*
Y1037147D01*
Y1037133D01*
Y1037036D01*
Y1036994D01*
Y1036981D01*
Y1036925D01*
Y1036870D01*
Y1036842D01*
Y1036828D01*
X1781404D01*
Y1037882D01*
X1785676D01*
X1785662Y1037965D01*
X1785648Y1038062D01*
X1785579Y1038229D01*
X1785551Y1038298D01*
X1785523Y1038354D01*
X1785509Y1038395D01*
X1785495Y1038409D01*
X1785343Y1038645D01*
X1785274Y1038742D01*
X1785204Y1038839D01*
X1785149Y1038922D01*
X1785093Y1038991D01*
X1785066Y1039033D01*
X1785052Y1039047D01*
X1784844Y1039283D01*
X1784747Y1039394D01*
X1784663Y1039491D01*
X1784594Y1039574D01*
X1784539Y1039629D01*
X1784497Y1039671D01*
X1784483Y1039685D01*
X1784275Y1039907D01*
X1784178Y1039990D01*
X1784095Y1040073D01*
X1784039Y1040143D01*
X1783984Y1040184D01*
X1783956Y1040212D01*
X1783942Y1040226D01*
X1783651Y1040517D01*
X1783512Y1040656D01*
X1783387Y1040780D01*
X1783291Y1040891D01*
X1783207Y1040975D01*
X1783152Y1041030D01*
X1783138Y1041044D01*
X1782861Y1041363D01*
X1782736Y1041502D01*
X1782625Y1041640D01*
X1782542Y1041751D01*
X1782472Y1041834D01*
X1782431Y1041890D01*
X1782417Y1041904D01*
X1782195Y1042223D01*
X1782112Y1042375D01*
X1782042Y1042500D01*
X1781987Y1042611D01*
X1781945Y1042708D01*
X1781918Y1042764D01*
X1781904Y1042777D01*
X1781834Y1042944D01*
X1781793Y1043124D01*
X1781751Y1043277D01*
X1781737Y1043416D01*
X1781723Y1043540D01*
X1781709Y1043637D01*
Y1043693D01*
Y1043721D01*
X1781723Y1043942D01*
X1781737Y1044150D01*
X1781820Y1044539D01*
X1781876Y1044705D01*
X1781945Y1044858D01*
X1782015Y1044996D01*
X1782070Y1045135D01*
X1782139Y1045246D01*
X1782209Y1045343D01*
X1782278Y1045426D01*
X1782334Y1045496D01*
X1782375Y1045551D01*
X1782417Y1045593D01*
X1782431Y1045607D01*
X1782444Y1045621D01*
X1782583Y1045745D01*
X1782750Y1045843D01*
X1782916Y1045939D01*
X1783096Y1046009D01*
X1783457Y1046134D01*
X1783817Y1046217D01*
X1783984Y1046245D01*
X1784136Y1046258D01*
X1784275Y1046286D01*
X1784400D01*
X1784497Y1046300D01*
X1784816D01*
X1784982Y1046286D01*
D02*
G37*
G36*
X1790308Y1039921D02*
Y1039713D01*
X1790322Y1039505D01*
X1790349Y1039324D01*
X1790377Y1039158D01*
X1790405Y1039019D01*
X1790447Y1038880D01*
X1790488Y1038756D01*
X1790530Y1038645D01*
X1790613Y1038478D01*
X1790682Y1038354D01*
X1790738Y1038284D01*
X1790752Y1038256D01*
X1790946Y1038090D01*
X1791154Y1037979D01*
X1791390Y1037896D01*
X1791625Y1037827D01*
X1791833Y1037799D01*
X1791931Y1037785D01*
X1792014D01*
X1792069Y1037771D01*
X1792166D01*
X1792402Y1037785D01*
X1792624Y1037799D01*
X1792818Y1037840D01*
X1792971Y1037882D01*
X1793109Y1037910D01*
X1793206Y1037951D01*
X1793262Y1037965D01*
X1793290Y1037979D01*
X1793442Y1038062D01*
X1793595Y1038146D01*
X1793706Y1038215D01*
X1793817Y1038284D01*
X1793900Y1038326D01*
X1793955Y1038367D01*
X1793997Y1038395D01*
X1794011Y1038409D01*
X1794510Y1037369D01*
X1794399Y1037286D01*
X1794288Y1037202D01*
X1794205Y1037147D01*
X1794177Y1037119D01*
X1794163D01*
X1793983Y1037036D01*
X1793803Y1036953D01*
X1793733Y1036925D01*
X1793678Y1036897D01*
X1793636Y1036883D01*
X1793622D01*
X1793387Y1036814D01*
X1793276Y1036786D01*
X1793165Y1036759D01*
X1793082Y1036745D01*
X1793012Y1036731D01*
X1792957Y1036717D01*
X1792943D01*
X1792652Y1036675D01*
X1792499Y1036648D01*
X1792374D01*
X1792263Y1036634D01*
X1792097D01*
X1791778Y1036648D01*
X1791487Y1036675D01*
X1791237Y1036703D01*
X1791015Y1036759D01*
X1790849Y1036800D01*
X1790724Y1036828D01*
X1790641Y1036856D01*
X1790613Y1036870D01*
X1790405Y1036967D01*
X1790211Y1037078D01*
X1790058Y1037189D01*
X1789920Y1037299D01*
X1789809Y1037397D01*
X1789739Y1037480D01*
X1789684Y1037535D01*
X1789670Y1037549D01*
X1789545Y1037716D01*
X1789434Y1037896D01*
X1789351Y1038062D01*
X1789282Y1038229D01*
X1789240Y1038354D01*
X1789198Y1038465D01*
X1789171Y1038534D01*
Y1038561D01*
X1789115Y1038783D01*
X1789088Y1038991D01*
X1789060Y1039200D01*
X1789032Y1039394D01*
Y1039560D01*
X1789018Y1039685D01*
Y1039768D01*
Y1039782D01*
Y1039796D01*
Y1046078D01*
X1790308D01*
Y1039921D01*
D02*
G37*
%LPC*%
G36*
X1394062Y538576D02*
X1392897D01*
Y535095D01*
X1393077Y535081D01*
X1393271Y535067D01*
X1393479D01*
X1393687Y535053D01*
X1394353D01*
X1394533Y535067D01*
X1394700Y535081D01*
X1394852Y535095D01*
X1394977Y535109D01*
X1395060Y535123D01*
X1395130Y535136D01*
X1395144D01*
X1395310Y535178D01*
X1395463Y535220D01*
X1395601Y535261D01*
X1395726Y535317D01*
X1395823Y535358D01*
X1395892Y535400D01*
X1395934Y535414D01*
X1395948Y535428D01*
X1396073Y535511D01*
X1396184Y535594D01*
X1396281Y535677D01*
X1396350Y535774D01*
X1396420Y535844D01*
X1396461Y535913D01*
X1396489Y535955D01*
X1396503Y535969D01*
X1396572Y536107D01*
X1396628Y536246D01*
X1396655Y536399D01*
X1396683Y536523D01*
X1396697Y536648D01*
X1396711Y536745D01*
Y536801D01*
Y536828D01*
X1396697Y537037D01*
X1396683Y537217D01*
X1396641Y537369D01*
X1396614Y537494D01*
X1396572Y537605D01*
X1396530Y537674D01*
X1396517Y537730D01*
X1396503Y537744D01*
X1396420Y537855D01*
X1396322Y537966D01*
X1396225Y538063D01*
X1396128Y538132D01*
X1396045Y538188D01*
X1395976Y538229D01*
X1395934Y538257D01*
X1395920Y538271D01*
X1395782Y538326D01*
X1395629Y538382D01*
X1395477Y538423D01*
X1395338Y538465D01*
X1395213Y538493D01*
X1395116Y538507D01*
X1395047Y538520D01*
X1395019D01*
X1394811Y538534D01*
X1394603Y538548D01*
X1394409Y538562D01*
X1394214D01*
X1394062Y538576D01*
D02*
G37*
G36*
X1410232Y542362D02*
X1410149D01*
X1409969Y542348D01*
X1409803Y542320D01*
X1409650Y542265D01*
X1409525Y542209D01*
X1409428Y542168D01*
X1409359Y542112D01*
X1409303Y542085D01*
X1409289Y542071D01*
X1409165Y541946D01*
X1409054Y541821D01*
X1408956Y541682D01*
X1408887Y541558D01*
X1408818Y541447D01*
X1408776Y541350D01*
X1408748Y541294D01*
X1408735Y541266D01*
X1408665Y541072D01*
X1408596Y540864D01*
X1408554Y540656D01*
X1408513Y540476D01*
X1408485Y540309D01*
X1408457Y540185D01*
X1408443Y540101D01*
Y540088D01*
Y540074D01*
X1408402Y539561D01*
X1408374Y539325D01*
Y539103D01*
X1408360Y538909D01*
Y538756D01*
Y538701D01*
Y538659D01*
Y538645D01*
Y538631D01*
Y538354D01*
X1408374Y538091D01*
X1408388Y537841D01*
X1408402Y537619D01*
X1408416Y537439D01*
X1408430Y537300D01*
Y537258D01*
X1408443Y537217D01*
Y537203D01*
Y537189D01*
X1408485Y536939D01*
X1408527Y536717D01*
X1408568Y536523D01*
X1408624Y536343D01*
X1408665Y536204D01*
X1408707Y536093D01*
X1408721Y536038D01*
X1408735Y536010D01*
X1408818Y535830D01*
X1408915Y535663D01*
X1408998Y535525D01*
X1409095Y535414D01*
X1409165Y535317D01*
X1409234Y535247D01*
X1409276Y535206D01*
X1409289Y535192D01*
X1409428Y535095D01*
X1409567Y535012D01*
X1409719Y534956D01*
X1409844Y534929D01*
X1409969Y534901D01*
X1410066Y534887D01*
X1410149D01*
X1410329Y534901D01*
X1410496Y534929D01*
X1410648Y534984D01*
X1410773Y535039D01*
X1410870Y535095D01*
X1410954Y535150D01*
X1410995Y535178D01*
X1411009Y535192D01*
X1411134Y535317D01*
X1411245Y535442D01*
X1411342Y535580D01*
X1411411Y535719D01*
X1411481Y535830D01*
X1411522Y535927D01*
X1411550Y535983D01*
X1411564Y536010D01*
X1411633Y536204D01*
X1411703Y536399D01*
X1411744Y536607D01*
X1411786Y536787D01*
X1411813Y536953D01*
X1411841Y537078D01*
X1411855Y537161D01*
Y537175D01*
Y537189D01*
X1411911Y537702D01*
X1411924Y537938D01*
X1411938Y538160D01*
X1411952Y538354D01*
Y538507D01*
Y538562D01*
Y538604D01*
Y538618D01*
Y538631D01*
Y538909D01*
X1411938Y539172D01*
X1411924Y539422D01*
X1411911Y539644D01*
X1411883Y539824D01*
X1411869Y539949D01*
Y540004D01*
X1411855Y540046D01*
Y540060D01*
Y540074D01*
X1411813Y540323D01*
X1411772Y540545D01*
X1411730Y540753D01*
X1411675Y540920D01*
X1411633Y541072D01*
X1411591Y541169D01*
X1411578Y541239D01*
X1411564Y541266D01*
X1411481Y541447D01*
X1411384Y541599D01*
X1411300Y541738D01*
X1411203Y541849D01*
X1411134Y541946D01*
X1411064Y542015D01*
X1411023Y542057D01*
X1411009Y542071D01*
X1410870Y542168D01*
X1410732Y542237D01*
X1410579Y542293D01*
X1410454Y542320D01*
X1410329Y542348D01*
X1410232Y542362D01*
D02*
G37*
G36*
X1426924Y841584D02*
X1426258D01*
X1426078Y841570D01*
X1425911Y841556D01*
X1425759Y841543D01*
X1425634Y841529D01*
X1425551Y841515D01*
X1425481Y841501D01*
X1425468D01*
X1425301Y841459D01*
X1425149Y841418D01*
X1425010Y841376D01*
X1424885Y841321D01*
X1424788Y841279D01*
X1424719Y841237D01*
X1424677Y841224D01*
X1424663Y841210D01*
X1424538Y841126D01*
X1424427Y841043D01*
X1424330Y840960D01*
X1424261Y840863D01*
X1424192Y840794D01*
X1424150Y840724D01*
X1424122Y840683D01*
X1424108Y840669D01*
X1424039Y840530D01*
X1423984Y840391D01*
X1423956Y840239D01*
X1423928Y840114D01*
X1423914Y839989D01*
X1423900Y839892D01*
Y839837D01*
Y839809D01*
X1423914Y839601D01*
X1423928Y839421D01*
X1423970Y839268D01*
X1423997Y839143D01*
X1424039Y839032D01*
X1424081Y838963D01*
X1424095Y838907D01*
X1424108Y838894D01*
X1424192Y838783D01*
X1424289Y838672D01*
X1424386Y838575D01*
X1424483Y838505D01*
X1424566Y838450D01*
X1424635Y838408D01*
X1424677Y838381D01*
X1424691Y838367D01*
X1424830Y838311D01*
X1424982Y838256D01*
X1425135Y838214D01*
X1425273Y838173D01*
X1425398Y838145D01*
X1425495Y838131D01*
X1425565Y838117D01*
X1425592D01*
X1425800Y838103D01*
X1426008Y838089D01*
X1426203Y838075D01*
X1426397D01*
X1426549Y838062D01*
X1427714D01*
Y841543D01*
X1427534Y841556D01*
X1427340Y841570D01*
X1427132D01*
X1426924Y841584D01*
D02*
G37*
G36*
X1410545Y841750D02*
X1410462D01*
X1410282Y841737D01*
X1410115Y841709D01*
X1409963Y841653D01*
X1409838Y841598D01*
X1409741Y841543D01*
X1409658Y841487D01*
X1409616Y841459D01*
X1409602Y841445D01*
X1409477Y841321D01*
X1409366Y841196D01*
X1409269Y841057D01*
X1409200Y840918D01*
X1409131Y840807D01*
X1409089Y840710D01*
X1409061Y840655D01*
X1409047Y840627D01*
X1408978Y840433D01*
X1408909Y840239D01*
X1408867Y840031D01*
X1408826Y839850D01*
X1408798Y839684D01*
X1408770Y839559D01*
X1408756Y839476D01*
Y839462D01*
Y839448D01*
X1408701Y838935D01*
X1408687Y838699D01*
X1408673Y838478D01*
X1408659Y838283D01*
Y838131D01*
Y838075D01*
Y838034D01*
Y838020D01*
Y838006D01*
Y837729D01*
X1408673Y837465D01*
X1408687Y837215D01*
X1408701Y836994D01*
X1408728Y836813D01*
X1408742Y836689D01*
Y836633D01*
X1408756Y836591D01*
Y836578D01*
Y836564D01*
X1408798Y836314D01*
X1408839Y836092D01*
X1408881Y835884D01*
X1408936Y835718D01*
X1408978Y835565D01*
X1409020Y835468D01*
X1409034Y835399D01*
X1409047Y835371D01*
X1409131Y835191D01*
X1409228Y835038D01*
X1409311Y834900D01*
X1409408Y834789D01*
X1409477Y834691D01*
X1409547Y834622D01*
X1409588Y834581D01*
X1409602Y834567D01*
X1409741Y834470D01*
X1409879Y834400D01*
X1410032Y834345D01*
X1410157Y834317D01*
X1410282Y834289D01*
X1410379Y834275D01*
X1410462D01*
X1410642Y834289D01*
X1410809Y834317D01*
X1410961Y834372D01*
X1411086Y834428D01*
X1411183Y834470D01*
X1411252Y834525D01*
X1411308Y834553D01*
X1411322Y834567D01*
X1411447Y834691D01*
X1411558Y834816D01*
X1411655Y834955D01*
X1411724Y835080D01*
X1411793Y835191D01*
X1411835Y835288D01*
X1411863Y835343D01*
X1411877Y835371D01*
X1411946Y835565D01*
X1412015Y835773D01*
X1412057Y835981D01*
X1412098Y836161D01*
X1412126Y836328D01*
X1412154Y836453D01*
X1412168Y836536D01*
Y836550D01*
Y836564D01*
X1412209Y837077D01*
X1412237Y837313D01*
Y837534D01*
X1412251Y837729D01*
Y837881D01*
Y837937D01*
Y837978D01*
Y837992D01*
Y838006D01*
Y838283D01*
X1412237Y838547D01*
X1412223Y838796D01*
X1412209Y839018D01*
X1412195Y839199D01*
X1412182Y839337D01*
Y839379D01*
X1412168Y839421D01*
Y839435D01*
Y839448D01*
X1412126Y839698D01*
X1412085Y839920D01*
X1412043Y840114D01*
X1411987Y840294D01*
X1411946Y840433D01*
X1411904Y840544D01*
X1411890Y840599D01*
X1411877Y840627D01*
X1411793Y840807D01*
X1411696Y840974D01*
X1411613Y841113D01*
X1411516Y841224D01*
X1411447Y841321D01*
X1411377Y841390D01*
X1411336Y841432D01*
X1411322Y841445D01*
X1411183Y841543D01*
X1411044Y841626D01*
X1410892Y841681D01*
X1410767Y841709D01*
X1410642Y841737D01*
X1410545Y841750D01*
D02*
G37*
%LPD*%
D10*
X1728000Y996500D02*
G03*
X1728000Y996500I-1250J0D01*
G01*
D11*
X1779480Y1021000D02*
X1793250D01*
Y946000D02*
Y1021000D01*
X1779480Y946000D02*
X1793250D01*
X1737250D02*
X1752020D01*
X1737250D02*
Y950010D01*
Y1016990D02*
Y1021000D01*
X1752020D01*
D16*
X1428210Y802220D02*
Y809720D01*
X1411210Y802220D02*
X1428210D01*
X1411210D02*
Y809720D01*
Y819720D02*
Y827220D01*
X1428210D01*
Y819720D02*
Y827220D01*
X1424400Y554570D02*
Y562070D01*
X1407400Y554570D02*
X1424400D01*
X1407400D02*
Y562070D01*
Y572070D02*
Y579570D01*
X1424400D01*
Y572070D02*
Y579570D01*
M02*
