M48
;Layer_Color=9474304
;FILE_FORMAT=4:4
METRIC,LZ
;TYPE=PLATED
T1F00S00C0.3000
T2F00S00C0.4000
T4F00S00C0.8200
T6F00S00C0.9000
T8F00S00C1.0200
T9F00S00C1.1000
T10F00S00C2.3000
%
T01
X01349Y0057219
X015175Y0057625
X0153275Y00576
X0154775Y0057625
X015605
X0149925Y0065725
Y0066475
Y0067225
X0149175
X0148425
X0147675
Y0066475
X0148425
Y0065725
X0147675
X0149175
Y0066475
X01281802Y00751302
X0127575Y00758
X01192301Y00754102
X010525Y007505
X0103925Y0075
X0104556Y00718534
X0105625Y007125
X010545Y006975
X010725Y0068875
X0101025Y0065525
X010105Y006425
Y0062975
X0099575Y0060675
X00982Y005985
X0097175Y0059
X0097575Y006195
X0093118Y00606356
X0088775Y00607
X0105225Y006075
X0113075Y00597
X0117925Y00585
X01176Y005015
X0116375
X0095275Y0050225
X0099875Y0071625
X0100525Y00723
X0099575Y007565
X0100425Y007655
X00968Y0077975
X0096875Y0080525
X00968Y00831
X00969Y0085625
X00968538Y0088155
X010405Y009285
X0105075
X010605Y0092825
X0107025
X010845Y0094225
Y0094975
Y0095725
Y0096475
Y0097225
X01175Y00875
X0117896Y0083525
X011655Y007965
X0114075Y0079525
X0089875Y010855
X01205Y0093775
X0121725Y0091925
X0122875
X0124Y009195
X012565Y0094625
X01313759Y00894539
X01342Y0080525
X01234Y008345
X011955Y008635
X01477Y0090575
Y0091325
X014845
Y0090575
X01492
Y0091325
Y0092075
X014845
X01477
X014995
Y0091325
Y0090575
X0152275Y00946
X01523Y0082575
X0153825Y008255
X0155325
X01566Y0082575
X01702406Y00983011
X01707915Y00977862
X0172Y00997
T02
X01625495Y005531
X014845Y005075
X014865Y0062375
X0152075Y007725
X0136325Y00563
X0130275Y00548625
X0128425Y004995
X0123985Y00499
X01172572Y00914
X013275Y00798
X0153725Y0107825
X0162725Y0112975
X0162525Y0080202
T04
X0152679Y0060898
X0157679
X0157893Y008579
X0152893
T06
X0124095Y005255
X0126635
X0129175
X0131715
X013778Y005277
Y005531
Y005785
Y006039
X01454
Y005785
Y005531
Y005277
X0145781Y0077662
X0138161
X01085Y007842
X010596
X0094725Y0077995
X0092185
X009125Y005785
X009379
X009633
X009887
Y00541
X009633
X009379
X009125
X008871
Y005785
X0092185Y0080535
X0094725
Y0083075
X0092185
Y0085615
X0094725
Y0088155
X0092185
X010596Y008858
X01085
Y008604
X010596
Y00835
X01085
Y008096
X010596
X0110236Y0101906
X0110109Y0119051
X0101625Y0118815
Y0116275
Y0113735
Y0111195
X0085075Y0109325
Y0106785
Y0104245
Y0101705
X0149733Y0101906
X015375Y010196
Y01045
X0149733Y0119051
X0145781Y0085282
Y0082742
Y0080202
X0138161
Y0082742
Y0085282
T08
X0155225Y011718
Y011972
T09
X016985Y005485
X016985Y007985
T10
X016585Y005085
Y005885
X017385
Y005085
X017385Y007585
X016585
Y008385
X017385
M30
