G04*
G04 #@! TF.GenerationSoftware,Altium Limited,Altium Designer,21.0.9 (235)*
G04*
G04 Layer_Color=16711935*
%FSLAX44Y44*%
%MOMM*%
G71*
G04*
G04 #@! TF.SameCoordinates,BC5F0FA3-8C3F-41DD-A052-AF4356C4A8CD*
G04*
G04*
G04 #@! TF.FilePolarity,Negative*
G04*
G01*
G75*
%ADD39R,99.5000X4.3250*%
%ADD45R,1.1032X1.0032*%
%ADD55O,1.7032X4.2032*%
%ADD56O,1.7032X3.7032*%
%ADD57O,3.7032X1.7032*%
%ADD58C,1.7532*%
%ADD59R,1.7532X1.7532*%
%ADD60R,1.7000X1.7000*%
%ADD61C,3.5000*%
%ADD62C,1.7032*%
%ADD63R,1.7032X1.7032*%
%ADD64R,1.7032X1.7032*%
%ADD65C,1.4032*%
%ADD66O,2.2032X1.5532*%
%ADD67O,1.4532X1.2532*%
%ADD68C,1.0032*%
%ADD69C,0.7032*%
%ADD87R,1.5532X0.6032*%
D39*
X1280500Y1248375D02*
D03*
X1280500Y461625D02*
D03*
D45*
X1419710Y808220D02*
D03*
Y821220D02*
D03*
X1415900Y560570D02*
D03*
Y573570D02*
D03*
D55*
X1661750Y1153500D02*
D03*
D56*
X1721750D02*
D03*
D57*
X1691750Y1200500D02*
D03*
D58*
X1552250Y1197200D02*
D03*
D59*
Y1171800D02*
D03*
D60*
X1698500Y548500D02*
D03*
X1698500Y798500D02*
D03*
D61*
X1658500Y508500D02*
D03*
Y588500D02*
D03*
X1738500Y508500D02*
D03*
Y588500D02*
D03*
X1658500Y758500D02*
D03*
Y838500D02*
D03*
X1738500Y758500D02*
D03*
Y838500D02*
D03*
D62*
X947250Y779950D02*
D03*
X921850D02*
D03*
X947250Y805350D02*
D03*
X921850D02*
D03*
X947250Y830750D02*
D03*
X921850D02*
D03*
X947250Y856150D02*
D03*
X921850D02*
D03*
X947250Y881550D02*
D03*
X1059600Y885800D02*
D03*
X1085000D02*
D03*
X1059600Y860400D02*
D03*
X1085000D02*
D03*
X1059600Y835000D02*
D03*
X1085000D02*
D03*
X1059600Y809600D02*
D03*
X1085000D02*
D03*
X1059600Y784200D02*
D03*
X963300Y578500D02*
D03*
X937900D02*
D03*
X912500D02*
D03*
X887100D02*
D03*
X912500Y541000D02*
D03*
X937900D02*
D03*
X963300D02*
D03*
X988700D02*
D03*
X1016250Y1137350D02*
D03*
Y1162750D02*
D03*
Y1188150D02*
D03*
X1291750Y525500D02*
D03*
X1266350D02*
D03*
X1240950D02*
D03*
X1537500Y1019600D02*
D03*
X1377800Y578500D02*
D03*
Y553100D02*
D03*
Y527700D02*
D03*
X1454000Y603900D02*
D03*
Y578500D02*
D03*
Y553100D02*
D03*
Y527700D02*
D03*
X1381610Y827420D02*
D03*
Y802020D02*
D03*
Y776620D02*
D03*
X1457810Y852820D02*
D03*
Y827420D02*
D03*
Y802020D02*
D03*
Y776620D02*
D03*
X1497330Y1019060D02*
D03*
X1102360D02*
D03*
X1497330Y1190510D02*
D03*
X1101090D02*
D03*
X850750Y1017050D02*
D03*
Y1042450D02*
D03*
Y1067850D02*
D03*
D63*
X921850Y881550D02*
D03*
X1085000Y784200D02*
D03*
X1016250Y1111950D02*
D03*
X1537500Y1045000D02*
D03*
X850750Y1093250D02*
D03*
D64*
X988700Y578500D02*
D03*
X887100Y541000D02*
D03*
X1317150Y525500D02*
D03*
X1377800Y603900D02*
D03*
X1381610Y852820D02*
D03*
D65*
X1528930Y857900D02*
D03*
X1578930D02*
D03*
X1526790Y608980D02*
D03*
X1576790D02*
D03*
D66*
X1765750Y1018625D02*
D03*
Y948375D02*
D03*
D67*
X1735750Y1007750D02*
D03*
Y959250D02*
D03*
D68*
X1172572Y914000D02*
D03*
D69*
X1256500Y946250D02*
D03*
X1205000Y937750D02*
D03*
X1522750Y946000D02*
D03*
X1702406Y983011D02*
D03*
X952750Y502250D02*
D03*
X898750Y1085500D02*
D03*
X1140750Y795250D02*
D03*
X971750Y590000D02*
D03*
X887750Y607000D02*
D03*
X982000Y598500D02*
D03*
X975750Y619500D02*
D03*
X995750Y606750D02*
D03*
X1045560Y718534D02*
D03*
X998750Y716250D02*
D03*
X1056250Y712500D02*
D03*
X1005250Y723000D02*
D03*
X931180Y606356D02*
D03*
X1004250Y765500D02*
D03*
X1039250Y750000D02*
D03*
X1010250Y655250D02*
D03*
X1192301Y754102D02*
D03*
X1010500Y642500D02*
D03*
X1072500Y688750D02*
D03*
X1010500Y629750D02*
D03*
X1054500Y697500D02*
D03*
X1052250Y607500D02*
D03*
X1052500Y750500D02*
D03*
X1130750Y597000D02*
D03*
X1179250Y585000D02*
D03*
X995750Y756500D02*
D03*
X1707915Y977862D02*
D03*
X1163750Y501500D02*
D03*
X1176000D02*
D03*
X1177250Y833750D02*
D03*
X1281802Y751302D02*
D03*
X1313759Y894539D02*
D03*
X1275750Y758000D02*
D03*
X1234000Y834500D02*
D03*
X1195500Y863500D02*
D03*
X1165500Y796500D02*
D03*
X968538Y881550D02*
D03*
X969000Y856250D02*
D03*
X968000Y831000D02*
D03*
X968750Y805250D02*
D03*
X968000Y779750D02*
D03*
X1349000Y572190D02*
D03*
X1342000Y805250D02*
D03*
X1720000Y997000D02*
D03*
D87*
X1739000Y996500D02*
D03*
Y977000D02*
D03*
Y970500D02*
D03*
Y983500D02*
D03*
Y990000D02*
D03*
M02*
